# Blender v3.4.1 OBJ File: 'Prototype_Bits_Export.blend'
# www.blender.org
mtllib Cube_Prototype_Large_A.mtl
o Cube_Prototype_Large_A_Cube.16091
v -2.000000 0.100000 1.900000
v -1.900000 0.000000 1.900000
v -1.900000 0.100000 2.000000
v -1.900000 3.900001 2.000000
v -1.900000 4.000000 1.900000
v -2.000000 3.900001 1.900000
v -2.000000 0.100000 -1.900000
v -1.900000 0.100000 -2.000000
v -1.900000 0.000000 -1.900000
v -1.900000 3.900001 -2.000000
v -2.000000 3.900001 -1.900000
v -1.900000 4.000000 -1.900000
v 2.000000 0.100000 1.900000
v 1.900000 0.100000 2.000000
v 1.900000 0.000000 1.900000
v 2.000000 3.900001 1.900000
v 1.900000 4.000000 1.900000
v 1.900000 3.900001 2.000000
v 2.000000 0.100000 -1.900000
v 1.900000 0.000000 -1.900000
v 1.900000 0.100000 -2.000000
v 2.000000 3.900001 -1.900000
v 1.900000 3.900001 -2.000000
v 1.900000 4.000000 -1.900000
vt 0.034156 0.034156
vt 0.215844 0.034156
vt 0.215844 0.215844
vt 0.034156 0.215844
vt 0.034156 0.034156
vt 0.215844 0.034156
vt 0.215844 0.215844
vt 0.034156 0.215844
vt 0.034156 0.215844
vt 0.034156 0.034156
vt 0.215844 0.034156
vt 0.215844 0.215844
vt 0.215844 0.215844
vt 0.034156 0.215844
vt 0.034156 0.034156
vt 0.215844 0.034156
vt 0.215844 0.215844
vt 0.034156 0.215844
vt 0.034156 0.034156
vt 0.215844 0.034156
vt 0.029375 0.241107
vt 0.029375 0.241107
vt 0.034156 0.241107
vt 0.034156 0.241107
vt 0.029375 0.241107
vt 0.029375 0.241107
vt 0.029375 0.241107
vt 0.034156 0.241107
vt 0.034156 0.241107
vt 0.034156 0.241107
vt 0.029375 0.241107
vt 0.034156 0.241107
vt 0.034156 0.241107
vt 0.029375 0.241107
vt 0.034156 0.241107
vt 0.034156 0.241107
vt 0.034156 0.241107
vt 0.029375 0.241107
vt 0.215844 0.241107
vt 0.215844 0.241107
vt 0.220625 0.241107
vt 0.220625 0.241107
vt 0.215844 0.241107
vt 0.215844 0.241107
vt 0.034156 0.241107
vt 0.034156 0.241107
vt 0.215844 0.241107
vt 0.215844 0.241107
vt 0.034156 0.241107
vt 0.215844 0.241107
vt 0.215844 0.241107
vt 0.034156 0.241107
vt 0.215844 0.241107
vt 0.215844 0.241107
vt 0.215844 0.215844
vt 0.034156 0.215844
vt 0.034156 0.034156
vt 0.215844 0.034156
vn 0.0000 -1.0000 0.0000
vn 0.0000 1.0000 0.0000
vn 0.0000 0.0000 1.0000
vn 0.0000 0.0000 -1.0000
vn 1.0000 0.0000 0.0000
vn -0.7588 -0.4606 0.4606
vn -0.4606 -0.7588 0.4606
vn -0.4606 -0.4606 0.7588
vn -0.4606 0.4606 0.7588
vn -0.4606 0.7588 0.4606
vn -0.7588 0.4606 0.4606
vn -0.7588 -0.4606 -0.4606
vn -0.4606 -0.4606 -0.7588
vn -0.4606 -0.7588 -0.4606
vn -0.4606 0.4606 -0.7588
vn -0.7588 0.4606 -0.4606
vn -0.4606 0.7588 -0.4606
vn 0.7588 -0.4606 0.4606
vn 0.4606 -0.4606 0.7588
vn 0.4606 -0.7588 0.4606
vn 0.7588 0.4606 0.4606
vn 0.4606 0.7588 0.4606
vn 0.4606 0.4606 0.7588
vn 0.7588 -0.4606 -0.4606
vn 0.4606 -0.7588 -0.4606
vn 0.4606 -0.4606 -0.7588
vn 0.7588 0.4606 -0.4606
vn 0.4606 0.4606 -0.7588
vn 0.4606 0.7588 -0.4606
vn -1.0000 0.0000 0.0000
usemtl prototype_texture
s 1
f 9/1/1 20/2/1 15/3/1 2/4/1
f 5/5/2 17/6/2 24/7/2 12/8/2
f 4/9/3 3/10/3 14/11/3 18/12/3
f 10/13/4 23/14/4 21/15/4 8/16/4
f 22/17/5 16/18/5 13/19/5 19/20/5
f 1/21/6 2/22/7 3/23/8
f 4/24/9 5/25/10 6/26/11
f 7/27/12 8/28/13 9/29/14
f 10/30/15 11/31/16 12/32/17
f 13/33/18 14/34/19 15/35/20
f 16/36/21 17/37/22 18/38/23
f 19/39/24 20/40/25 21/41/26
f 22/42/27 23/43/28 24/44/29
f 3/23/8 4/24/9 6/45/11 1/46/6
f 10/30/15 8/28/13 7/27/12 11/31/16
f 22/47/27 19/39/24 21/48/26 23/43/28
f 18/38/23 14/34/19 13/33/18 16/36/21
f 20/40/25 9/29/14 8/28/13 21/48/26
f 2/49/7 15/50/20 14/51/19 3/23/8
f 9/29/14 2/49/7 1/21/6 7/27/12
f 5/52/10 12/32/17 11/31/16 6/26/11
f 17/53/22 5/52/10 4/24/9 18/54/23
f 15/35/20 20/40/25 19/39/24 13/33/18
f 12/32/17 24/44/29 23/43/28 10/30/15
f 24/44/29 17/37/22 16/36/21 22/47/27
f 6/55/30 11/56/30 7/57/30 1/58/30
