# Blender v3.4.1 OBJ File: 'Prototype_Bits_Export.blend'
# www.blender.org
mtllib Door_A.mtl
o Door_A_Cube.16499
v 1.600000 0.000000 -0.100000
v 1.600000 0.000000 0.100000
v -0.000000 0.000000 -0.100000
v 0.000000 0.000000 0.100000
v 1.600000 2.800000 -0.100000
v 1.600000 2.800000 0.100000
v -0.000000 2.800000 -0.100000
v 0.000000 2.800000 0.100000
v 0.000000 1.000000 0.100000
v -0.000000 1.000000 -0.100000
v 1.600000 1.000000 0.100000
v 1.600000 1.000000 -0.100000
v 0.200000 0.900000 -0.100000
v 1.400000 0.900000 -0.100000
v 1.400000 0.200000 -0.100000
v 0.200000 0.200000 -0.100000
v 0.200000 1.100000 0.100000
v 1.400000 1.100000 0.100000
v 1.400000 2.600000 0.100000
v 0.200000 2.600000 0.100000
v 0.200000 0.200000 0.100000
v 1.400000 0.200000 0.100000
v 1.400000 0.900000 0.100000
v 0.200000 0.900000 0.100000
v 0.200000 2.600000 -0.100000
v 1.400000 2.600000 -0.100000
v 1.400000 1.100000 -0.100000
v 0.200000 1.100000 -0.100000
v 0.300000 0.800000 -0.050000
v 1.300000 0.800000 -0.050000
v 1.300000 0.300000 -0.050000
v 0.300000 0.300000 -0.050000
v 0.300000 1.200000 0.050000
v 1.300000 1.200000 0.050000
v 1.300000 2.500000 0.050000
v 0.300000 2.500000 0.050000
v 0.300000 0.300000 0.050000
v 1.300000 0.300000 0.050000
v 1.300000 0.800000 0.050000
v 0.300000 0.800000 0.050000
v 0.300000 2.500000 -0.050000
v 1.300000 2.500000 -0.050000
v 1.300000 1.200000 -0.050000
v 0.300000 1.200000 -0.050000
v 0.400000 0.700000 -0.100000
v 1.200000 0.700000 -0.100000
v 1.200000 0.400000 -0.100000
v 0.400000 0.400000 -0.100000
v 0.400000 1.300000 0.100000
v 1.200000 1.300000 0.100000
v 1.200000 2.400000 0.100000
v 0.400000 2.400000 0.100000
v 0.400000 0.400000 0.100000
v 1.200000 0.400000 0.100000
v 1.200000 0.700000 0.100000
v 0.400000 0.700000 0.100000
v 0.400000 2.400000 -0.100000
v 1.200000 2.400000 -0.100000
v 1.200000 1.300000 -0.100000
v 0.400000 1.300000 -0.100000
v 1.400030 1.088233 0.082225
v 1.400030 1.069450 0.157363
v 1.476441 1.044116 0.082225
v 1.460175 1.034725 0.157363
v 1.476441 0.955884 0.082225
v 1.460175 0.965275 0.157363
v 1.400030 0.911767 0.082225
v 1.400030 0.930550 0.157363
v 1.323618 0.955884 0.082225
v 1.339884 0.965275 0.157363
v 1.323618 1.044116 0.082225
v 1.339884 1.034725 0.157363
v 1.454927 1.054897 0.270322
v 1.497361 1.097331 0.193191
v 1.485763 1.085733 0.247731
v 1.435655 1.132957 0.193191
v 1.420124 1.074991 0.270322
v 1.431410 1.117114 0.247731
v 1.475021 1.020094 0.270322
v 1.532987 1.035626 0.193191
v 1.517143 1.031380 0.247731
v 1.475021 0.979906 0.270322
v 1.532987 0.964374 0.193191
v 1.517143 0.968620 0.247731
v 1.454927 0.945103 0.270322
v 1.497361 0.902669 0.193191
v 1.485763 0.914267 0.247731
v 1.420124 0.925009 0.270322
v 1.435655 0.867043 0.193191
v 1.431410 0.882886 0.247731
v 1.379936 0.925009 0.270322
v 1.364404 0.867043 0.193191
v 1.368649 0.882886 0.247731
v 1.345132 0.945103 0.270322
v 1.302698 0.902669 0.193191
v 1.314296 0.914267 0.247731
v 1.325039 0.979906 0.270322
v 1.267073 0.964374 0.193191
v 1.282916 0.968620 0.247731
v 1.325039 1.020094 0.270322
v 1.267073 1.035626 0.193191
v 1.282916 1.031380 0.247731
v 1.345132 1.054897 0.270322
v 1.302698 1.097331 0.193191
v 1.314296 1.085733 0.247731
v 1.379936 1.074991 0.270322
v 1.364404 1.132957 0.193191
v 1.368649 1.117114 0.247731
v 1.400030 1.000000 0.273031
v 1.400030 1.088233 -0.082225
v 1.400030 1.069450 -0.157363
v 1.476441 1.044116 -0.082225
v 1.460175 1.034725 -0.157363
v 1.476441 0.955884 -0.082225
v 1.460175 0.965275 -0.157363
v 1.400030 0.911767 -0.082225
v 1.400030 0.930550 -0.157363
v 1.323618 0.955884 -0.082225
v 1.339884 0.965275 -0.157363
v 1.323618 1.044116 -0.082225
v 1.339884 1.034725 -0.157363
v 1.454927 1.054897 -0.270322
v 1.497361 1.097331 -0.193191
v 1.485763 1.085733 -0.247731
v 1.435655 1.132957 -0.193191
v 1.420124 1.074991 -0.270322
v 1.431410 1.117114 -0.247731
v 1.475021 1.020094 -0.270322
v 1.532987 1.035626 -0.193191
v 1.517143 1.031380 -0.247731
v 1.475021 0.979906 -0.270322
v 1.532987 0.964374 -0.193191
v 1.517143 0.968620 -0.247731
v 1.454927 0.945103 -0.270322
v 1.497361 0.902669 -0.193191
v 1.485763 0.914267 -0.247731
v 1.420124 0.925009 -0.270322
v 1.435655 0.867043 -0.193191
v 1.431410 0.882886 -0.247731
v 1.379936 0.925009 -0.270322
v 1.364404 0.867043 -0.193191
v 1.368649 0.882886 -0.247731
v 1.345132 0.945103 -0.270322
v 1.302698 0.902669 -0.193191
v 1.314296 0.914267 -0.247731
v 1.325039 0.979906 -0.270322
v 1.267073 0.964374 -0.193191
v 1.282916 0.968620 -0.247731
v 1.325039 1.020094 -0.270322
v 1.267073 1.035626 -0.193191
v 1.282916 1.031380 -0.247731
v 1.345132 1.054897 -0.270322
v 1.302698 1.097331 -0.193191
v 1.314296 1.085733 -0.247731
v 1.379936 1.074991 -0.270322
v 1.364404 1.132957 -0.193191
v 1.368649 1.117114 -0.247731
v 1.400030 1.000000 -0.273031
vt 0.775446 0.819890
vt 0.775446 0.864628
vt 0.775446 0.864628
vt 0.775446 0.819890
vt 0.813676 0.819890
vt 0.813676 0.819890
vt 0.813676 0.864628
vt 0.813676 0.864628
vt 0.813676 0.903426
vt 0.813676 0.903426
vt 0.775446 0.903426
vt 0.775446 0.903426
vt 0.813676 0.762219
vt 0.775446 0.762219
vt 0.775446 0.762219
vt 0.813676 0.762219
vt 0.785003 0.814927
vt 0.804119 0.814927
vt 0.804119 0.805980
vt 0.785003 0.805980
vt 0.785004 0.842764
vt 0.804119 0.842764
vt 0.804119 0.867619
vt 0.785004 0.867619
vt 0.785003 0.805980
vt 0.804119 0.805980
vt 0.804119 0.814927
vt 0.785004 0.814927
vt 0.785004 0.867619
vt 0.804119 0.867619
vt 0.804119 0.842764
vt 0.785004 0.842764
vt 0.813676 0.775152
vt 0.813676 0.775152
vt 0.775446 0.775152
vt 0.775446 0.775152
vt 0.775446 0.832823
vt 0.813676 0.832823
vt 0.808897 0.823875
vt 0.780225 0.823875
vt 0.813676 0.788085
vt 0.808897 0.797032
vt 0.775446 0.788085
vt 0.780225 0.797032
vt 0.775446 0.832823
vt 0.813676 0.832823
vt 0.808897 0.837793
vt 0.780225 0.837793
vt 0.813676 0.877560
vt 0.808897 0.872590
vt 0.775446 0.877560
vt 0.780225 0.872590
vt 0.775446 0.788085
vt 0.813676 0.788085
vt 0.808897 0.797032
vt 0.780225 0.797032
vt 0.808897 0.823875
vt 0.780225 0.823875
vt 0.775446 0.877560
vt 0.813676 0.877560
vt 0.808897 0.872590
vt 0.780225 0.872590
vt 0.808897 0.837793
vt 0.780225 0.837793
vt 0.780225 0.798010
vt 0.808897 0.798010
vt 0.806508 0.793536
vt 0.782614 0.793536
vt 0.808897 0.836807
vt 0.808897 0.809965
vt 0.806508 0.814438
vt 0.806508 0.832334
vt 0.808897 0.822897
vt 0.780225 0.822897
vt 0.782614 0.827371
vt 0.806508 0.827371
vt 0.780225 0.784100
vt 0.780225 0.810942
vt 0.782614 0.806469
vt 0.782614 0.788573
vt 0.780225 0.863659
vt 0.808897 0.863659
vt 0.806508 0.866144
vt 0.782614 0.866144
vt 0.808897 0.824861
vt 0.808897 0.859657
vt 0.806508 0.857172
vt 0.806508 0.827346
vt 0.808897 0.846725
vt 0.780225 0.846725
vt 0.782614 0.844239
vt 0.806508 0.844239
vt 0.780225 0.885522
vt 0.780225 0.850726
vt 0.782614 0.853211
vt 0.782614 0.883037
vt 0.780225 0.822897
vt 0.808897 0.822897
vt 0.806508 0.827371
vt 0.782614 0.827371
vt 0.808897 0.784100
vt 0.808897 0.810942
vt 0.806508 0.806469
vt 0.806508 0.788573
vt 0.808897 0.798010
vt 0.780225 0.798010
vt 0.782614 0.793536
vt 0.806508 0.793536
vt 0.780225 0.836807
vt 0.780225 0.809965
vt 0.782614 0.814438
vt 0.782614 0.832334
vt 0.780225 0.846725
vt 0.808897 0.846725
vt 0.806508 0.844239
vt 0.782614 0.844239
vt 0.808897 0.885522
vt 0.808897 0.850726
vt 0.806508 0.853211
vt 0.806508 0.883037
vt 0.808897 0.863659
vt 0.780225 0.863659
vt 0.782614 0.866144
vt 0.806508 0.866144
vt 0.780225 0.824861
vt 0.780225 0.859657
vt 0.782614 0.857172
vt 0.782614 0.827346
vt 0.782614 0.845266
vt 0.806508 0.845266
vt 0.804119 0.840792
vt 0.785003 0.840792
vt 0.806508 0.806469
vt 0.806508 0.788573
vt 0.804119 0.793047
vt 0.804119 0.801995
vt 0.806508 0.775641
vt 0.782614 0.775641
vt 0.785003 0.780115
vt 0.804119 0.780115
vt 0.782614 0.814438
vt 0.782614 0.832334
vt 0.785003 0.827860
vt 0.785003 0.818912
vt 0.782614 0.814414
vt 0.806508 0.814414
vt 0.804119 0.816899
vt 0.785004 0.816899
vt 0.806508 0.853211
vt 0.806508 0.883037
vt 0.804119 0.880551
vt 0.804119 0.855697
vt 0.806508 0.895969
vt 0.782614 0.895969
vt 0.785004 0.893484
vt 0.804119 0.893484
vt 0.782614 0.857172
vt 0.782614 0.827346
vt 0.785004 0.829832
vt 0.785004 0.854686
vt 0.782614 0.775641
vt 0.806508 0.775641
vt 0.804119 0.780115
vt 0.785003 0.780115
vt 0.806508 0.814438
vt 0.806508 0.832334
vt 0.804119 0.827860
vt 0.804119 0.818912
vt 0.806508 0.845266
vt 0.782614 0.845266
vt 0.785004 0.840792
vt 0.804119 0.840792
vt 0.782614 0.806469
vt 0.782614 0.788573
vt 0.785003 0.793047
vt 0.785004 0.801995
vt 0.782614 0.895969
vt 0.806508 0.895969
vt 0.804119 0.893484
vt 0.785004 0.893484
vt 0.806508 0.857172
vt 0.806508 0.827346
vt 0.804119 0.829832
vt 0.804119 0.854686
vt 0.806508 0.814414
vt 0.782614 0.814414
vt 0.785004 0.816899
vt 0.804119 0.816899
vt 0.782614 0.853211
vt 0.782614 0.883037
vt 0.785004 0.880551
vt 0.785004 0.855697
vt 0.311053 0.890616
vt 0.311053 0.887490
vt 0.316836 0.885942
vt 0.318404 0.888649
vt 0.323766 0.883274
vt 0.321052 0.881711
vt 0.322620 0.875933
vt 0.325739 0.875933
vt 0.323766 0.868591
vt 0.321052 0.870154
vt 0.316836 0.865923
vt 0.318404 0.863216
vt 0.311053 0.861249
vt 0.311053 0.864375
vt 0.305269 0.865923
vt 0.303718 0.863216
vt 0.298339 0.868591
vt 0.301054 0.870154
vt 0.299503 0.875933
vt 0.296367 0.875933
vt 0.305269 0.850298
vt 0.299992 0.841146
vt 0.291898 0.849244
vt 0.298339 0.883274
vt 0.301054 0.881711
vt 0.305269 0.885942
vt 0.303718 0.888649
vt 0.316836 0.870317
vt 0.322114 0.879470
vt 0.330207 0.871371
vt 0.311053 0.848750
vt 0.311053 0.838181
vt 0.316836 0.850298
vt 0.322114 0.841146
vt 0.321052 0.854529
vt 0.330207 0.849244
vt 0.322620 0.860308
vt 0.321052 0.866086
vt 0.333175 0.860308
vt 0.305269 0.870317
vt 0.299992 0.879470
vt 0.311053 0.882434
vt 0.301054 0.866086
vt 0.291898 0.871371
vt 0.299503 0.860308
vt 0.288931 0.860308
vt 0.301054 0.854529
vt 0.322114 0.895095
vt 0.311053 0.898059
vt 0.311053 0.930036
vt 0.322485 0.926974
vt 0.322485 0.942599
vt 0.311053 0.945661
vt 0.311053 0.935287
vt 0.317292 0.933615
vt 0.330207 0.886996
vt 0.330848 0.887359
vt 0.330848 0.902984
vt 0.321861 0.897798
vt 0.333175 0.875933
vt 0.333917 0.875933
vt 0.333917 0.891558
vt 0.323547 0.891558
vt 0.330207 0.864869
vt 0.330848 0.864506
vt 0.330848 0.880131
vt 0.321861 0.885318
vt 0.322114 0.856771
vt 0.322485 0.824891
vt 0.322485 0.840516
vt 0.317292 0.849500
vt 0.311053 0.853806
vt 0.311053 0.821829
vt 0.311053 0.837454
vt 0.311053 0.847828
vt 0.299992 0.856771
vt 0.299621 0.824891
vt 0.299621 0.840516
vt 0.304814 0.849500
vt 0.291898 0.864869
vt 0.291258 0.864506
vt 0.291258 0.880131
vt 0.300245 0.885318
vt 0.288931 0.875933
vt 0.288189 0.875933
vt 0.288189 0.891558
vt 0.298575 0.891558
vt 0.291898 0.886996
vt 0.291258 0.887359
vt 0.291258 0.902984
vt 0.300245 0.897798
vt 0.299992 0.895095
vt 0.299621 0.926974
vt 0.299621 0.942599
vt 0.304814 0.933615
vt 0.311053 0.871865
vt 0.311053 0.938433
vt 0.311053 0.890616
vt 0.318404 0.888649
vt 0.316836 0.885942
vt 0.311053 0.887490
vt 0.323766 0.883274
vt 0.325739 0.875933
vt 0.322620 0.875933
vt 0.321052 0.881711
vt 0.323766 0.868591
vt 0.318404 0.863216
vt 0.316836 0.865923
vt 0.321052 0.870154
vt 0.311053 0.861249
vt 0.303718 0.863216
vt 0.305269 0.865923
vt 0.311053 0.864375
vt 0.298339 0.868591
vt 0.296367 0.875933
vt 0.299503 0.875933
vt 0.301054 0.870154
vt 0.305269 0.850298
vt 0.291898 0.849244
vt 0.299992 0.841146
vt 0.298339 0.883274
vt 0.303718 0.888649
vt 0.305269 0.885942
vt 0.301054 0.881711
vt 0.316836 0.870317
vt 0.330207 0.871371
vt 0.322114 0.879470
vt 0.311053 0.838181
vt 0.311053 0.848750
vt 0.316836 0.850298
vt 0.322114 0.841146
vt 0.330207 0.849244
vt 0.321052 0.854529
vt 0.322620 0.860308
vt 0.333175 0.860308
vt 0.321052 0.866086
vt 0.305269 0.870317
vt 0.311053 0.882434
vt 0.299992 0.879470
vt 0.291898 0.871371
vt 0.301054 0.866086
vt 0.299503 0.860308
vt 0.288931 0.860308
vt 0.301054 0.854529
vt 0.322114 0.895095
vt 0.322485 0.926974
vt 0.311053 0.930036
vt 0.311053 0.898059
vt 0.322485 0.942599
vt 0.317292 0.933615
vt 0.311053 0.935287
vt 0.311053 0.945661
vt 0.330207 0.886996
vt 0.330848 0.887359
vt 0.330848 0.902984
vt 0.321861 0.897798
vt 0.333175 0.875933
vt 0.333917 0.875933
vt 0.333917 0.891558
vt 0.323547 0.891558
vt 0.330207 0.864869
vt 0.330848 0.864506
vt 0.330848 0.880131
vt 0.321861 0.885318
vt 0.322114 0.856771
vt 0.322485 0.824891
vt 0.322485 0.840516
vt 0.317292 0.849500
vt 0.311053 0.853806
vt 0.311053 0.821829
vt 0.311053 0.837454
vt 0.311053 0.847828
vt 0.299992 0.856771
vt 0.299621 0.824891
vt 0.299621 0.840516
vt 0.304814 0.849500
vt 0.291898 0.864869
vt 0.291258 0.864506
vt 0.291258 0.880131
vt 0.300245 0.885318
vt 0.288931 0.875933
vt 0.288189 0.875933
vt 0.288189 0.891558
vt 0.298575 0.891558
vt 0.291898 0.886996
vt 0.291258 0.887359
vt 0.291258 0.902984
vt 0.300245 0.897798
vt 0.299992 0.895095
vt 0.299621 0.926974
vt 0.299621 0.942599
vt 0.304814 0.933615
vt 0.311053 0.871865
vt 0.311053 0.938433
vn -1.0000 0.0000 0.0000
vn 1.0000 0.0000 -0.0000
vn 0.0000 1.0000 0.0000
vn 0.0000 -1.0000 0.0000
vn 0.0000 0.0000 -1.0000
vn 0.0000 0.0000 1.0000
vn 0.0000 -0.4472 -0.8944
vn -0.4472 0.0000 -0.8944
vn 0.0000 0.4472 -0.8944
vn 0.4472 0.0000 -0.8944
vn 0.0000 0.4472 0.8944
vn -0.4472 0.0000 0.8944
vn 0.0000 -0.4472 0.8944
vn 0.4472 0.0000 0.8944
vn 0.4887 0.8464 0.2116
vn 0.9774 0.0000 0.2116
vn 0.4887 -0.8464 0.2116
vn -0.4887 -0.8464 0.2116
vn -0.9774 0.0000 0.2116
vn -0.3595 -0.2075 -0.9098
vn -0.3085 -0.3278 -0.8930
vn -0.4381 -0.1033 -0.8930
vn -0.4887 0.8464 0.2116
vn 0.3595 0.2075 -0.9098
vn 0.3085 0.3278 -0.8930
vn 0.4381 0.1033 -0.8930
vn -0.0000 -0.4151 -0.9098
vn -0.1296 -0.4311 -0.8930
vn 0.1296 -0.4311 -0.8930
vn 0.3595 -0.2075 -0.9098
vn 0.3085 -0.3278 -0.8930
vn 0.4381 -0.1033 -0.8930
vn -0.0000 0.4151 -0.9098
vn -0.1296 0.4311 -0.8930
vn 0.1296 0.4311 -0.8930
vn -0.3595 0.2075 -0.9098
vn -0.3085 0.3278 -0.8930
vn -0.4381 0.1033 -0.8930
vn 0.6771 0.6771 0.2880
vn 0.2479 0.9250 0.2880
vn 0.3253 0.3253 0.8879
vn 0.1191 0.4443 0.8879
vn 0.0743 0.2774 0.9579
vn 0.2031 0.2031 0.9579
vn 0.9250 0.2479 0.2880
vn 0.4443 0.1191 0.8879
vn 0.2774 0.0743 0.9579
vn 0.9250 -0.2479 0.2880
vn 0.4443 -0.1191 0.8879
vn 0.2774 -0.0743 0.9579
vn 0.6771 -0.6771 0.2880
vn 0.3253 -0.3253 0.8879
vn 0.2031 -0.2031 0.9579
vn 0.2479 -0.9250 0.2880
vn 0.1191 -0.4443 0.8879
vn 0.0743 -0.2774 0.9579
vn -0.2479 -0.9250 0.2880
vn -0.1191 -0.4443 0.8879
vn -0.0743 -0.2774 0.9579
vn -0.6771 -0.6771 0.2880
vn -0.3253 -0.3253 0.8879
vn -0.2031 -0.2031 0.9579
vn -0.9250 -0.2479 0.2880
vn -0.4443 -0.1191 0.8879
vn -0.2774 -0.0743 0.9579
vn -0.9250 0.2479 0.2880
vn -0.4443 0.1191 0.8879
vn -0.2774 0.0743 0.9579
vn -0.6771 0.6771 0.2880
vn -0.3253 0.3253 0.8879
vn -0.2031 0.2031 0.9579
vn -0.2479 0.9250 0.2880
vn -0.1191 0.4443 0.8879
vn -0.0743 0.2774 0.9579
vn 0.4887 0.8464 -0.2116
vn 0.9774 0.0000 -0.2116
vn 0.4887 -0.8464 -0.2116
vn -0.4887 -0.8464 -0.2116
vn -0.9774 0.0000 -0.2116
vn -0.3595 -0.2075 0.9098
vn -0.4381 -0.1033 0.8930
vn -0.3085 -0.3278 0.8930
vn -0.4887 0.8464 -0.2116
vn 0.3595 0.2075 0.9098
vn 0.4381 0.1033 0.8930
vn 0.3085 0.3278 0.8930
vn -0.1296 -0.4311 0.8930
vn -0.0000 -0.4151 0.9098
vn 0.1296 -0.4311 0.8930
vn 0.3085 -0.3278 0.8930
vn 0.3595 -0.2075 0.9098
vn 0.4381 -0.1033 0.8930
vn -0.0000 0.4151 0.9098
vn 0.1296 0.4311 0.8930
vn -0.1296 0.4311 0.8930
vn -0.3085 0.3278 0.8930
vn -0.3595 0.2075 0.9098
vn -0.4381 0.1033 0.8930
vn 0.6771 0.6771 -0.2880
vn 0.2479 0.9250 -0.2880
vn 0.3253 0.3253 -0.8879
vn 0.2031 0.2031 -0.9579
vn 0.0743 0.2774 -0.9579
vn 0.1191 0.4443 -0.8879
vn 0.9250 0.2479 -0.2880
vn 0.4443 0.1191 -0.8879
vn 0.2774 0.0743 -0.9579
vn 0.9250 -0.2479 -0.2880
vn 0.4443 -0.1191 -0.8879
vn 0.2774 -0.0743 -0.9579
vn 0.6771 -0.6771 -0.2880
vn 0.3253 -0.3253 -0.8879
vn 0.2031 -0.2031 -0.9579
vn 0.2479 -0.9250 -0.2880
vn 0.1191 -0.4443 -0.8879
vn 0.0743 -0.2774 -0.9579
vn -0.2479 -0.9250 -0.2880
vn -0.1191 -0.4443 -0.8879
vn -0.0743 -0.2774 -0.9579
vn -0.6771 -0.6771 -0.2880
vn -0.3253 -0.3253 -0.8879
vn -0.2031 -0.2031 -0.9579
vn -0.9250 -0.2479 -0.2880
vn -0.4443 -0.1191 -0.8879
vn -0.2774 -0.0743 -0.9579
vn -0.9250 0.2479 -0.2880
vn -0.4443 0.1191 -0.8879
vn -0.2774 0.0743 -0.9579
vn -0.6771 0.6771 -0.2880
vn -0.3253 0.3253 -0.8879
vn -0.2031 0.2031 -0.9579
vn -0.2479 0.9250 -0.2880
vn -0.1191 0.4443 -0.8879
vn -0.0743 0.2774 -0.9579
usemtl prototype_texture
s off
f 9/1/1 8/2/1 7/3/1 10/4/1
f 11/5/2 12/6/2 5/7/2 6/8/2
f 6/9/3 5/10/3 7/11/3 8/12/3
f 2/13/4 4/14/4 3/15/4 1/16/4
f 45/17/5 46/18/5 47/19/5 48/20/5
f 49/21/6 50/22/6 51/23/6 52/24/6
f 53/25/6 54/26/6 55/27/6 56/28/6
f 57/29/5 58/30/5 59/31/5 60/32/5
f 2/33/2 1/34/2 12/6/2 11/5/2
f 4/35/1 9/1/1 10/4/1 3/36/1
f 10/37/5 12/38/5 14/39/5 13/40/5
f 12/38/5 1/41/5 15/42/5 14/39/5
f 1/41/5 3/43/5 16/44/5 15/42/5
f 3/43/5 10/37/5 13/40/5 16/44/5
f 9/45/6 11/46/6 18/47/6 17/48/6
f 11/46/6 6/49/6 19/50/6 18/47/6
f 6/49/6 8/51/6 20/52/6 19/50/6
f 8/51/6 9/45/6 17/48/6 20/52/6
f 4/53/6 2/54/6 22/55/6 21/56/6
f 2/54/6 11/46/6 23/57/6 22/55/6
f 11/46/6 9/45/6 24/58/6 23/57/6
f 9/45/6 4/53/6 21/56/6 24/58/6
f 7/59/5 5/60/5 26/61/5 25/62/5
f 5/60/5 12/38/5 27/63/5 26/61/5
f 12/38/5 10/37/5 28/64/5 27/63/5
f 10/37/5 7/59/5 25/62/5 28/64/5
f 13/65/7 14/66/7 30/67/7 29/68/7
f 14/69/8 15/70/8 31/71/8 30/72/8
f 15/73/9 16/74/9 32/75/9 31/76/9
f 16/77/10 13/78/10 29/79/10 32/80/10
f 17/81/11 18/82/11 34/83/11 33/84/11
f 18/85/12 19/86/12 35/87/12 34/88/12
f 19/89/13 20/90/13 36/91/13 35/92/13
f 20/93/14 17/94/14 33/95/14 36/96/14
f 21/97/11 22/98/11 38/99/11 37/100/11
f 22/101/12 23/102/12 39/103/12 38/104/12
f 23/105/13 24/106/13 40/107/13 39/108/13
f 24/109/14 21/110/14 37/111/14 40/112/14
f 25/113/7 26/114/7 42/115/7 41/116/7
f 26/117/8 27/118/8 43/119/8 42/120/8
f 27/121/9 28/122/9 44/123/9 43/124/9
f 28/125/10 25/126/10 41/127/10 44/128/10
f 29/129/9 30/130/9 46/131/9 45/132/9
f 30/133/10 31/134/10 47/135/10 46/136/10
f 31/137/7 32/138/7 48/139/7 47/140/7
f 32/141/8 29/142/8 45/143/8 48/144/8
f 33/145/13 34/146/13 50/147/13 49/148/13
f 34/149/14 35/150/14 51/151/14 50/152/14
f 35/153/11 36/154/11 52/155/11 51/156/11
f 36/157/12 33/158/12 49/159/12 52/160/12
f 37/161/13 38/162/13 54/163/13 53/164/13
f 38/165/14 39/166/14 55/167/14 54/168/14
f 39/169/11 40/170/11 56/171/11 55/172/11
f 40/173/12 37/174/12 53/175/12 56/176/12
f 41/177/9 42/178/9 58/179/9 57/180/9
f 42/181/10 43/182/10 59/183/10 58/184/10
f 43/185/7 44/186/7 60/187/7 59/188/7
f 44/189/8 41/190/8 57/191/8 60/192/8
s 1
f 61/193/15 62/194/15 64/195/15 63/196/15
f 63/197/16 64/198/16 66/199/16 65/200/16
f 65/201/17 66/202/17 68/203/17 67/204/17
f 67/205/18 68/206/18 70/207/18 69/208/18
f 69/209/19 70/210/19 72/211/19 71/212/19
f 70/213/20 95/214/21 98/215/22
f 71/216/23 72/217/23 62/218/23 61/219/23
f 64/220/24 74/221/25 80/222/26
f 70/213/20 68/223/27 92/224/28 95/214/21
f 68/225/27 89/226/29 92/224/28
f 68/225/27 66/227/30 86/228/31 89/226/29
f 66/229/30 64/230/24 80/222/26 83/231/32
f 66/229/30 83/231/32 86/228/31
f 62/232/33 107/233/34 76/234/35
f 62/232/33 72/235/36 104/236/37 107/233/34
f 72/237/36 101/238/38 104/236/37
f 72/237/36 70/239/20 98/215/22 101/238/38
f 74/240/39 76/241/40 78/242/40 75/243/39
f 75/244/41 78/245/42 77/246/43 73/247/44
f 80/248/45 74/240/39 75/243/39 81/249/45
f 81/250/46 75/244/41 73/247/44 79/251/47
f 83/252/48 80/248/45 81/249/45 84/253/48
f 84/254/49 81/250/46 79/251/47 82/255/50
f 86/256/51 83/252/48 84/253/48 87/257/51
f 87/258/52 84/254/49 82/255/50 85/259/53
f 89/260/54 86/256/51 87/257/51 90/261/54
f 90/262/55 87/258/52 85/259/53 88/263/56
f 92/264/57 89/260/54 90/261/54 93/265/57
f 93/266/58 90/262/55 88/263/56 91/267/59
f 95/268/60 92/264/57 93/265/57 96/269/60
f 96/270/61 93/266/58 91/267/59 94/271/62
f 98/272/63 95/268/60 96/269/60 99/273/63
f 99/274/64 96/270/61 94/271/62 97/275/65
f 101/276/66 98/272/63 99/273/63 102/277/66
f 102/278/67 99/274/64 97/275/65 100/279/68
f 104/280/69 101/276/66 102/277/66 105/281/69
f 105/282/70 102/278/67 100/279/68 103/283/71
f 107/284/72 104/280/69 105/281/69 108/285/72
f 108/286/73 105/282/70 103/283/71 106/287/74
f 76/241/40 107/284/72 108/285/72 78/242/40
f 78/245/42 108/286/73 106/287/74 77/246/43
f 64/220/24 62/288/33 76/234/35 74/221/25
f 73/247/44 77/246/43 109/289/6
f 77/246/43 106/287/74 109/289/6
f 106/287/74 103/283/71 109/289/6
f 103/283/71 100/279/68 109/289/6
f 100/279/68 97/275/65 109/289/6
f 97/275/65 94/271/62 109/289/6
f 94/271/62 91/267/59 109/289/6
f 91/267/59 88/263/56 109/289/6
f 88/263/56 85/259/53 109/289/6
f 85/259/53 82/255/50 109/289/6
f 82/255/50 79/251/47 109/289/6
f 79/251/47 73/247/44 109/289/6
f 110/290/75 112/291/75 113/292/75 111/293/75
f 112/294/76 114/295/76 115/296/76 113/297/76
f 114/298/77 116/299/77 117/300/77 115/301/77
f 116/302/78 118/303/78 119/304/78 117/305/78
f 118/306/79 120/307/79 121/308/79 119/309/79
f 119/310/80 147/311/81 144/312/82
f 120/313/83 110/314/83 111/315/83 121/316/83
f 113/317/84 129/318/85 123/319/86
f 119/310/80 144/312/82 141/320/87 117/321/88
f 117/322/88 141/320/87 138/323/89
f 117/322/88 138/323/89 135/324/90 115/325/91
f 115/326/91 132/327/92 129/318/85 113/328/84
f 115/326/91 135/324/90 132/327/92
f 111/329/93 125/330/94 156/331/95
f 111/329/93 156/331/95 153/332/96 121/333/97
f 121/334/97 153/332/96 150/335/98
f 121/334/97 150/335/98 147/311/81 119/336/80
f 123/337/99 124/338/99 127/339/100 125/340/100
f 124/341/101 122/342/102 126/343/103 127/344/104
f 129/345/105 130/346/105 124/338/99 123/337/99
f 130/347/106 128/348/107 122/342/102 124/341/101
f 132/349/108 133/350/108 130/346/105 129/345/105
f 133/351/109 131/352/110 128/348/107 130/347/106
f 135/353/111 136/354/111 133/350/108 132/349/108
f 136/355/112 134/356/113 131/352/110 133/351/109
f 138/357/114 139/358/114 136/354/111 135/353/111
f 139/359/115 137/360/116 134/356/113 136/355/112
f 141/361/117 142/362/117 139/358/114 138/357/114
f 142/363/118 140/364/119 137/360/116 139/359/115
f 144/365/120 145/366/120 142/362/117 141/361/117
f 145/367/121 143/368/122 140/364/119 142/363/118
f 147/369/123 148/370/123 145/366/120 144/365/120
f 148/371/124 146/372/125 143/368/122 145/367/121
f 150/373/126 151/374/126 148/370/123 147/369/123
f 151/375/127 149/376/128 146/372/125 148/371/124
f 153/377/129 154/378/129 151/374/126 150/373/126
f 154/379/130 152/380/131 149/376/128 151/375/127
f 156/381/132 157/382/132 154/378/129 153/377/129
f 157/383/133 155/384/134 152/380/131 154/379/130
f 125/340/100 127/339/100 157/382/132 156/381/132
f 127/344/104 126/343/103 155/384/134 157/383/133
f 113/317/84 123/319/86 125/330/94 111/385/93
f 122/342/102 158/386/5 126/343/103
f 126/343/103 158/386/5 155/384/134
f 155/384/134 158/386/5 152/380/131
f 152/380/131 158/386/5 149/376/128
f 149/376/128 158/386/5 146/372/125
f 146/372/125 158/386/5 143/368/122
f 143/368/122 158/386/5 140/364/119
f 140/364/119 158/386/5 137/360/116
f 137/360/116 158/386/5 134/356/113
f 134/356/113 158/386/5 131/352/110
f 131/352/110 158/386/5 128/348/107
f 128/348/107 158/386/5 122/342/102
