# Blender v3.4.1 OBJ File: 'Prototype_Bits_Export.blend'
# www.blender.org
mtllib Floor_Prototype.mtl
o Floor_Prototype_Cube.16274
v -2.000000 0.000000 2.000000
v -2.000000 0.000000 -2.000000
v 2.000000 0.000000 2.000000
v 2.000000 0.000000 -2.000000
v -2.000000 0.400000 2.000000
v -2.000000 0.400000 -2.000000
v 2.000000 0.400000 2.000000
v 2.000000 0.400000 -2.000000
v -1.900000 0.500001 1.900000
v -1.900000 0.500001 -1.900000
v 1.900000 0.500001 1.900000
v 1.900000 0.500001 -1.900000
vt 0.031250 0.218750
vt 0.218750 0.218750
vt 0.218750 0.031250
vt 0.031250 0.031250
vt 0.218159 0.014214
vt 0.225363 0.016492
vt 0.225363 0.014230
vt 0.218159 0.011951
vt 0.218159 0.016492
vt 0.218159 0.014230
vt 0.225363 0.011951
vt 0.225363 0.014214
vt 0.225363 0.014214
vt 0.225363 0.016492
vt 0.225363 0.014230
vt 0.225363 0.011951
vt 0.034156 0.034156
vt 0.215844 0.034156
vt 0.215844 0.215844
vt 0.034156 0.215844
vt 0.034156 0.241107
vt 0.034156 0.241107
vt 0.029375 0.241107
vt 0.029375 0.241107
vt 0.215844 0.241107
vt 0.034156 0.241107
vt 0.215844 0.241107
vt 0.215844 0.241107
vt 0.215844 0.241107
vt 0.034156 0.241107
vt 0.034156 0.241107
vt 0.034156 0.241107
vt 0.218159 0.014214
vt 0.218159 0.016492
vt 0.218159 0.014230
vt 0.218159 0.011951
vn 0.0000 -1.0000 0.0000
vn 0.0000 0.0000 -1.0000
vn 0.0000 0.0000 1.0000
vn 1.0000 0.0000 0.0000
vn 0.0000 1.0000 0.0000
vn -0.7071 0.7071 0.0000
vn 0.0000 0.7071 0.7071
vn 0.0000 0.7071 -0.7071
vn 0.7071 0.7071 0.0000
vn -1.0000 0.0000 0.0000
usemtl prototype_texture
s 1
f 2/1/1 4/2/1 3/3/1 1/4/1
f 6/5/2 8/6/2 4/7/2 2/8/2
f 5/9/3 1/10/3 3/11/3 7/12/3
f 8/13/4 7/14/4 3/15/4 4/16/4
f 9/17/5 11/18/5 12/19/5 10/20/5
f 9/21/6 10/22/6 6/23/6 5/24/6
f 11/25/7 9/21/7 5/26/7 7/27/7
f 10/22/8 12/28/8 8/29/8 6/30/8
f 12/28/9 11/31/9 7/32/9 8/29/9
f 5/33/10 6/34/10 2/35/10 1/36/10
