# Blender v3.4.1 OBJ File: 'Prototype_Bits_Export.blend'
# www.blender.org
mtllib Pillar_A.mtl
o Pillar_A_Cube.16099
v -0.300000 0.000000 0.300000
v -0.300000 0.000000 -0.300000
v 0.300000 0.000000 0.300000
v 0.300000 0.000000 -0.300000
v -0.300000 0.900000 0.300000
v -0.300000 0.700000 0.300000
v -0.200000 0.800000 0.200000
v -0.300000 0.700000 -0.300000
v -0.300000 0.900000 -0.300000
v -0.200000 0.800000 -0.200000
v 0.300000 0.700000 -0.300000
v 0.300000 0.900000 -0.300000
v 0.200000 0.800000 -0.200000
v 0.300000 0.700000 0.300000
v 0.300000 0.900000 0.300000
v 0.200000 0.800000 0.200000
v -0.300000 4.000000 0.300000
v -0.200000 4.100000 0.200000
v -0.200000 4.100000 -0.200000
v -0.300000 4.000000 -0.300000
v 0.200000 4.100000 0.200000
v 0.300000 4.000000 0.300000
v 0.200000 4.100000 -0.200000
v 0.300000 4.000000 -0.300000
vt 0.202123 0.591042
vt 0.202123 0.622257
vt 0.172870 0.622257
vt 0.172870 0.591042
vt 0.202123 0.591042
vt 0.202123 0.622257
vt 0.172870 0.622257
vt 0.172870 0.591042
vt 0.172870 0.567224
vt 0.202123 0.567224
vt 0.202123 0.567224
vt 0.172870 0.567224
vt 0.327123 0.841359
vt 0.327123 0.885169
vt 0.297870 0.885169
vt 0.297870 0.841359
vt 0.327123 0.841359
vt 0.327123 0.885169
vt 0.324198 0.919344
vt 0.300796 0.919344
vt 0.300796 0.919344
vt 0.324198 0.919344
vt 0.327123 0.810109
vt 0.297870 0.810109
vt 0.300796 0.807183
vt 0.324198 0.807183
vt 0.199198 0.674353
vt 0.175796 0.674353
vt 0.172870 0.669894
vt 0.202123 0.669894
vt 0.327123 0.810109
vt 0.324198 0.807183
vt 0.199198 0.674353
vt 0.202123 0.669894
vt 0.297870 0.810109
vt 0.300796 0.807183
vt 0.175796 0.674353
vt 0.172870 0.669894
vt 0.297870 0.841359
vt 0.297870 0.885169
vt 0.300796 0.903719
vt 0.300796 0.903719
vt 0.297870 0.900794
vt 0.297870 0.900794
vt 0.324198 0.903719
vt 0.327123 0.900794
vt 0.324198 0.903719
vt 0.327123 0.900794
vn 0.0000 0.0000 1.0000
vn 1.0000 0.0000 0.0000
vn -1.0000 0.0000 0.0000
vn 0.0000 -1.0000 0.0000
vn 0.0000 0.0000 -1.0000
vn 0.0000 1.0000 0.0000
vn 0.0000 -0.7071 0.7071
vn 0.0000 0.7071 0.7071
vn 0.7071 -0.7071 0.0000
vn 0.7071 0.7071 0.0000
vn 0.0000 -0.7071 -0.7071
vn 0.0000 0.7071 -0.7071
vn -0.7071 -0.7071 0.0000
vn -0.7071 0.7071 0.0000
usemtl prototype_texture
s 1
f 3/1/1 14/2/1 6/3/1 1/4/1
f 4/5/2 11/6/2 14/2/2 3/1/2
f 1/4/3 6/3/3 8/7/3 2/8/3
f 2/9/4 4/10/4 3/11/4 1/12/4
f 15/13/1 22/14/1 17/15/1 5/16/1
f 2/8/5 8/7/5 11/6/5 4/5/5
f 12/17/2 24/18/2 22/14/2 15/13/2
f 23/19/6 19/20/6 18/21/6 21/22/6
f 15/23/7 5/24/7 7/25/7 16/26/7
f 16/27/8 7/28/8 6/29/8 14/30/8
f 12/31/9 15/23/9 16/26/9 13/32/9
f 13/33/10 16/27/10 14/30/10 11/34/10
f 9/35/11 12/31/11 13/32/11 10/36/11
f 10/37/12 13/33/12 11/34/12 8/38/12
f 5/24/13 9/35/13 10/36/13 7/25/13
f 7/28/14 10/37/14 8/38/14 6/29/14
f 9/39/5 20/40/5 24/18/5 12/17/5
f 18/41/14 19/42/14 20/43/14 17/44/14
f 19/42/12 23/45/12 24/46/12 20/43/12
f 23/45/10 21/47/10 22/48/10 24/46/10
f 21/47/8 18/41/8 17/44/8 22/48/8
f 5/16/3 17/15/3 20/40/3 9/39/3
