# Blender v3.4.1 OBJ File: 'Prototype_Bits_Export.blend'
# www.blender.org
mtllib Primitive_Wall_Slope.mtl
o Primitive_Wall_Slope_Cube.16417
v -2.000000 0.000000 -0.499999
v -2.000000 4.000000 -0.499999
v 2.000000 0.000000 -0.500001
v -2.000000 0.000000 0.500001
v -2.000000 4.000000 0.500001
v 2.000000 0.000000 0.499999
vt 0.027716 0.805433
vt 0.097284 0.944568
vt 0.097284 0.805433
vt 0.097284 0.944568
vt 0.097284 0.805433
vt 0.027716 0.774183
vt 0.027716 0.774183
vt 0.097284 0.774183
vt 0.097284 0.774183
vt 0.027716 0.805433
vt 0.027716 0.836683
vt 0.027716 0.836683
vt 0.097284 0.975818
vt 0.097284 0.975818
vn 0.0000 0.0000 1.0000
vn -1.0000 0.0000 0.0000
vn 0.0000 -1.0000 -0.0000
vn -0.0000 0.0000 -1.0000
vn 0.7071 0.7071 -0.0000
usemtl prototype_texture
s 1
f 6/1/1 5/2/1 4/3/1
f 2/4/2 1/5/2 4/3/2 5/2/2
f 3/6/3 6/7/3 4/8/3 1/9/3
f 2/4/4 3/10/4 1/5/4
f 6/11/5 3/12/5 2/13/5 5/14/5
