# Blender v3.4.1 OBJ File: 'Prototype_Bits_Export.blend'
# www.blender.org
mtllib Primitive_Slope_Half_OuterCorner.mtl
o Primitive_Slope_Half_OuterCorner_Cube.16432
v -2.000000 0.000000 2.000000
v -2.000000 2.000000 2.000000
v -2.000000 0.000000 -2.000000
v -2.000000 4.000000 -2.000000
v 2.000000 0.000000 2.000000
v 2.000000 2.000000 2.000000
v 2.000000 0.000000 -2.000000
v 2.000000 2.000000 -2.000000
v 0.000000 4.000000 -2.000000
v -2.000000 4.000000 0.000000
v 0.000000 4.000000 0.000000
vt 0.027716 0.944568
vt 0.027716 0.944568
vt 0.027716 0.805433
vt 0.062500 0.944568
vt 0.097284 0.875001
vt 0.097284 0.875001
vt 0.062500 0.944568
vt 0.097284 0.805433
vt 0.027716 0.975818
vt 0.062500 0.975818
vt 0.062500 0.975818
vt 0.027716 0.975818
vt 0.027716 0.875001
vt 0.027716 0.805433
vt 0.097284 0.805433
vt 0.027716 0.774183
vt 0.097284 0.774183
vt 0.097284 0.774183
vt 0.027716 0.774183
vt 0.062500 0.913318
vn -1.0000 0.0000 0.0000
vn 0.7071 0.7071 0.0000
vn 0.0000 0.0000 -1.0000
vn 0.0000 1.0000 0.0000
vn 0.0000 0.0000 1.0000
vn 0.0000 -1.0000 0.0000
vn 0.0000 0.7071 0.7071
vn 1.0000 0.0000 0.0000
usemtl prototype_texture
s 1
f 10/1/1 4/2/1 3/3/1
f 11/4/2 6/5/2 8/6/2 9/7/2
f 8/6/3 7/8/3 3/3/3
f 4/2/3 9/7/3 3/3/3
f 10/9/4 11/10/4 9/11/4 4/12/4
f 9/7/3 8/6/3 3/3/3
f 2/13/5 1/14/5 5/15/5 6/5/5
f 3/16/6 7/17/6 5/18/6 1/19/6
f 2/13/7 6/5/7 11/20/7 10/1/7
f 2/13/1 10/1/1 3/3/1
f 1/14/1 2/13/1 3/3/1
f 8/6/8 6/5/8 5/15/8 7/8/8
