# Blender v3.4.1 OBJ File: 'Prototype_Bits_Export.blend'
# www.blender.org
mtllib Primitive_Slope.mtl
o Primitive_Slope_Cube.16424
v 2.000000 0.000000 2.000000
v -2.000000 4.000000 2.000000
v -2.000000 0.000000 2.000000
v 2.000000 0.000000 -2.000000
v -2.000000 4.000000 -2.000000
v -2.000000 0.000000 -2.000000
vt 0.027716 0.944568
vt 0.097284 0.805433
vt 0.027716 0.805433
vt 0.027716 0.944568
vt 0.097284 0.805433
vt 0.027716 0.774183
vt 0.027716 0.774183
vt 0.097284 0.774183
vt 0.097284 0.774183
vt 0.027716 0.805433
vn -0.0000 0.0000 -1.0000
vn 0.7071 0.7071 -0.0000
vn 0.0000 -1.0000 -0.0000
vn 0.0000 0.0000 1.0000
vn -1.0000 0.0000 0.0000
usemtl prototype_texture
s 1
f 5/1/1 4/2/1 6/3/1
f 2/4/2 1/5/2 4/2/2 5/1/2
f 3/6/3 6/7/3 4/8/3 1/9/3
f 2/4/4 3/10/4 1/5/4
f 2/4/5 5/1/5 6/3/5 3/10/5
