# Blender v3.4.1 OBJ File: 'Prototype_Bits_Export.blend'
# www.blender.org
mtllib Primitive_Slope_Half.mtl
o Primitive_Slope_Half_Cube.16431
v 2.000000 0.000000 2.000000
v 2.000000 2.000000 2.000000
v -2.000000 0.000000 2.000000
v -2.000000 4.000000 2.000000
v 2.000000 0.000000 -2.000000
v 2.000000 2.000000 -2.000000
v -2.000000 0.000000 -2.000000
v -2.000000 4.000000 -2.000000
v 0.000000 4.000000 2.000000
v -0.000000 4.000000 -2.000000
vt 0.097284 0.875001
vt 0.097284 0.805433
vt 0.027716 0.805433
vt 0.097284 0.875001
vt 0.062500 0.944568
vt 0.062500 0.944568
vt 0.097284 0.805433
vt 0.027716 0.944568
vt 0.027716 0.805433
vt 0.027716 0.774183
vt 0.027716 0.774183
vt 0.097284 0.774183
vt 0.097284 0.774183
vt 0.062500 0.975818
vt 0.062500 0.975818
vt 0.027716 0.975818
vt 0.027716 0.975818
vt 0.027716 0.944568
vn 0.0000 -0.0000 -1.0000
vn 0.7071 0.7071 0.0000
vn 1.0000 0.0000 -0.0000
vn 0.0000 -0.0000 1.0000
vn 0.0000 -1.0000 -0.0000
vn 0.0000 1.0000 -0.0000
vn -1.0000 0.0000 0.0000
usemtl prototype_texture
s 1
f 6/1/1 5/2/1 7/3/1
f 2/4/2 6/1/2 10/5/2 9/6/2
f 2/4/3 1/7/3 5/2/3 6/1/3
f 9/6/4 4/8/4 3/9/4
f 3/10/5 7/11/5 5/12/5 1/13/5
f 9/14/6 10/15/6 8/16/6 4/17/6
f 10/5/1 6/1/1 7/3/1
f 1/7/4 2/4/4 3/9/4
f 2/4/4 9/6/4 3/9/4
f 8/18/1 10/5/1 7/3/1
f 4/8/7 8/18/7 7/3/7 3/9/7
