# Blender v3.4.1 OBJ File: 'Prototype_Bits_Export.blend'
# www.blender.org
mtllib Primitive_Slope_OuterCorner.mtl
o Primitive_Slope_OuterCorner_Cube.16423
v 2.000000 0.000000 2.000000
v -2.000000 4.000000 -2.000000
v -2.000000 0.000000 2.000000
v 2.000000 0.000000 -2.000000
v -2.000000 0.000000 -2.000000
vt 0.027716 0.944568
vt 0.097284 0.805433
vt 0.097284 0.805433
vt 0.027716 0.805433
vt 0.027716 0.913318
vt 0.027716 0.805433
vt 0.027716 0.774183
vt 0.027716 0.774183
vt 0.097284 0.774183
vt 0.097284 0.774183
vn 0.7071 0.7071 0.0000
vn -0.0000 0.0000 -1.0000
vn 0.0000 0.7071 0.7071
vn 0.0000 -1.0000 -0.0000
vn -1.0000 0.0000 0.0000
usemtl prototype_texture
s 1
f 2/1/1 1/2/1 4/3/1
f 2/1/2 4/3/2 5/4/2
f 2/5/3 3/6/3 1/2/3
f 3/7/4 5/8/4 4/9/4 1/10/4
f 2/1/5 5/4/5 3/6/5
