# Blender v3.4.1 OBJ File: 'Prototype_Bits_Export.blend'
# www.blender.org
mtllib target_wall_small.mtl
o target_wall_small_Cube.16111
v -0.426088 -0.564285 0.204731
v -0.564833 0.426043 0.062929
v -0.000296 0.000252 0.062929
v -0.495460 -0.069121 0.093905
v 0.564240 -0.425540 0.062929
v 0.382916 0.508335 0.330454
v -0.069669 0.495416 0.093905
v 0.069076 -0.494912 0.093905
v 0.494868 0.069624 0.093905
v -0.530147 0.178461 0.078144
v -0.034983 0.247834 0.078144
v 0.460181 0.317206 0.145171
v -0.460774 -0.316703 0.145171
v 0.034390 -0.247330 0.078144
v 0.529554 -0.177958 0.078144
v 0.247286 0.034938 0.078144
v 0.177913 0.530102 0.145171
v 0.316658 -0.460226 0.078144
v 0.212599 0.282520 0.093905
v 0.281972 -0.212644 0.062929
v -0.247878 -0.034435 0.078144
v -0.178506 -0.529599 0.145171
v -0.317251 0.460729 0.078144
v -0.282565 0.213147 0.062929
v -0.213192 -0.282017 0.093905
v 0.259098 0.037334 0.020588
v 0.000329 0.001080 0.004686
v -0.553465 0.187342 0.020588
v -0.589719 0.446112 0.004686
v -0.035925 0.259850 0.020588
v -0.258441 -0.035174 0.020588
v -0.517211 -0.071427 0.037061
v 0.481614 0.332357 0.090644
v 0.517868 0.073588 0.037061
v -0.480957 -0.330197 0.090644
v 0.036582 -0.257690 0.020588
v 0.072836 -0.516459 0.037061
v 0.186591 0.554873 0.090644
v -0.072179 0.518620 0.037061
v -0.185934 -0.552713 0.090644
v 0.554122 -0.185182 0.020588
v 0.590376 -0.443952 0.004686
v 0.331606 -0.480205 0.020588
v -0.330949 0.482366 0.020588
v 0.400857 0.532123 0.284300
v -0.294695 0.223596 0.004686
v 0.222844 0.296104 0.037061
v -0.444703 -0.588967 0.152896
v -0.222187 -0.293943 0.037061
v 0.295352 -0.221436 0.004686
vt 0.172812 0.327187
vt 0.172812 0.375000
vt 0.125000 0.375000
vt 0.172812 0.422812
vt 0.172812 0.470625
vt 0.125000 0.470625
vt 0.077188 0.422812
vt 0.077188 0.470625
vt 0.029375 0.470625
vt 0.077188 0.375000
vt 0.029375 0.422812
vt 0.077188 0.327187
vt 0.029375 0.375000
vt 0.125000 0.422812
vt 0.077188 0.279375
vt 0.029375 0.327187
vt 0.172812 0.279375
vt 0.125000 0.327187
vt 0.220625 0.279375
vt 0.220625 0.327187
vt 0.220625 0.375000
vt 0.220625 0.422812
vt 0.220625 0.470625
vt 0.125000 0.279375
vt 0.029375 0.279375
vt 0.172812 0.327187
vt 0.125000 0.375000
vt 0.172812 0.375000
vt 0.172812 0.422812
vt 0.125000 0.470625
vt 0.172812 0.470625
vt 0.077188 0.422812
vt 0.029375 0.470625
vt 0.077188 0.470625
vt 0.077188 0.375000
vt 0.029375 0.422812
vt 0.077188 0.327187
vt 0.029375 0.375000
vt 0.125000 0.422812
vt 0.077188 0.279375
vt 0.029375 0.327187
vt 0.172812 0.279375
vt 0.125000 0.327187
vt 0.220625 0.279375
vt 0.220625 0.327187
vt 0.220625 0.375000
vt 0.220625 0.422812
vt 0.220625 0.470625
vt 0.125000 0.279375
vt 0.029375 0.279375
vt 0.077188 0.488886
vt 0.077188 0.488886
vt 0.125000 0.488886
vt 0.125000 0.488886
vt 0.220625 0.488886
vt 0.220625 0.488886
vt 0.172812 0.488886
vt 0.172812 0.488886
vt 0.029375 0.488886
vt 0.029375 0.488886
vt 0.029375 0.488886
vt 0.029375 0.488886
vt 0.220625 0.488886
vt 0.220625 0.488886
vt 0.220625 0.488886
vt 0.220625 0.488886
vt 0.172812 0.488886
vt 0.172812 0.488886
vt 0.029375 0.488886
vt 0.029375 0.488886
vt 0.029375 0.488886
vt 0.029375 0.488886
vt 0.125000 0.488886
vt 0.125000 0.488886
vt 0.077188 0.488886
vt 0.077188 0.488886
vt 0.220625 0.488886
vt 0.220625 0.488886
vt 0.220625 0.488886
vt 0.220625 0.488886
vt 0.029375 0.488886
vt 0.029375 0.488886
vn 0.0000 -0.0000 1.0000
vn -0.0526 -0.0697 0.9962
vn -0.1111 -0.1473 0.9828
vn -0.2809 -0.3724 0.8845
vn -0.0829 -0.1099 0.9905
vn -0.0521 -0.0691 0.9963
vn 0.0526 0.0697 0.9962
vn 0.0521 0.0691 0.9963
vn 0.1111 0.1473 0.9828
vn 0.0829 0.1099 0.9905
vn 0.1741 0.2308 0.9573
vn -0.5226 -0.6929 0.4968
vn 0.1923 0.2549 0.9477
vn 0.0000 0.0000 -1.0000
vn 0.0526 0.0697 -0.9962
vn 0.1111 0.1473 -0.9828
vn 0.0829 0.1099 -0.9905
vn 0.2809 0.3724 -0.8845
vn 0.0521 0.0691 -0.9963
vn -0.0526 -0.0697 -0.9962
vn -0.0521 -0.0691 -0.9963
vn -0.1111 -0.1473 -0.9828
vn -0.0829 -0.1099 -0.9905
vn -0.1741 -0.2308 -0.9573
vn 0.5226 0.6929 -0.4968
vn -0.1923 -0.2549 -0.9477
vn 0.2077 -0.9105 0.3577
vn 0.2075 -0.9105 0.3577
vn 0.1747 -0.9168 0.3591
vn 0.1791 -0.9160 0.3591
vn -0.2389 0.8978 0.3699
vn -0.2182 0.9011 0.3746
vn -0.2244 0.9002 0.3732
vn -0.9271 -0.1078 0.3590
vn -0.9271 -0.1075 0.3590
vn -0.9271 -0.1074 0.3590
vn 0.9193 0.1055 0.3792
vn 0.9193 0.1051 0.3792
vn 0.9193 0.1050 0.3792
vn 0.1514 -0.9210 0.3590
vn 0.1515 -0.9209 0.3590
vn -0.9325 -0.0505 0.3577
vn -0.9325 -0.0507 0.3577
vn -0.9332 -0.0450 0.3565
vn 0.2132 -0.9096 0.3565
vn 0.1511 -0.9210 0.3590
vn -0.1802 0.9079 0.3786
vn -0.1765 0.9085 0.3787
vn -0.1515 0.9128 0.3792
vn -0.1517 0.9128 0.3792
vn -0.1512 0.9129 0.3792
vn 0.9224 0.0762 0.3786
vn 0.9221 0.0800 0.3787
vn 0.9264 0.0378 0.3746
vn 0.9272 0.0316 0.3732
vn -0.9295 -0.0840 0.3591
vn -0.9299 -0.0796 0.3591
vn 0.9289 0.0170 0.3699
usemtl prototype_texture
s 1
f 20/1/1 16/2/2 3/3/1
f 19/4/3 17/5/4 7/6/5
f 24/7/1 23/8/6 2/9/1
f 21/10/7 24/7/1 10/11/8
f 25/12/9 21/10/7 4/13/10
f 16/2/2 19/4/3 11/14/2
f 22/15/11 25/12/9 13/16/11
f 18/17/8 20/1/1 14/18/7
f 5/19/1 15/20/6 20/1/1
f 9/21/5 12/22/4 19/4/3
f 12/22/4 6/23/12 17/5/4
f 15/20/6 9/21/5 16/2/2
f 8/24/10 14/18/7 25/12/9
f 14/18/7 3/3/1 21/10/7
f 3/3/1 11/14/2 24/7/1
f 11/14/2 7/6/5 23/8/6
f 19/4/3 12/22/4 17/5/4
f 10/11/8 24/7/1 2/9/1
f 21/10/7 3/3/1 24/7/1
f 14/18/7 20/1/1 3/3/1
f 18/17/8 5/19/1 20/1/1
f 4/13/10 21/10/7 10/11/8
f 25/12/9 14/18/7 21/10/7
f 8/24/10 18/17/8 14/18/7
f 11/14/2 19/4/3 7/6/5
f 16/2/2 9/21/5 19/4/3
f 24/7/1 11/14/2 23/8/6
f 3/3/1 16/2/2 11/14/2
f 20/1/1 15/20/6 16/2/2
f 13/16/11 25/12/9 4/13/10
f 22/15/11 8/24/10 25/12/9
f 1/25/13 22/15/11 13/16/11
f 50/26/14 27/27/14 26/28/15
f 47/29/16 39/30/17 38/31/18
f 46/32/14 29/33/14 44/34/19
f 31/35/20 28/36/21 46/32/14
f 49/37/22 32/38/23 31/35/20
f 26/28/15 30/39/15 47/29/16
f 40/40/24 35/41/24 49/37/22
f 43/42/21 36/43/20 50/26/14
f 42/44/14 50/26/14 41/45/19
f 34/46/17 47/29/16 33/47/18
f 33/47/18 38/31/18 45/48/25
f 41/45/19 26/28/15 34/46/17
f 37/49/23 49/37/22 36/43/20
f 36/43/20 31/35/20 27/27/14
f 27/27/14 46/32/14 30/39/15
f 30/39/15 44/34/19 39/30/17
f 47/29/16 38/31/18 33/47/18
f 28/36/21 29/33/14 46/32/14
f 31/35/20 46/32/14 27/27/14
f 36/43/20 27/27/14 50/26/14
f 43/42/21 50/26/14 42/44/14
f 32/38/23 28/36/21 31/35/20
f 49/37/22 31/35/20 36/43/20
f 37/49/23 36/43/20 43/42/21
f 30/39/15 39/30/17 47/29/16
f 26/28/15 47/29/16 34/46/17
f 46/32/14 44/34/19 30/39/15
f 27/27/14 30/39/15 26/28/15
f 50/26/14 26/28/15 41/45/19
f 35/41/24 32/38/23 49/37/22
f 40/40/24 49/37/22 37/49/23
f 48/50/26 35/41/24 40/40/24
f 22/51/27 40/52/28 37/53/29 8/54/30
f 6/55/31 45/56/31 38/57/32 17/58/33
f 2/59/34 29/60/34 28/61/35 10/62/36
f 5/63/37 42/64/37 41/65/38 15/66/39
f 8/54/30 37/53/29 43/67/40 18/68/41
f 13/69/42 35/70/43 48/71/44 1/72/44
f 1/72/45 48/71/45 40/52/28 22/51/27
f 18/68/41 43/67/40 42/64/46 5/63/46
f 7/73/47 39/74/48 44/75/49 23/76/50
f 23/76/50 44/75/49 29/60/51 2/59/51
f 9/77/52 34/78/53 33/79/54 12/80/55
f 15/66/39 41/65/38 34/78/53 9/77/52
f 10/62/36 28/61/35 32/81/56 4/82/57
f 4/82/57 32/81/56 35/70/43 13/69/42
f 12/80/55 33/79/54 45/56/58 6/55/58
f 17/58/33 38/57/32 39/74/48 7/73/47
