# Blender v3.4.1 OBJ File: 'Prototype_Bits_Export.blend'
# www.blender.org
mtllib target_pieces_F.mtl
o target_pieces_F_Cylinder.274
v 0.000000 0.469509 0.000000
v -0.234755 0.406607 0.000000
v -0.000000 0.000000 0.000000
v -0.000006 0.298752 0.200000
v -0.149382 0.258727 0.200000
v -0.000000 0.133566 0.200000
v -0.066783 0.115672 0.200000
v 0.000000 -0.000000 0.200000
v 0.000000 0.500000 0.161184
v 0.000000 0.456103 0.200000
v -0.228052 0.394997 0.200000
v -0.250000 0.433013 0.161184
vt 0.159695 0.902708
vt 0.159695 0.902708
vt 0.174114 0.912028
vt 0.174114 0.912028
vt 0.924114 0.925623
vt 0.910442 0.915181
vt 0.914512 0.895098
vt 0.924114 0.902434
vt 0.159695 0.957270
vt 0.174114 0.966591
vt 0.174114 0.897019
vt 0.174114 0.943363
vt 0.164512 0.937154
vt 0.170263 0.913114
vt 0.174114 0.915604
vt 0.924114 0.869637
vt 0.920263 0.866695
vt 0.924114 0.847679
vt 0.924114 0.988967
vt 0.909695 0.977955
vt 0.910069 0.978240
vt 0.923741 0.988682
vt 0.303227 0.963335
vt 0.302718 0.965660
vt 0.303227 0.963335
vt 0.302089 0.968536
vt 0.301489 0.971275
vt 0.301322 0.972039
vt 0.301438 0.971508
vt 0.303227 0.972773
vt 0.303227 0.973386
vt 0.303227 0.972503
vt 0.303227 0.969340
vt 0.303227 0.966020
vn -0.2546 0.9502 -0.1797
vn -0.0000 0.0000 1.0000
vn -0.0000 0.0000 -1.0000
vn -0.1748 0.6522 0.7376
vn -0.8660 -0.5000 -0.0000
vn -0.8660 -0.5000 -0.0001
vn 1.0000 -0.0000 0.0000
vn 1.0000 -0.0000 0.0001
usemtl prototype_texture
s off
f 2/1/1 12/2/1 9/3/1 1/4/1
f 10/5/2 11/6/2 5/7/2 4/8/2
f 2/9/3 1/10/3 3/11/3
f 4/12/2 5/13/2 7/14/2 6/15/2
f 6/16/2 7/17/2 8/18/2
f 9/19/4 12/20/4 11/21/4 10/22/4
f 8/23/5 7/24/5 3/25/5
f 7/24/5 5/26/5 3/25/5
f 5/26/6 11/27/6 3/25/6
f 11/27/5 12/28/5 3/25/5
f 12/28/5 2/29/5 3/25/5
f 1/30/7 9/31/7 3/25/7
f 9/31/7 10/32/7 3/25/7
f 10/32/8 4/33/8 3/25/8
f 4/33/7 6/34/7 3/25/7
f 6/34/7 8/23/7 3/25/7
