# Blender v3.4.1 OBJ File: 'Prototype_Bits_Export.blend'
# www.blender.org
mtllib target_pieces_C.mtl
o target_pieces_C_Cylinder.267
v -0.000000 -0.500000 0.161184
v -0.000000 -0.469509 0.000000
v 0.250000 -0.433013 0.161184
v -0.000000 -0.456103 0.200000
v -0.000006 -0.298752 0.200000
v 0.228052 -0.394997 0.200000
v 0.149370 -0.258727 0.200000
v 0.066783 -0.115672 0.200000
v 0.000000 -0.000000 0.200000
v -0.000000 -0.133566 0.200000
v 0.234755 -0.406607 0.000000
v -0.000000 0.000000 0.000000
vt 0.188530 0.782205
vt 0.188530 0.782205
vt 0.174114 0.772884
vt 0.174114 0.772884
vt 0.924114 0.824568
vt 0.938530 0.835581
vt 0.938157 0.835295
vt 0.924487 0.824853
vt 0.924114 0.769734
vt 0.937784 0.780177
vt 0.933716 0.800260
vt 0.924114 0.792924
vt 0.174114 0.850675
vt 0.183716 0.856884
vt 0.177965 0.880924
vt 0.174114 0.878434
vt 0.924114 0.825721
vt 0.927965 0.828662
vt 0.924114 0.847679
vt 0.188530 0.836767
vt 0.174114 0.827446
vt 0.174114 0.897019
vt 0.312588 0.915191
vt 0.312755 0.914427
vt 0.310850 0.923131
vt 0.312639 0.914958
vt 0.310850 0.923131
vt 0.311359 0.920806
vt 0.311988 0.917930
vt 0.310850 0.913693
vt 0.310850 0.913080
vt 0.310850 0.913963
vt 0.310850 0.917126
vt 0.310850 0.920446
vn 0.2546 -0.9502 -0.1797
vn 0.1748 -0.6522 0.7376
vn -0.0000 0.0000 1.0000
vn -0.0000 0.0000 -1.0000
vn 0.8660 0.5000 -0.0000
vn 0.8660 0.5000 0.0001
vn -1.0000 0.0000 -0.0000
vn -1.0000 -0.0000 -0.0001
usemtl prototype_texture
s off
f 11/1/1 3/2/1 1/3/1 2/4/1
f 1/5/2 3/6/2 6/7/2 4/8/2
f 4/9/3 6/10/3 7/11/3 5/12/3
f 5/13/3 7/14/3 8/15/3 10/16/3
f 10/17/3 8/18/3 9/19/3
f 11/20/4 2/21/4 12/22/4
f 6/23/5 3/24/5 12/25/5
f 3/24/5 11/26/5 12/25/5
f 9/27/5 8/28/5 12/25/5
f 8/28/5 7/29/5 12/25/5
f 7/29/6 6/23/6 12/25/6
f 2/30/7 1/31/7 12/25/7
f 1/31/7 4/32/7 12/25/7
f 4/32/8 5/33/8 12/25/8
f 5/33/7 10/34/7 12/25/7
f 10/34/7 9/27/7 12/25/7
