# Blender v3.4.1 OBJ File: 'Prototype_Bits_Export.blend'
# www.blender.org
mtllib Wall.mtl
o Wall_Cube.16094
v -1.900000 0.000000 0.250000
v -2.000000 0.100000 0.136724
v -2.000000 3.900000 0.136724
v -1.900000 4.000000 0.250000
v 2.000000 0.100000 0.136724
v 1.900000 0.000000 0.250000
v 1.900000 4.000000 0.250000
v 2.000000 3.900000 0.136724
v 1.899999 0.000000 -0.250000
v 2.000000 0.100000 -0.136723
v 2.000000 3.900000 -0.136723
v 1.899999 4.000000 -0.250000
v -2.000000 0.100000 -0.136724
v -1.900000 0.000000 -0.250000
v -1.900000 4.000000 -0.250000
v -2.000000 3.900000 -0.136724
v -1.900000 0.800000 0.150000
v -2.000000 0.800000 0.035131
v -2.000000 0.900000 -0.136193
v -1.900000 0.900000 -0.250000
v 2.000000 0.900000 -0.136192
v 1.899999 0.900000 -0.250000
v 2.000000 0.900000 0.136193
v 1.900000 0.900000 0.250000
v -2.000000 0.900000 0.136193
v -1.900000 0.900000 0.250000
v 1.900000 0.800000 0.150000
v 2.000000 0.800000 0.035131
v 1.899999 0.800000 -0.150000
v 2.000000 0.800000 -0.035130
v 2.000000 0.700000 -0.136192
v 1.899999 0.700000 -0.250000
v -1.900000 0.700000 0.250000
v -2.000000 0.700000 0.136193
v -2.000000 0.700000 -0.136193
v -1.900000 0.700000 -0.250000
v 2.000000 0.700000 0.136193
v 1.900000 0.700000 0.250000
v -2.000000 0.800000 -0.035131
v -1.900000 0.800000 -0.150000
v 0.103085 2.269418 0.280000
v 0.259505 2.144788 0.280000
v 0.227716 2.425838 0.280000
v 0.384136 2.301207 0.280000
v 0.013653 2.111204 0.280000
v 0.064799 1.993140 0.280000
v 0.131717 2.162351 0.280000
v 0.182864 2.044286 0.280000
v 1.148775 3.013455 0.280000
v 1.157596 3.213260 0.280000
v 0.948969 3.022276 0.280000
v 0.957791 3.222082 0.280000
v 1.201996 2.787889 0.280000
v 1.321941 2.834456 0.280000
v 1.155429 2.907834 0.280000
v 1.275373 2.954401 0.280000
v -0.184775 2.434509 0.280000
v -0.261550 2.537760 0.280000
v -0.288026 2.357734 0.280000
v -0.364801 2.460985 0.280000
v 1.046088 0.232507 0.279999
v 1.165624 0.280112 0.279999
v 0.998482 0.352043 0.279999
v 1.118019 0.399648 0.279999
v -1.147401 0.263884 0.279999
v -1.035056 0.201164 0.279999
v -1.084680 0.376229 0.279999
v -0.972336 0.313509 0.279999
v -0.961353 0.447737 0.280000
v -0.847919 0.262221 0.280000
v -0.775836 0.561172 0.280000
v -0.662402 0.375655 0.280000
v -0.838178 1.409230 0.280000
v -0.899396 1.594325 0.280000
v -1.023275 1.348012 0.280000
v -1.084492 1.533108 0.280000
v -1.398004 3.287889 0.280000
v -1.278060 3.334456 0.280000
v -1.444571 3.407834 0.280000
v -1.324627 3.454401 0.280000
vt 0.280936 0.797767
vt 0.294478 0.797767
vt 0.294478 0.811309
vt 0.280936 0.811309
vt 0.280936 0.797767
vt 0.294478 0.797767
vt 0.294478 0.811309
vt 0.280936 0.811309
vt 0.280936 0.797767
vt 0.294478 0.797767
vt 0.294478 0.811309
vt 0.280936 0.811309
vt 0.280936 0.797767
vt 0.294478 0.797767
vt 0.294478 0.811309
vt 0.280936 0.811309
vt 0.280936 0.797767
vt 0.294478 0.797767
vt 0.294478 0.811309
vt 0.280936 0.811309
vt 0.155936 0.660000
vt 0.169478 0.660000
vt 0.169478 0.680643
vt 0.155936 0.680643
vt 0.155936 0.660000
vt 0.169478 0.660000
vt 0.169478 0.680643
vt 0.155936 0.680643
vt 0.155936 0.660000
vt 0.169478 0.660000
vt 0.169478 0.680643
vt 0.155936 0.680643
vt 0.280936 0.797767
vt 0.294478 0.797767
vt 0.294478 0.811309
vt 0.280936 0.811309
vt 0.280936 0.797767
vt 0.294478 0.797767
vt 0.294478 0.811309
vt 0.280936 0.811309
vt 0.270670 0.854974
vt 0.270670 0.798138
vt 0.270670 0.798138
vt 0.270670 0.854974
vt 0.329387 0.872629
vt 0.329387 0.813763
vt 0.272175 0.813763
vt 0.272175 0.872629
vt 0.272175 0.872629
vt 0.272175 0.813763
vt 0.329387 0.813763
vt 0.329387 0.872629
vt 0.147175 0.630557
vt 0.147175 0.602709
vt 0.204387 0.602709
vt 0.204387 0.630557
vt 0.204387 0.555072
vt 0.205892 0.558166
vt 0.205892 0.558166
vt 0.204387 0.555072
vt 0.145670 0.609833
vt 0.145670 0.606739
vt 0.145670 0.606739
vt 0.145670 0.609833
vt 0.204387 0.681288
vt 0.204387 0.678194
vt 0.147175 0.678194
vt 0.147175 0.681288
vt 0.204387 0.630557
vt 0.204387 0.602709
vt 0.147175 0.602709
vt 0.147175 0.630557
vt 0.270670 0.870599
vt 0.270670 0.870599
vt 0.272175 0.782513
vt 0.272175 0.780483
vt 0.329387 0.780483
vt 0.329387 0.782513
vt 0.329387 0.782513
vt 0.329387 0.780483
vt 0.272175 0.780483
vt 0.272175 0.782513
vt 0.205892 0.581985
vt 0.205892 0.606739
vt 0.205892 0.606739
vt 0.205892 0.581985
vt 0.330892 0.796108
vt 0.330892 0.798138
vt 0.330892 0.798138
vt 0.330892 0.796108
vt 0.270670 0.796108
vt 0.270670 0.796108
vt 0.147175 0.681288
vt 0.147175 0.678194
vt 0.204387 0.678194
vt 0.204387 0.681288
vt 0.330892 0.854974
vt 0.330892 0.854974
vt 0.205892 0.609833
vt 0.205892 0.609833
vt 0.204387 0.606739
vt 0.204387 0.578890
vt 0.147175 0.578890
vt 0.147175 0.606739
vt 0.145670 0.581985
vt 0.147175 0.606739
vt 0.147175 0.578890
vt 0.145670 0.581985
vt 0.147175 0.654376
vt 0.147175 0.657470
vt 0.145670 0.657470
vt 0.145670 0.654376
vt 0.272175 0.798138
vt 0.272175 0.857004
vt 0.329387 0.766888
vt 0.329387 0.764858
vt 0.330892 0.764858
vt 0.330892 0.766888
vt 0.204387 0.654376
vt 0.204387 0.657470
vt 0.205892 0.657470
vt 0.205892 0.654376
vt 0.204387 0.578890
vt 0.204387 0.606739
vt 0.329387 0.798138
vt 0.329387 0.857004
vt 0.147175 0.657470
vt 0.147175 0.654376
vt 0.145670 0.654376
vt 0.145670 0.657470
vt 0.204387 0.657470
vt 0.204387 0.654376
vt 0.205892 0.654376
vt 0.205892 0.657470
vt 0.272175 0.766888
vt 0.272175 0.764858
vt 0.270670 0.764858
vt 0.270670 0.766888
vt 0.272175 0.857004
vt 0.272175 0.798138
vt 0.329387 0.764858
vt 0.329387 0.766888
vt 0.330892 0.766888
vt 0.330892 0.764858
vt 0.329387 0.857004
vt 0.329387 0.798138
vt 0.272175 0.764858
vt 0.272175 0.766888
vt 0.270670 0.766888
vt 0.270670 0.764858
vt 0.145670 0.558166
vt 0.147175 0.555072
vt 0.147175 0.555072
vt 0.145670 0.558166
vt 0.330892 0.870599
vt 0.330892 0.870599
vt 0.329387 0.903879
vt 0.272175 0.903879
vt 0.272175 0.903879
vt 0.329387 0.903879
vn -0.0000 -0.0000 1.0000
vn -1.0000 0.0000 0.0000
vn 0.0000 0.0000 -1.0000
vn 0.7071 -0.7071 -0.0000
vn 0.0000 0.7071 -0.7071
vn -0.7071 0.7071 0.0000
vn 0.0000 -0.7071 0.7071
vn 0.0000 -0.7071 -0.7071
vn 1.0000 0.0000 -0.0000
vn 0.0000 0.7071 0.7071
vn 0.7319 0.2254 0.6431
vn 0.7504 0.0003 0.6610
vn 0.7090 0.3318 0.6222
vn -0.7504 0.0003 0.6610
vn -0.7319 0.2254 0.6431
vn -0.7090 0.3318 0.6222
vn -0.7319 0.2254 -0.6431
vn -0.7504 0.0003 -0.6610
vn -0.7090 0.3318 -0.6222
vn -0.6277 0.5519 0.5490
vn -0.7319 -0.2252 0.6431
vn -0.7504 -0.0001 0.6610
vn -0.7091 -0.3317 0.6222
vn 0.7319 -0.2252 0.6431
vn 0.6277 -0.5519 0.5490
vn 0.7091 -0.3317 0.6222
vn 0.7319 0.2254 -0.6431
vn 0.6277 0.5519 -0.5490
vn 0.7090 0.3318 -0.6222
vn 0.7504 0.0003 -0.6610
vn 0.7319 -0.2252 -0.6431
vn 0.7504 -0.0001 -0.6610
vn 0.7091 -0.3317 -0.6222
vn -0.6277 0.5519 -0.5490
vn 0.6277 0.5519 0.5490
vn -0.7319 -0.2252 -0.6431
vn -0.6277 -0.5519 -0.5490
vn -0.7091 -0.3317 -0.6222
vn -0.7504 -0.0001 -0.6610
vn 0.6277 -0.5519 -0.5490
vn 0.7504 -0.0001 0.6610
vn -0.6277 -0.5519 0.5490
vn -0.7071 -0.7071 0.0000
vn 0.0000 -1.0000 0.0000
vn 0.7071 0.7071 -0.0000
vn 0.0000 1.0000 -0.0000
usemtl prototype_texture
s off
f 44/1/1 43/2/1 41/3/1 42/4/1
f 48/5/1 47/6/1 45/7/1 46/8/1
f 52/9/1 51/10/1 49/11/1 50/12/1
f 56/13/1 55/14/1 53/15/1 54/16/1
f 60/17/1 59/18/1 57/19/1 58/20/1
f 64/21/1 63/22/1 61/23/1 62/24/1
f 68/25/1 67/26/1 65/27/1 66/28/1
f 72/29/1 71/30/1 69/31/1 70/32/1
f 76/33/1 75/34/1 73/35/1 74/36/1
f 80/37/1 79/38/1 77/39/1 78/40/1
s 1
f 16/41/2 19/42/2 25/43/2 3/44/2
f 12/45/3 22/46/3 20/47/3 15/48/3
f 4/49/1 26/50/1 24/51/1 7/52/1
f 33/53/1 1/54/1 6/55/1 38/56/1
f 9/57/4 10/58/4 5/59/4 6/60/4
f 39/61/2 35/62/2 34/63/2 18/64/2
f 29/65/5 32/66/5 36/67/5 40/68/5
f 32/69/3 9/70/3 14/71/3 36/72/3
f 15/48/6 16/73/6 3/74/6 4/49/6
f 26/75/7 17/76/7 27/77/7 24/78/7
f 22/79/8 29/80/8 40/81/8 20/82/8
f 10/83/9 31/84/9 37/85/9 5/86/9
f 30/87/9 21/88/9 23/89/9 28/90/9
f 19/42/2 39/91/2 18/92/2 25/43/2
f 17/93/10 33/94/10 38/95/10 27/96/10
f 21/88/9 11/97/9 8/98/9 23/89/9
f 31/84/9 30/99/9 28/100/9 37/85/9
f 38/101/11 6/102/12 5/86/12 37/85/13
f 1/103/14 33/104/15 34/63/16 2/105/14
f 36/106/17 14/107/18 13/108/18 35/62/19
f 33/109/15 17/110/20 18/111/20 34/112/16
f 26/113/21 4/114/22 3/44/22 25/43/23
f 24/115/24 27/116/25 28/117/25 23/118/26
f 32/119/27 29/120/28 30/121/28 31/122/29
f 9/123/30 32/124/27 31/84/29 10/83/30
f 22/125/31 12/126/32 11/97/32 21/88/33
f 40/127/34 36/128/17 35/129/19 39/130/34
f 27/131/35 38/132/11 37/133/13 28/134/35
f 20/135/36 40/136/37 39/137/37 19/138/38
f 15/139/39 20/140/36 19/42/38 16/41/39
f 29/141/40 22/142/31 21/143/33 30/144/40
f 7/145/41 24/146/24 23/89/26 8/98/41
f 17/147/42 26/148/21 25/149/23 18/150/42
f 35/62/2 13/108/2 2/105/2 34/63/2
f 13/151/43 14/152/43 1/153/43 2/154/43
f 14/152/44 9/57/44 6/60/44 1/153/44
f 11/155/45 12/45/45 7/52/45 8/156/45
f 12/157/46 15/158/46 4/159/46 7/160/46
