# Blender v3.4.1 OBJ File: 'Prototype_Bits_Export.blend'
# www.blender.org
mtllib Box_B.mtl
o Box_B_Cube.004
v 0.152089 0.155343 0.206154
v 0.152089 0.066596 0.206154
v 0.281084 0.155343 0.206154
v 0.281084 0.066596 0.206154
v -0.177868 0.402229 -0.071892
v -0.195774 0.402229 -0.175652
v -0.283195 0.402229 -0.160565
v -0.265289 0.402229 -0.056806
v -0.280000 -0.000000 0.180000
v -0.280000 0.020000 0.200000
v -0.300000 0.020000 0.180000
v -0.280000 0.380000 0.200000
v -0.280000 0.400000 0.180000
v -0.300000 0.380000 0.180000
v -0.280000 -0.000000 -0.180000
v -0.300000 0.020000 -0.180000
v -0.280000 0.020000 -0.200000
v -0.280000 0.400000 -0.180000
v -0.280000 0.380000 -0.200000
v -0.300000 0.380000 -0.180000
v 0.280000 -0.000000 0.180000
v 0.300000 0.020000 0.180000
v 0.280000 0.020000 0.200000
v 0.280000 0.400000 0.180000
v 0.280000 0.380000 0.200000
v 0.300000 0.380000 0.180000
v 0.280000 0.020000 -0.200000
v 0.300000 0.020000 -0.180000
v 0.280000 -0.000000 -0.180000
v 0.280000 0.380000 -0.200000
v 0.280000 0.400000 -0.180000
v 0.300000 0.380000 -0.180000
v -0.133173 -0.000000 -0.180000
v -0.133173 0.020000 -0.200000
v 0.133173 0.020000 -0.200000
v 0.133173 -0.000000 -0.180000
v 0.133173 0.400000 -0.180000
v 0.133173 0.380000 -0.200000
v -0.133173 0.380000 -0.200000
v -0.133173 0.400000 -0.180000
v 0.133173 -0.000000 0.180000
v 0.133173 0.020000 0.200000
v -0.133173 0.020000 0.200000
v -0.133173 -0.000000 0.180000
v -0.133173 0.400000 0.180000
v -0.133173 0.380000 0.200000
v 0.133173 0.380000 0.200000
v 0.133173 0.400000 0.180000
vt 0.789392 0.850036
vt 0.789392 0.894726
vt 0.776559 0.894726
vt 0.776559 0.850036
vt 0.795192 0.850036
vt 0.795192 0.894726
vt 0.808025 0.894726
vt 0.808025 0.850036
vt 0.808025 0.850036
vt 0.808025 0.894726
vt 0.795192 0.894726
vt 0.795192 0.850036
vt 0.808120 0.929210
vt 0.808120 0.941745
vt 0.796845 0.941745
vt 0.796845 0.929210
vt 0.774810 0.881286
vt 0.774811 0.925976
vt 0.774811 0.925976
vt 0.774810 0.881286
vt 0.808025 0.935271
vt 0.795192 0.935271
vt 0.795192 0.935271
vt 0.808025 0.935271
vt 0.776559 0.850036
vt 0.776559 0.894726
vt 0.789392 0.894726
vt 0.789392 0.850036
vt 0.813688 0.863476
vt 0.813688 0.818786
vt 0.802146 0.818786
vt 0.802146 0.863476
vt 0.789392 0.935271
vt 0.776559 0.935271
vt 0.776559 0.935271
vt 0.789392 0.935271
vt 0.809773 0.881286
vt 0.809774 0.925976
vt 0.809773 0.925976
vt 0.809773 0.881286
vt 0.802146 0.863476
vt 0.802146 0.818786
vt 0.813688 0.818786
vt 0.813688 0.863476
vt 0.802146 0.904021
vt 0.802146 0.904021
vt 0.813688 0.904021
vt 0.813688 0.904021
vt 0.813688 0.790929
vt 0.813688 0.790929
vt 0.802146 0.790929
vt 0.802146 0.790929
vt 0.795192 0.822179
vt 0.808025 0.822179
vt 0.808025 0.822179
vt 0.795192 0.822179
vt 0.799264 0.977104
vt 0.784682 0.977104
vt 0.784682 0.977104
vt 0.799264 0.977104
vt 0.776559 0.878804
vt 0.776559 0.878804
vt 0.776559 0.925976
vt 0.776559 0.928459
vt 0.774811 0.878804
vt 0.774811 0.881286
vt 0.776559 0.928459
vt 0.776559 0.928459
vt 0.809773 0.878804
vt 0.809773 0.881286
vt 0.808025 0.966521
vt 0.808025 0.966521
vt 0.809773 0.966521
vt 0.809773 0.881286
vt 0.809773 0.878804
vt 0.808025 0.966521
vt 0.808025 0.966521
vt 0.809773 0.966521
vt 0.774811 0.878804
vt 0.776559 0.881286
vt 0.774811 0.928459
vt 0.774811 0.928459
vt 0.776559 0.925976
vt 0.776559 0.881286
vt 0.808025 0.881286
vt 0.808025 0.925976
vt 0.808025 0.925976
vt 0.808025 0.881286
vt 0.813688 0.935271
vt 0.802146 0.935271
vt 0.802146 0.935271
vt 0.813688 0.935271
vt 0.802146 0.935271
vt 0.813688 0.935271
vt 0.813688 0.935271
vt 0.802146 0.935271
vt 0.802146 0.822179
vt 0.813688 0.822179
vt 0.813688 0.822179
vt 0.802146 0.822179
vt 0.813688 0.822179
vt 0.802146 0.822179
vt 0.802146 0.822179
vt 0.813688 0.822179
vt 0.789392 0.878804
vt 0.776559 0.878804
vt 0.789392 0.881286
vt 0.789392 0.928459
vt 0.789392 0.925976
vt 0.795192 0.881286
vt 0.808025 0.878804
vt 0.795192 0.878804
vt 0.795192 0.881286
vt 0.795192 0.878804
vt 0.808025 0.878804
vt 0.789392 0.881286
vt 0.789392 0.878804
vt 0.795192 0.966521
vt 0.795192 0.966521
vt 0.795192 0.966521
vt 0.795192 0.966521
vt 0.789392 0.925976
vt 0.789392 0.928459
vt 0.776559 0.822179
vt 0.789392 0.822179
vt 0.789392 0.822179
vt 0.776559 0.822179
vn 0.0000 0.0000 1.0000
vn 0.0000 0.0000 -1.0000
vn -1.0000 0.0000 0.0000
vn 0.0000 1.0000 0.0000
vn 1.0000 0.0000 0.0000
vn 0.0000 -1.0000 0.0000
vn -0.5774 -0.5773 0.5774
vn -0.5774 0.5773 0.5774
vn -0.5774 -0.5773 -0.5774
vn -0.5774 0.5773 -0.5774
vn 0.5774 -0.5773 0.5774
vn 0.5774 0.5773 0.5774
vn 0.5774 -0.5773 -0.5774
vn 0.5774 0.5773 -0.5774
vn -0.7071 -0.7071 -0.0000
vn -0.7071 0.0000 0.7071
vn -0.7071 0.7071 0.0000
vn -0.7071 0.0000 -0.7071
vn 0.7071 0.0000 -0.7071
vn 0.7071 -0.7071 0.0000
vn 0.7071 0.7071 0.0000
vn 0.7071 0.0000 0.7071
vn 0.0000 0.7071 -0.7071
vn 0.0000 0.7071 0.7071
vn 0.0000 -0.7071 -0.7071
vn 0.0000 -0.7071 0.7071
usemtl prototype_texture
s 1
f 43/1/1 46/2/1 12/3/1 10/4/1
f 35/5/2 38/6/2 30/7/2 27/8/2
f 23/9/1 25/10/1 47/11/1 42/12/1
f 4/13/1 3/14/1 1/15/1 2/16/1
f 11/17/3 14/18/3 20/19/3 16/20/3
f 31/21/4 37/22/4 48/23/4 24/24/4
f 17/25/2 19/26/2 39/27/2 34/28/2
f 38/29/2 35/30/2 34/31/2 39/32/2
f 40/33/4 18/34/4 13/35/4 45/36/4
f 28/37/5 32/38/5 26/39/5 22/40/5
f 46/41/1 43/42/1 42/43/1 47/44/1
f 40/45/4 45/46/4 48/47/4 37/48/4
f 36/49/6 41/50/6 44/51/6 33/52/6
f 36/53/6 29/54/6 21/55/6 41/56/6
f 6/57/4 7/58/4 8/59/4 5/60/4
f 9/61/7 10/62/7 11/17/7
f 12/63/8 13/64/8 14/18/8
f 15/65/9 16/20/9 17/66/9
f 18/67/10 19/68/10 20/19/10
f 21/69/11 22/40/11 23/70/11
f 24/71/12 25/72/12 26/73/12
f 27/74/13 28/37/13 29/75/13
f 30/76/14 31/77/14 32/78/14
f 15/65/15 9/79/15 11/17/15 16/20/15
f 10/80/16 12/63/16 14/18/16 11/17/16
f 13/81/17 18/82/17 20/19/17 14/18/17
f 19/83/18 17/84/18 16/20/18 20/19/18
f 32/38/19 28/37/19 27/85/19 30/86/19
f 21/69/20 29/75/20 28/37/20 22/40/20
f 31/77/21 24/71/21 26/73/21 32/78/21
f 25/87/22 23/88/22 22/40/22 26/39/22
f 38/89/23 39/90/23 40/91/23 37/92/23
f 46/93/24 47/94/24 48/95/24 45/96/24
f 34/97/25 35/98/25 36/99/25 33/100/25
f 42/101/26 43/102/26 44/103/26 41/104/26
f 33/105/25 15/106/25 17/84/25 34/107/25
f 18/67/23 40/108/23 39/109/23 19/83/23
f 35/110/25 27/85/25 29/111/25 36/112/25
f 23/88/26 42/113/26 41/114/26 21/115/26
f 43/116/26 10/80/26 9/61/26 44/117/26
f 37/118/23 31/77/23 30/76/23 38/119/23
f 47/120/24 25/72/24 24/71/24 48/121/24
f 12/63/24 46/122/24 45/123/24 13/64/24
f 15/124/6 33/125/6 44/126/6 9/127/6
