# Blender v3.4.1 OBJ File: 'Prototype_Bits_Export.blend'
# www.blender.org
mtllib Box_A.mtl
o Box_A_Cube.006
v -0.189196 0.328832 0.235106
v -0.173392 0.243561 0.235106
v -0.065253 0.351805 0.235106
v -0.049448 0.266533 0.235106
v 0.000000 0.508897 0.206505
v 0.000000 0.508897 -0.206505
v -0.208088 0.400906 -0.208088
v -0.208088 0.400906 0.208088
v -0.208088 -0.000000 0.208088
v -0.208088 0.023563 0.228088
v -0.228088 0.020000 0.208088
v -0.208088 -0.000000 -0.208088
v -0.228088 0.020000 -0.208088
v -0.208088 0.023563 -0.228088
v 0.208088 -0.000000 0.208088
v 0.228088 0.020000 0.208088
v 0.214601 0.023705 0.228088
v 0.208088 0.400906 0.208088
v 0.214351 0.380906 0.228088
v 0.228088 0.380906 0.208088
v 0.228088 0.020000 -0.208088
v 0.208088 -0.000000 -0.208088
v 0.214601 0.023705 -0.228088
v 0.214351 0.380906 -0.228088
v 0.208088 0.400906 -0.208088
v 0.228088 0.380906 -0.208088
v -0.228088 0.380906 -0.208088
v -0.208088 0.380906 -0.228088
v -0.228088 0.380906 0.208088
v -0.208088 0.380906 0.228088
v 0.000000 0.400906 -0.208088
v 0.011379 0.380906 -0.228088
v 0.011379 0.380906 0.228088
v 0.000000 0.400906 0.208088
vt 0.154027 0.773641
vt 0.182918 0.773641
vt 0.182918 0.773641
vt 0.154027 0.773641
vt 0.154027 0.830727
vt 0.212714 0.830743
vt 0.184498 0.871011
vt 0.154027 0.871011
vt 0.212680 0.871012
vt 0.176053 0.930367
vt 0.173859 0.939980
vt 0.156651 0.937390
vt 0.158845 0.927777
vt 0.151250 0.830325
vt 0.151250 0.871011
vt 0.151250 0.871011
vt 0.151250 0.830325
vt 0.184498 0.871011
vt 0.212680 0.871012
vt 0.212714 0.830743
vt 0.182918 0.880078
vt 0.182918 0.880078
vt 0.211810 0.880078
vt 0.211810 0.880078
vt 0.154027 0.830727
vt 0.154027 0.871011
vt 0.214587 0.830325
vt 0.214587 0.871011
vt 0.214587 0.871011
vt 0.214587 0.830325
vt 0.151250 0.880078
vt 0.182918 0.892252
vt 0.182918 0.892252
vt 0.151250 0.880078
vt 0.154027 0.859320
vt 0.151250 0.861977
vt 0.151250 0.861575
vt 0.151250 0.859320
vt 0.151250 0.861575
vt 0.151250 0.861977
vt 0.214587 0.859320
vt 0.214587 0.861575
vt 0.214587 0.861993
vt 0.211810 0.904516
vt 0.214587 0.902261
vt 0.214587 0.902261
vt 0.214587 0.861575
vt 0.214587 0.859320
vt 0.214587 0.861993
vt 0.212680 0.902262
vt 0.211810 0.904516
vt 0.214587 0.902261
vt 0.151250 0.902261
vt 0.151250 0.904516
vt 0.151250 0.902261
vt 0.151250 0.902261
vt 0.151250 0.902261
vt 0.151250 0.904516
vt 0.151250 0.859320
vt 0.212714 0.861993
vt 0.214587 0.904516
vt 0.214587 0.904516
vt 0.212680 0.902262
vt 0.212714 0.861993
vt 0.154027 0.902261
vt 0.184498 0.902261
vt 0.182918 0.904516
vt 0.154027 0.904516
vt 0.154027 0.904516
vt 0.182918 0.904516
vt 0.184498 0.902261
vt 0.154027 0.902261
vt 0.154027 0.861977
vt 0.154027 0.861977
vt 0.211810 0.859320
vt 0.154027 0.859320
vt 0.211810 0.859320
vt 0.154027 0.802696
vt 0.154027 0.802696
vt 0.211810 0.802696
vt 0.211810 0.802696
vn 0.0000 1.0000 0.0000
vn 0.0000 0.0000 1.0000
vn -1.0000 0.0000 0.0000
vn 0.0000 0.0000 -1.0000
vn 1.0000 0.0000 0.0000
vn -0.4606 0.8876 0.0000
vn -0.5433 -0.5433 0.6401
vn -0.5433 -0.5433 -0.6401
vn 0.6042 -0.6042 0.5194
vn 0.6980 0.6980 0.1600
vn 0.6361 0.6361 0.4369
vn 0.6942 0.6942 0.1902
vn 0.6042 -0.6042 -0.5194
vn 0.6361 0.6361 -0.4369
vn 0.6980 0.6980 -0.1600
vn 0.6942 0.6942 -0.1902
vn -0.5774 0.5774 -0.5774
vn -0.5774 0.5774 0.5774
vn -0.7071 -0.7071 -0.0000
vn 0.8267 0.0003 -0.5626
vn 0.7071 -0.7071 0.0000
vn 0.8267 0.0003 0.5626
vn -0.7071 0.7071 0.0000
vn 0.0000 0.7071 0.7071
vn 0.0000 0.7071 -0.7071
vn -0.7071 0.0000 -0.7071
vn -0.7071 0.0000 0.7071
vn 0.0001 -0.6460 -0.7634
vn 0.0001 -0.6460 0.7634
vn 0.0000 -1.0000 0.0000
usemtl prototype_texture
s off
f 8/1/1 34/2/1 31/3/1 7/4/1
s 1
f 10/5/2 17/6/2 33/7/2 30/8/2
f 19/9/2 33/7/2 17/6/2
f 4/10/2 3/11/2 1/12/2 2/13/2
f 11/14/3 29/15/3 27/16/3 13/17/3
f 32/18/4 24/19/4 23/20/4
f 31/21/1 34/22/1 18/23/1 25/24/1
f 14/25/4 28/26/4 32/18/4 23/20/4
f 21/27/5 26/28/5 20/29/5 16/30/5
f 8/31/6 5/32/6 6/33/6 7/34/6
f 9/35/7 10/36/7 11/37/7
f 12/38/8 13/39/8 14/40/8
f 15/41/9 16/42/9 17/43/9
f 18/44/10 19/45/11 20/46/12
f 21/47/13 22/48/13 23/49/13
f 24/50/14 25/51/15 26/52/16
f 27/53/17 7/54/17 28/55/17
f 29/56/18 30/57/18 8/58/18
f 12/38/19 9/59/19 11/37/19 13/39/19
f 26/52/20 21/47/20 23/60/20 24/50/20
f 15/41/21 22/48/21 21/47/21 16/42/21
f 25/61/15 18/62/10 20/46/12 26/52/16
f 19/63/22 17/64/22 16/42/22 20/46/22
f 8/58/23 7/54/23 27/53/23 29/56/23
f 30/65/24 33/66/24 34/67/24 8/68/24
f 7/69/25 31/70/25 32/71/25 28/72/25
f 28/72/26 14/73/26 13/39/26 27/53/26
f 10/74/27 30/65/27 29/56/27 11/37/27
f 33/66/24 19/63/24 18/44/24 34/67/24
f 24/50/25 32/71/25 31/70/25 25/51/25
f 14/73/28 23/60/28 22/75/28 12/76/28
f 17/64/29 10/74/29 9/35/29 15/77/29
f 9/78/30 12/79/30 22/80/30 15/81/30
