# Blender v3.4.1 OBJ File: 'Prototype_Bits_Export.blend'
# www.blender.org
mtllib Box_C.mtl
o Box_C_Cube.005
v 0.157137 0.183270 0.306154
v 0.157137 0.051164 0.306154
v 0.326596 0.183270 0.306154
v 0.326596 0.051164 0.306154
v -0.177868 0.402229 -0.071892
v -0.195774 0.402229 -0.175652
v -0.283195 0.402229 -0.160565
v -0.265289 0.402229 -0.056806
v -0.337962 0.317446 0.306154
v -0.330426 0.229020 0.306154
v -0.156396 0.332919 0.306154
v -0.148861 0.244493 0.306154
v -0.380000 -0.000000 0.280000
v -0.380000 0.020000 0.300000
v -0.400000 0.020000 0.280000
v -0.380000 0.380000 0.300000
v -0.380000 0.400000 0.280000
v -0.400000 0.380000 0.280000
v -0.380000 -0.000000 -0.280000
v -0.400000 0.020000 -0.280000
v -0.380000 0.020000 -0.300000
v -0.380000 0.400000 -0.280000
v -0.380000 0.380000 -0.300000
v -0.400000 0.380000 -0.280000
v 0.380000 -0.000000 0.280000
v 0.400000 0.020000 0.280000
v 0.380000 0.020000 0.300000
v 0.380000 0.400000 0.280000
v 0.380000 0.380000 0.300000
v 0.400000 0.380000 0.280000
v 0.380000 0.020000 -0.300000
v 0.400000 0.020000 -0.280000
v 0.380000 -0.000000 -0.280000
v 0.380000 0.380000 -0.300000
v 0.380000 0.400000 -0.280000
v 0.400000 0.380000 -0.280000
v -0.083173 0.020000 -0.300000
v -0.083173 -0.000000 -0.280000
v 0.083173 0.020000 -0.300000
v 0.083173 -0.000000 -0.280000
v 0.083173 0.380000 -0.300000
v 0.083173 0.400000 -0.280000
v -0.083173 0.380000 -0.300000
v -0.083173 0.400000 -0.280000
v 0.083173 0.020000 0.300000
v 0.083173 -0.000000 0.280000
v -0.083173 0.020000 0.300000
v -0.083173 -0.000000 0.280000
v -0.083173 0.380000 0.300000
v -0.083173 0.400000 0.280000
v 0.083173 0.380000 0.300000
v 0.083173 0.400000 0.280000
v 0.000000 0.400000 -0.280000
v 0.000000 0.380000 -0.300000
v 0.000000 0.400000 0.280000
v 0.000000 0.380000 0.300000
v 0.000000 -0.000000 -0.280000
v 0.000000 0.020000 -0.300000
v 0.000000 -0.000000 0.280000
v 0.000000 0.020000 0.300000
vt 0.025366 0.600036
vt 0.025366 0.644726
vt 0.019238 0.644726
vt 0.019238 0.600036
vt 0.027968 0.600036
vt 0.027968 0.644726
vt 0.034096 0.644726
vt 0.034096 0.600036
vt 0.034096 0.600036
vt 0.034096 0.644726
vt 0.027968 0.644726
vt 0.027968 0.600036
vt 0.033767 0.726085
vt 0.033767 0.738620
vt 0.028709 0.738620
vt 0.028709 0.726085
vt 0.018825 0.631286
vt 0.018825 0.675976
vt 0.018825 0.675976
vt 0.018825 0.631286
vt 0.034096 0.685271
vt 0.027968 0.685271
vt 0.027968 0.685271
vt 0.034096 0.685271
vt 0.019238 0.600036
vt 0.019238 0.644726
vt 0.025366 0.644726
vt 0.025366 0.600036
vt 0.182917 0.790929
vt 0.182917 0.790929
vt 0.177985 0.790929
vt 0.177985 0.790929
vt 0.025366 0.685271
vt 0.019238 0.685271
vt 0.019238 0.685271
vt 0.025366 0.685271
vt 0.034509 0.631286
vt 0.034509 0.675976
vt 0.034509 0.675976
vt 0.034509 0.631286
vt 0.177985 0.904021
vt 0.177985 0.904021
vt 0.182917 0.904021
vt 0.182917 0.904021
vt 0.182917 0.863476
vt 0.182917 0.818786
vt 0.177985 0.818786
vt 0.177985 0.863476
vt 0.177985 0.863476
vt 0.177985 0.818786
vt 0.182917 0.818786
vt 0.182917 0.863476
vt 0.187849 0.806554
vt 0.187849 0.806554
vt 0.182917 0.806554
vt 0.182917 0.806554
vt 0.027968 0.572179
vt 0.034096 0.572179
vt 0.034096 0.572179
vt 0.027968 0.572179
vt 0.029794 0.727104
vt 0.023253 0.727104
vt 0.023253 0.727104
vt 0.029794 0.727104
vt 0.182917 0.919646
vt 0.182917 0.919646
vt 0.187849 0.919646
vt 0.187849 0.919646
vt 0.187849 0.879101
vt 0.187849 0.834411
vt 0.182917 0.834411
vt 0.182917 0.879101
vt 0.182917 0.879101
vt 0.182917 0.834411
vt 0.187849 0.834411
vt 0.187849 0.879101
vt 0.033767 0.866710
vt 0.033767 0.879245
vt 0.028709 0.879245
vt 0.028709 0.866710
vt 0.019238 0.628804
vt 0.019238 0.628804
vt 0.019238 0.675976
vt 0.019238 0.678459
vt 0.018825 0.628804
vt 0.018825 0.628804
vt 0.018825 0.631286
vt 0.019238 0.678459
vt 0.019238 0.678459
vt 0.034509 0.628804
vt 0.034509 0.628804
vt 0.034509 0.631286
vt 0.034096 0.716521
vt 0.034096 0.716521
vt 0.034509 0.716521
vt 0.034509 0.631286
vt 0.034509 0.628804
vt 0.034509 0.628804
vt 0.034096 0.716521
vt 0.034509 0.716521
vt 0.034509 0.716521
vt 0.018825 0.628804
vt 0.019238 0.631286
vt 0.018825 0.678459
vt 0.018825 0.678459
vt 0.019238 0.675976
vt 0.019238 0.631286
vt 0.034096 0.631286
vt 0.034096 0.675976
vt 0.034096 0.716521
vt 0.034096 0.675976
vt 0.034096 0.631286
vt 0.182917 0.894726
vt 0.177985 0.894726
vt 0.177985 0.897209
vt 0.182917 0.897209
vt 0.182917 0.950896
vt 0.187849 0.950896
vt 0.187849 0.950896
vt 0.182917 0.950896
vt 0.182917 0.865661
vt 0.187849 0.865661
vt 0.187849 0.863179
vt 0.182917 0.863179
vt 0.182917 0.822179
vt 0.177985 0.822179
vt 0.177985 0.822179
vt 0.182917 0.822179
vt 0.025366 0.628804
vt 0.019238 0.628804
vt 0.025366 0.631286
vt 0.025366 0.678459
vt 0.025366 0.675976
vt 0.027968 0.631286
vt 0.034096 0.628804
vt 0.027968 0.628804
vt 0.027968 0.631286
vt 0.027968 0.628804
vt 0.034096 0.628804
vt 0.025366 0.631286
vt 0.025366 0.628804
vt 0.027968 0.716521
vt 0.027968 0.716521
vt 0.027968 0.716521
vt 0.027968 0.716521
vt 0.025366 0.675976
vt 0.025366 0.678459
vt 0.187849 0.950896
vt 0.182917 0.950896
vt 0.182917 0.950896
vt 0.187849 0.950896
vt 0.177985 0.894726
vt 0.182917 0.894726
vt 0.182917 0.897209
vt 0.177985 0.897209
vt 0.177985 0.822179
vt 0.182917 0.822179
vt 0.182917 0.822179
vt 0.177985 0.822179
vt 0.187849 0.865661
vt 0.182917 0.865661
vt 0.182917 0.863179
vt 0.187849 0.863179
vt 0.019238 0.572179
vt 0.025366 0.572179
vt 0.025366 0.572179
vt 0.019238 0.572179
vn 0.0000 0.0000 1.0000
vn 0.0000 0.0000 -1.0000
vn -1.0000 0.0000 0.0000
vn 0.0000 1.0000 0.0000
vn 0.0000 -1.0000 0.0000
vn 1.0000 0.0000 0.0000
vn -0.5774 -0.5774 0.5774
vn -0.5774 0.5774 0.5774
vn -0.5774 -0.5774 -0.5774
vn -0.5774 0.5774 -0.5774
vn 0.5774 -0.5774 0.5774
vn 0.5774 0.5774 0.5774
vn 0.5774 -0.5774 -0.5774
vn 0.5774 0.5774 -0.5774
vn -0.7071 -0.7071 0.0000
vn -0.7071 0.0000 0.7071
vn -0.7071 0.7071 0.0000
vn -0.7071 0.0000 -0.7071
vn 0.7071 0.0000 -0.7071
vn 0.7071 -0.7071 0.0000
vn 0.7071 0.7071 0.0000
vn 0.7071 0.0000 0.7071
vn 0.0000 0.7071 -0.7071
vn 0.0000 0.7071 0.7071
vn 0.0000 -0.7071 -0.7071
vn 0.0000 -0.7071 0.7071
usemtl prototype_texture
s 1
f 47/1/1 49/2/1 16/3/1 14/4/1
f 39/5/2 41/6/2 34/7/2 31/8/2
f 27/9/1 29/10/1 51/11/1 45/12/1
f 4/13/1 3/14/1 1/15/1 2/16/1
f 15/17/3 18/18/3 24/19/3 20/20/3
f 35/21/4 42/22/4 52/23/4 28/24/4
f 21/25/2 23/26/2 43/27/2 37/28/2
f 57/29/5 59/30/5 48/31/5 38/32/5
f 44/33/4 22/34/4 17/35/4 50/36/4
f 32/37/6 36/38/6 30/39/6 26/40/6
f 44/41/4 50/42/4 55/43/4 53/44/4
f 54/45/2 58/46/2 37/47/2 43/48/2
f 49/49/1 47/50/1 60/51/1 56/52/1
f 40/53/5 46/54/5 59/55/5 57/56/5
f 40/57/5 33/58/5 25/59/5 46/60/5
f 6/61/4 7/62/4 8/63/4 5/64/4
f 53/65/4 55/66/4 52/67/4 42/68/4
f 41/69/2 39/70/2 58/71/2 54/72/2
f 56/73/1 60/74/1 45/75/1 51/76/1
f 12/77/1 11/78/1 9/79/1 10/80/1
f 13/81/7 14/82/7 15/17/7
f 16/83/8 17/84/8 18/18/8
f 19/85/9 20/86/9 21/87/9
f 22/88/10 23/89/10 24/19/10
f 25/90/11 26/91/11 27/92/11
f 28/93/12 29/94/12 30/95/12
f 31/96/13 32/97/13 33/98/13
f 34/99/14 35/100/14 36/101/14
f 19/85/15 13/102/15 15/17/15 20/20/15
f 14/103/16 16/83/16 18/18/16 15/17/16
f 17/104/17 22/105/17 24/19/17 18/18/17
f 23/106/18 21/107/18 20/20/18 24/19/18
f 36/38/19 32/37/19 31/108/19 34/109/19
f 25/90/20 33/98/20 32/37/20 26/40/20
f 35/110/21 28/93/21 30/95/21 36/101/21
f 29/111/22 27/112/22 26/40/22 30/39/22
f 54/113/23 43/114/23 44/115/23 53/116/23
f 56/117/24 51/118/24 52/119/24 55/120/24
f 58/121/25 39/122/25 40/123/25 57/124/25
f 60/125/26 47/126/26 48/127/26 59/128/26
f 38/129/25 19/130/25 21/107/25 37/131/25
f 22/88/23 44/132/23 43/133/23 23/106/23
f 39/134/25 31/108/25 33/135/25 40/136/25
f 27/112/26 45/137/26 46/138/26 25/139/26
f 47/140/26 14/103/26 13/81/26 48/141/26
f 42/142/23 35/110/23 34/99/23 41/143/23
f 51/144/24 29/94/24 28/93/24 52/145/24
f 16/83/24 49/146/24 50/147/24 17/84/24
f 41/148/23 54/149/23 53/150/23 42/151/23
f 49/152/24 56/153/24 55/154/24 50/155/24
f 37/156/25 58/157/25 57/158/25 38/159/25
f 45/160/26 60/161/26 59/162/26 46/163/26
f 19/164/5 38/165/5 48/166/5 13/167/5
