# Blender v3.4.1 OBJ File: 'Prototype_Bits_Export.blend'
# www.blender.org
mtllib Can_B.mtl
o Can_B_Cylinder.001
v -0.000000 0.020000 0.000000
v 0.000000 0.030000 -0.150000
v 0.000000 0.450000 -0.118942
v 0.000000 0.420000 -0.150000
v 0.075000 0.030000 -0.129904
v 0.059471 0.450000 -0.103007
v 0.075000 0.420000 -0.129904
v 0.129904 0.030000 -0.075000
v 0.103007 0.450000 -0.059471
v 0.129904 0.420000 -0.075000
v 0.150000 0.030000 0.000000
v 0.118942 0.450000 0.000000
v 0.150000 0.420000 0.000000
v 0.129904 0.030000 0.075000
v 0.103007 0.450000 0.059471
v 0.129904 0.420000 0.075000
v 0.075000 0.030000 0.129904
v 0.059471 0.450000 0.103007
v 0.075000 0.420000 0.129904
v -0.000000 0.030000 0.150000
v -0.000000 0.450000 0.118942
v -0.000000 0.420000 0.150000
v -0.075000 0.030000 0.129904
v -0.059471 0.450000 0.103007
v -0.075000 0.420000 0.129904
v -0.129904 0.030000 0.075000
v -0.103007 0.450000 0.059471
v -0.129904 0.420000 0.075000
v -0.150000 0.030000 -0.000000
v -0.118942 0.450000 -0.000000
v -0.150000 0.420000 -0.000000
v -0.129904 0.030000 -0.075000
v -0.103007 0.450000 -0.059471
v -0.129904 0.420000 -0.075000
v -0.075000 0.030000 -0.129904
v -0.059471 0.450000 -0.103007
v -0.075000 0.420000 -0.129904
v -0.039802 0.470000 0.016077
v -0.018155 0.470000 0.037724
v -0.039802 0.470000 -0.056078
v -0.018155 0.470000 -0.077724
v 0.018162 0.470000 -0.077724
v 0.039809 0.470000 -0.056078
v 0.039809 0.470000 0.016077
v 0.018162 0.470000 0.037724
v 0.000005 0.470000 -0.020000
v 0.015506 0.482319 -0.069276
v 0.015506 0.457681 -0.069276
v 0.033985 0.457681 -0.050798
v 0.015506 0.482319 0.029276
v 0.033985 0.457681 0.010797
v 0.015506 0.457681 0.029276
v -0.015496 0.482319 -0.069276
v -0.033975 0.457681 -0.050798
v -0.015496 0.457681 -0.069276
v -0.015496 0.482319 0.029276
v -0.015496 0.457681 0.029276
v -0.033975 0.457681 0.010797
v 0.059471 -0.000000 -0.103007
v 0.000000 -0.000000 -0.118942
v 0.103007 -0.000000 -0.059471
v 0.118942 -0.000000 0.000000
v 0.103007 -0.000000 0.059471
v 0.059471 -0.000000 0.103007
v -0.000000 -0.000000 0.118942
v -0.059471 -0.000000 0.103007
v -0.103007 -0.000000 0.059471
v -0.118942 -0.000000 0.000000
v -0.103007 -0.000000 -0.059471
v -0.059471 -0.000000 -0.103007
v 0.000000 0.470000 -0.111616
v 0.055809 0.470000 -0.096663
v 0.096663 0.470000 -0.055808
v 0.111617 0.470000 0.000000
v 0.096663 0.470000 0.055808
v 0.055809 0.470000 0.096663
v 0.000000 0.470000 0.111616
v -0.055808 0.470000 0.096663
v -0.096662 0.470000 0.055808
v -0.111616 0.470000 0.000000
v -0.096662 0.470000 -0.055808
v -0.055808 0.470000 -0.096663
v 0.000002 0.460000 -0.087250
v 0.043627 0.460000 -0.075560
v 0.075562 0.460000 -0.043625
v 0.087252 0.460000 0.000000
v 0.075562 0.460000 0.043625
v 0.043627 0.460000 0.075560
v 0.000002 0.460000 0.087250
v -0.043623 0.460000 0.075560
v -0.075558 0.460000 0.043625
v -0.087248 0.460000 0.000000
v -0.075558 0.460000 -0.043625
v -0.043623 0.460000 -0.075560
v 0.000002 0.460000 0.000000
v 0.033985 0.482319 -0.050798
v -0.033975 0.482319 -0.050798
v 0.033985 0.482319 0.010797
v -0.033975 0.482319 0.010797
v 0.000000 0.225000 -0.150000
v 0.075000 0.225000 -0.129904
v -0.075000 0.225000 -0.129904
v 0.129904 0.225000 -0.075000
v 0.150000 0.225000 0.000000
v 0.129904 0.225000 0.075000
v 0.075000 0.225000 0.129904
v -0.000000 0.225000 0.150000
v -0.075000 0.225000 0.129904
v -0.129904 0.225000 0.075000
v -0.150000 0.225000 -0.000000
v -0.129904 0.225000 -0.075000
vt 0.921877 0.903010
vt 0.921877 0.945135
vt 0.921877 0.945135
vt 0.921877 0.903010
vt 0.937502 0.856135
vt 0.937502 0.898260
vt 0.937502 0.898260
vt 0.937502 0.856135
vt 0.921877 0.903010
vt 0.921877 0.945135
vt 0.921877 0.945135
vt 0.921877 0.903010
vt 0.921877 0.945135
vt 0.921877 0.903010
vt 0.921877 0.945135
vt 0.921877 0.903010
vt 0.937502 0.856135
vt 0.937502 0.898260
vt 0.937502 0.898260
vt 0.937502 0.856135
vt 0.937502 0.898260
vt 0.937502 0.856135
vt 0.937502 0.898260
vt 0.937502 0.856135
vt 0.921877 0.903010
vt 0.921877 0.945135
vt 0.921877 0.945135
vt 0.921877 0.903010
vt 0.937502 0.856135
vt 0.937502 0.898260
vt 0.937502 0.856135
vt 0.937502 0.898260
vt 0.921877 0.845259
vt 0.921877 0.845259
vt 0.921877 0.838778
vt 0.921877 0.838778
vt 0.937502 0.929510
vt 0.937502 0.929510
vt 0.937502 0.935991
vt 0.937502 0.935991
vt 0.921877 0.845259
vt 0.921877 0.838778
vt 0.937502 0.929510
vt 0.937502 0.935991
vt 0.921877 0.845259
vt 0.921877 0.838778
vt 0.937502 0.929510
vt 0.937502 0.935991
vt 0.937502 0.798384
vt 0.937502 0.798384
vt 0.937502 0.791903
vt 0.937502 0.791903
vt 0.921877 0.976385
vt 0.921877 0.976385
vt 0.921877 0.982866
vt 0.921877 0.982866
vt 0.937502 0.798384
vt 0.937502 0.791903
vt 0.921877 0.976385
vt 0.921877 0.982866
vt 0.937502 0.798384
vt 0.937502 0.791903
vt 0.921877 0.976385
vt 0.921877 0.982866
vt 0.921877 0.845259
vt 0.921877 0.845259
vt 0.921877 0.838778
vt 0.921877 0.838778
vt 0.937502 0.929510
vt 0.937502 0.929510
vt 0.937502 0.935991
vt 0.937502 0.935991
vt 0.921877 0.845259
vt 0.921877 0.838778
vt 0.937502 0.929510
vt 0.937502 0.935991
vt 0.921877 0.845259
vt 0.921877 0.838778
vt 0.937502 0.929510
vt 0.937502 0.935991
vt 0.937502 0.798384
vt 0.937502 0.798384
vt 0.937502 0.791903
vt 0.937502 0.791903
vt 0.921877 0.976385
vt 0.921877 0.976385
vt 0.921877 0.982866
vt 0.921877 0.982866
vt 0.937502 0.798384
vt 0.937502 0.791903
vt 0.921877 0.976385
vt 0.921877 0.982866
vt 0.937502 0.798384
vt 0.937502 0.791903
vt 0.921877 0.976385
vt 0.921877 0.982866
vt 0.290249 0.937739
vt 0.299655 0.937739
vt 0.299655 0.942886
vt 0.290249 0.942886
vt 0.334753 0.937739
vt 0.338196 0.937739
vt 0.338196 0.942886
vt 0.334753 0.942886
vt 0.286806 0.937739
vt 0.286806 0.942886
vt 0.325349 0.937739
vt 0.325349 0.942886
vt 0.325349 0.937739
vt 0.312501 0.937739
vt 0.312501 0.942886
vt 0.325349 0.942886
vt 0.290249 0.937739
vt 0.290249 0.942886
vt 0.312501 0.937739
vt 0.312501 0.942886
vt 0.299655 0.937739
vt 0.299655 0.942886
vt 0.334753 0.937739
vt 0.334753 0.942886
vt 0.315688 0.961498
vt 0.315221 0.964071
vt 0.309786 0.964071
vt 0.309318 0.961498
vt 0.305524 0.961498
vt 0.306546 0.964071
vt 0.306546 0.964071
vt 0.305524 0.961498
vt 0.309318 0.961498
vt 0.309786 0.964071
vt 0.315221 0.964071
vt 0.315688 0.961498
vt 0.318462 0.982683
vt 0.315221 0.982683
vt 0.309786 0.982683
vt 0.306546 0.982683
vt 0.315688 0.931167
vt 0.315221 0.928594
vt 0.318462 0.928594
vt 0.319484 0.931167
vt 0.319484 0.931167
vt 0.318462 0.928594
vt 0.315221 0.928594
vt 0.315688 0.931167
vt 0.309318 0.931167
vt 0.309786 0.928594
vt 0.306546 0.928594
vt 0.305524 0.931167
vt 0.319484 0.961498
vt 0.318462 0.964071
vt 0.318462 0.964071
vt 0.319484 0.961498
vt 0.315221 0.982683
vt 0.318462 0.982683
vt 0.306546 0.982683
vt 0.309786 0.982683
vt 0.309786 0.928594
vt 0.309318 0.931167
vt 0.305524 0.931167
vt 0.306546 0.928594
vt 0.312501 0.933614
vt 0.312501 0.896390
vt 0.325349 0.896390
vt 0.334753 0.896390
vt 0.338196 0.896390
vt 0.334753 0.896390
vt 0.325349 0.896390
vt 0.312501 0.896390
vt 0.299655 0.896390
vt 0.290249 0.896390
vt 0.286806 0.896390
vt 0.290249 0.896390
vt 0.299655 0.896390
vt 0.299655 0.980218
vt 0.312501 0.980218
vt 0.312501 0.952842
vt 0.302867 0.952842
vt 0.299655 0.980218
vt 0.290249 0.980218
vt 0.295813 0.952842
vt 0.302867 0.952842
vt 0.334753 0.980218
vt 0.325349 0.980218
vt 0.322137 0.952842
vt 0.329191 0.952842
vt 0.312501 0.980218
vt 0.312501 0.952842
vt 0.325349 0.980218
vt 0.322137 0.952842
vt 0.286806 0.980218
vt 0.293231 0.952842
vt 0.334753 0.980218
vt 0.329191 0.952842
vt 0.290249 0.980218
vt 0.295813 0.952842
vt 0.338196 0.980218
vt 0.331774 0.952842
vt 0.312501 0.940312
vt 0.322137 0.940312
vt 0.312501 0.940312
vt 0.329191 0.940312
vt 0.331774 0.940312
vt 0.329191 0.940312
vt 0.322137 0.940312
vt 0.312501 0.940312
vt 0.302867 0.940312
vt 0.295813 0.940312
vt 0.293231 0.940312
vt 0.295813 0.940312
vt 0.302867 0.940312
vt 0.316197 0.871010
vt 0.308810 0.871010
vt 0.921877 0.860884
vt 0.921877 0.903010
vt 0.921877 0.860884
vt 0.921877 0.903010
vt 0.921877 0.860884
vt 0.937502 0.814009
vt 0.937502 0.856135
vt 0.937502 0.856135
vt 0.937502 0.814009
vt 0.937502 0.814009
vt 0.921877 0.860884
vt 0.921877 0.903010
vt 0.921877 0.860884
vt 0.921877 0.860884
vt 0.921877 0.903010
vt 0.921877 0.860884
vt 0.937502 0.814009
vt 0.937502 0.856135
vt 0.937502 0.814009
vt 0.937502 0.814009
vt 0.937502 0.856135
vt 0.937502 0.814009
vt 0.921877 0.860884
vt 0.937502 0.814009
vn -0.5000 0.0000 -0.8660
vn 0.0000 0.0000 -1.0000
vn 0.8660 0.0000 -0.5000
vn 1.0000 0.0000 0.0000
vn 0.8660 0.0000 0.5000
vn 0.5000 0.0000 0.8660
vn -0.0000 0.0000 1.0000
vn -0.5000 0.0000 0.8660
vn -0.8660 0.0000 0.5000
vn -1.0000 0.0000 0.0000
vn -0.8660 0.0000 -0.5000
vn 0.5000 0.0000 -0.8660
vn -0.0000 -0.7193 -0.6947
vn 0.3474 -0.7193 -0.6017
vn 0.3474 0.7193 -0.6017
vn -0.0000 0.7193 -0.6947
vn 0.6017 -0.7193 -0.3474
vn 0.6017 0.7193 -0.3474
vn 0.6947 -0.7193 0.0000
vn 0.6947 0.7193 -0.0000
vn 0.6017 -0.7193 0.3474
vn 0.6017 0.7193 0.3474
vn 0.3474 -0.7193 0.6017
vn 0.3474 0.7193 0.6017
vn -0.0000 -0.7193 0.6947
vn -0.0000 0.7193 0.6947
vn -0.3474 -0.7193 0.6017
vn -0.3474 0.7193 0.6017
vn -0.6017 -0.7193 0.3474
vn -0.6017 0.7193 0.3474
vn -0.6947 -0.7193 0.0000
vn -0.6947 0.7193 0.0000
vn -0.6017 -0.7193 -0.3474
vn -0.6017 0.7193 -0.3474
vn -0.3474 -0.7193 -0.6017
vn -0.3474 0.7193 -0.6017
vn -0.8132 0.3439 0.4695
vn -0.4695 0.3439 0.8132
vn 0.8132 0.3439 0.4695
vn 0.9390 0.3439 0.0000
vn -0.9390 0.3439 -0.0000
vn 0.4695 0.3439 0.8132
vn 0.4695 0.3439 -0.8132
vn -0.0000 0.3439 -0.9390
vn -0.8132 0.3439 -0.4695
vn -0.0000 0.3439 0.9390
vn -0.4695 0.3439 -0.8132
vn 0.8132 0.3439 -0.4695
vn 0.3032 0.5825 0.7541
vn 0.3232 0.5816 0.7465
vn -0.3231 0.5817 0.7465
vn -0.3033 0.5826 0.7541
vn -0.7764 0.5199 0.3563
vn -0.8130 0.5072 0.2861
vn -0.8130 0.5072 -0.2861
vn -0.7764 0.5199 -0.3563
vn -0.3033 0.5826 -0.7541
vn -0.3231 0.5817 -0.7465
vn 0.3232 0.5816 -0.7465
vn 0.3032 0.5825 -0.7541
vn -0.1253 0.9846 0.1221
vn 0.0000 1.0000 0.0000
vn 0.1253 0.9846 0.1221
vn 0.3032 -0.5825 0.7541
vn 0.3232 -0.5816 0.7465
vn 0.8131 -0.5070 0.2861
vn 0.7764 -0.5198 0.3563
vn 0.7764 -0.5198 -0.3563
vn 0.8131 -0.5070 -0.2861
vn 0.3232 -0.5816 -0.7465
vn 0.3032 -0.5825 -0.7541
vn -0.3033 -0.5826 -0.7541
vn -0.3231 -0.5817 -0.7465
vn -0.8130 -0.5072 -0.2861
vn -0.7764 -0.5199 -0.3563
vn 0.7764 0.5198 -0.3563
vn 0.8131 0.5070 -0.2861
vn 0.8131 0.5070 0.2861
vn 0.7764 0.5198 0.3563
vn -0.1253 0.9846 -0.1221
vn 0.1253 0.9846 -0.1221
vn -0.3231 -0.5817 0.7465
vn -0.3033 -0.5826 0.7541
vn -0.7764 -0.5199 0.3563
vn -0.8130 -0.5072 0.2861
vn 0.0000 -1.0000 -0.0000
vn 0.0000 -0.9862 0.1658
vn -0.0829 -0.9862 0.1436
vn -0.1436 -0.9862 0.0829
vn -0.1658 -0.9862 -0.0000
vn -0.1436 -0.9862 -0.0829
vn -0.0829 -0.9862 -0.1436
vn 0.0000 -0.9862 -0.1658
vn 0.0829 -0.9862 -0.1436
vn 0.1436 -0.9862 -0.0829
vn 0.1658 -0.9862 0.0000
vn 0.1436 -0.9862 0.0829
vn 0.0829 -0.9862 0.1436
vn 0.1898 0.9251 -0.3288
vn 0.0000 0.9251 -0.3797
vn 0.1898 0.9251 0.3288
vn 0.3288 0.9251 0.1898
vn -0.3288 0.9251 0.1898
vn -0.1898 0.9251 0.3288
vn 0.0000 0.9251 0.3797
vn -0.1898 0.9251 -0.3288
vn 0.3796 0.9251 0.0000
vn -0.3288 0.9251 -0.1898
vn 0.3288 0.9251 -0.1898
vn -0.3797 0.9251 0.0000
usemtl prototype_texture
s 1
f 102/1/1 37/2/1 4/3/2 100/4/2
f 103/5/3 10/6/3 13/7/4 104/8/4
f 104/9/4 13/10/4 16/11/5 105/12/5
f 105/12/5 16/11/5 19/13/6 106/14/6
f 106/14/6 19/13/6 22/15/7 107/16/7
f 107/17/7 22/18/7 25/19/8 108/20/8
f 108/20/8 25/19/8 28/21/9 109/22/9
f 109/22/9 28/21/9 31/23/10 110/24/10
f 110/25/10 31/26/10 34/27/11 111/28/11
f 111/28/11 34/27/11 37/2/1 102/1/1
f 101/29/12 7/30/12 10/6/3 103/5/3
f 100/31/2 4/32/2 7/30/12 101/29/12
f 2/33/13 5/34/14 59/35/14 60/36/13
f 7/37/15 4/38/16 3/39/16 6/40/15
f 5/34/14 8/41/17 61/42/17 59/35/14
f 10/43/18 7/37/15 6/40/15 9/44/18
f 8/41/17 11/45/19 62/46/19 61/42/17
f 13/47/20 10/43/18 9/44/18 12/48/20
f 11/49/19 14/50/21 63/51/21 62/52/19
f 16/53/22 13/54/20 12/55/20 15/56/22
f 14/50/21 17/57/23 64/58/23 63/51/21
f 19/59/24 16/53/22 15/56/22 18/60/24
f 17/57/23 20/61/25 65/62/25 64/58/23
f 22/63/26 19/59/24 18/60/24 21/64/26
f 20/65/25 23/66/27 66/67/27 65/68/25
f 25/69/28 22/70/26 21/71/26 24/72/28
f 23/66/27 26/73/29 67/74/29 66/67/27
f 28/75/30 25/69/28 24/72/28 27/76/30
f 26/73/29 29/77/31 68/78/31 67/74/29
f 31/79/32 28/75/30 27/76/30 30/80/32
f 29/81/31 32/82/33 69/83/33 68/84/31
f 34/85/34 31/86/32 30/87/32 33/88/34
f 32/82/33 35/89/35 70/90/35 69/83/33
f 37/91/36 34/85/34 33/88/34 36/92/36
f 35/89/35 2/93/13 60/94/13 70/90/35
f 4/95/16 37/91/36 36/92/36 3/96/16
f 27/97/37 24/98/38 78/99/38 79/100/37
f 15/101/39 12/102/40 74/103/40 75/104/39
f 30/105/41 27/97/37 79/100/37 80/106/41
f 18/107/42 15/101/39 75/104/39 76/108/42
f 6/109/43 3/110/44 71/111/44 72/112/43
f 33/113/45 30/105/41 80/106/41 81/114/45
f 21/115/46 18/107/42 76/108/42 77/116/46
f 3/110/44 36/117/47 82/118/47 71/111/44
f 9/119/48 6/109/43 72/112/43 73/120/48
f 36/117/47 33/113/45 81/114/45 82/118/47
f 24/98/38 21/115/46 77/116/46 78/99/38
f 12/102/40 9/119/48 73/120/48 74/103/40
f 45/121/49 50/122/50 56/123/51 39/124/52
f 38/125/53 99/126/54 97/127/55 40/128/56
f 41/129/57 53/130/58 47/131/59 42/132/60
f 96/133/61 47/134/62 53/135/62 97/136/63
f 45/137/64 52/138/65 51/139/66 44/140/67
f 43/141/68 49/142/69 48/143/70 42/144/71
f 41/145/72 55/146/73 54/147/74 40/148/75
f 39/124/52 56/123/51 99/126/54 38/125/53
f 43/149/76 96/150/77 98/151/78 44/152/79
f 50/153/62 98/154/80 99/155/81 56/156/62
f 49/142/69 43/141/68 44/140/67 51/139/66
f 57/157/82 39/158/83 38/159/84 58/160/85
f 53/130/58 41/129/57 40/128/56 97/127/55
f 96/150/77 43/149/76 42/132/60 47/131/59
f 50/122/50 45/121/49 44/152/79 98/151/78
f 55/146/73 41/145/72 42/144/71 48/143/70
f 58/160/85 38/159/84 40/148/75 54/147/74
f 52/138/65 45/137/64 39/158/83 57/157/82
f 1/161/86 60/162/87 59/163/88
f 1/161/86 59/163/88 61/164/89
f 1/161/86 61/164/89 62/165/90
f 1/161/86 62/165/90 63/166/91
f 1/161/86 63/166/91 64/167/92
f 1/161/86 64/167/92 65/168/93
f 1/161/86 65/168/93 66/169/94
f 1/161/86 66/169/94 67/170/95
f 1/161/86 67/170/95 68/171/96
f 1/161/86 68/171/96 69/172/97
f 1/161/86 69/172/97 70/173/98
f 1/161/86 70/173/98 60/162/87
f 78/174/99 77/175/100 89/176/100 90/177/99
f 82/178/101 81/179/102 93/180/102 94/181/101
f 73/182/103 72/183/104 84/184/104 85/185/103
f 71/186/105 82/178/101 94/181/101 83/187/105
f 77/175/100 76/188/106 88/189/106 89/176/100
f 81/179/102 80/190/107 92/191/107 93/180/102
f 72/183/104 71/186/105 83/187/105 84/184/104
f 76/188/106 75/192/108 87/193/108 88/189/106
f 80/190/107 79/194/109 91/195/109 92/191/107
f 75/192/108 74/196/110 86/197/110 87/193/108
f 79/194/109 78/174/99 90/177/99 91/195/109
f 74/196/110 73/182/103 85/185/103 86/197/110
f 95/198/62 84/199/62 83/200/62
f 95/198/62 85/201/62 84/199/62
f 95/198/62 86/202/62 85/201/62
f 95/198/62 87/203/62 86/202/62
f 95/198/62 88/204/62 87/203/62
f 95/198/62 89/205/62 88/204/62
f 95/198/62 90/206/62 89/205/62
f 95/198/62 91/207/62 90/206/62
f 95/198/62 92/208/62 91/207/62
f 95/198/62 93/209/62 92/208/62
f 95/198/62 94/210/62 93/209/62
f 95/198/62 83/200/62 94/210/62
f 46/211/62 96/133/61 97/136/63
f 46/212/62 99/155/81 98/154/80
f 46/211/62 98/154/80 96/133/61
f 46/212/62 97/136/63 99/155/81
f 2/213/2 100/4/2 101/214/12 5/215/12
f 5/215/12 101/214/12 103/216/3 8/217/3
f 32/218/11 111/219/11 102/220/1 35/221/1
f 29/222/10 110/24/10 111/219/11 32/218/11
f 26/223/9 109/224/9 110/25/10 29/225/10
f 23/226/8 108/227/8 109/224/9 26/223/9
f 20/228/7 107/16/7 108/227/8 23/226/8
f 17/229/6 106/230/6 107/17/7 20/231/7
f 14/232/5 105/233/5 106/230/6 17/229/6
f 11/234/4 104/8/4 105/233/5 14/232/5
f 8/217/3 103/216/3 104/9/4 11/235/4
f 35/221/1 102/220/1 100/31/2 2/236/2
