# Blender v3.4.1 OBJ File: 'Prototype_Bits_Export.blend'
# www.blender.org
mtllib Door_B.mtl
o Door_B_Cube.16501
v 1.600000 0.000000 -0.100000
v 1.600000 0.000000 0.100000
v -0.000000 0.000000 -0.100000
v 0.000000 0.000000 0.100000
v 1.600000 2.800000 -0.100000
v 1.600000 2.800000 0.100000
v -0.000000 2.800000 -0.100000
v 0.000000 2.800000 0.100000
v 0.100000 2.700000 -0.100000
v 1.500000 2.700000 -0.100000
v 1.500000 0.100000 -0.100000
v 0.100000 0.100000 -0.100000
v 0.100000 0.100000 0.100000
v 1.500000 0.100000 0.100000
v 1.500000 2.700000 0.100000
v 0.100000 2.700000 0.100000
v 1.470000 0.130000 0.150000
v 0.130000 0.130000 0.150000
v 0.130000 2.670000 0.150000
v 1.470000 2.670000 0.150000
v 1.470000 2.670000 -0.150000
v 0.130000 2.670000 -0.150000
v 0.130000 0.130000 -0.150000
v 1.470000 0.130000 -0.150000
v 0.178231 1.000000 0.262767
v 1.421745 1.000000 0.262767
v 0.178231 0.956539 0.280769
v 1.421745 0.956539 0.280769
v 0.178231 0.938537 0.324230
v 1.421745 0.938537 0.324230
v 0.178231 0.956539 0.367691
v 1.421745 0.956539 0.367691
v 0.178231 1.000000 0.385693
v 1.421745 1.000000 0.385693
v 0.178231 1.043461 0.367691
v 1.421745 1.043461 0.367691
v 0.178231 1.061463 0.324230
v 1.421745 1.061463 0.324230
v 0.178231 1.043461 0.280769
v 1.421745 1.043461 0.280769
v 0.258921 0.965787 0.345572
v 0.258921 1.047920 0.345572
v 0.258921 1.078370 0.089978
v 0.258921 1.160503 0.089978
v 0.341054 0.965787 0.345572
v 0.341054 1.047920 0.345572
v 0.341054 1.078370 0.089978
v 0.341054 1.160503 0.089978
v 1.258921 0.965787 0.345572
v 1.258921 1.047920 0.345572
v 1.258921 1.078370 0.089978
v 1.258921 1.160503 0.089978
v 1.341054 0.965787 0.345572
v 1.341054 1.047920 0.345572
v 1.341054 1.078370 0.089978
v 1.341054 1.160503 0.089978
v 0.154404 1.000000 0.324230
v 1.445571 1.000000 0.324230
v 1.406199 0.000000 0.200000
v 1.352298 0.000000 0.200000
v 1.352298 2.800000 0.200000
v 1.406199 2.800000 0.200000
v 1.416989 0.000000 0.100000
v 1.341509 0.000000 0.100000
v 1.341509 2.800000 0.100000
v 1.416989 2.800000 0.100000
v 1.172345 1.449416 0.174572
v 0.427645 1.449416 0.174572
v 0.427645 1.679302 0.174572
v 1.172345 1.679302 0.174572
v 1.172345 1.449416 0.121349
v 0.427645 1.449416 0.121349
v 0.427645 1.679302 0.121349
v 1.172345 1.679302 0.121349
v 1.071047 1.780572 0.174572
v 0.528929 1.780572 0.174572
v 0.799988 2.212026 0.174572
v 1.071047 1.780572 0.044547
v 0.528929 1.780572 0.044547
v 0.799988 2.212026 0.044547
v 1.428196 2.388726 0.226305
v 1.428196 2.455612 0.226305
v 1.450738 2.455612 0.100000
v 1.450738 2.388726 0.100000
v 1.428196 0.344388 0.226305
v 1.428196 0.411274 0.226305
v 1.450738 0.411274 0.100000
v 1.450738 0.344388 0.100000
v 1.352298 2.384195 0.200000
v 1.352298 2.460144 0.200000
v 1.352298 0.339856 0.200000
v 1.352298 0.415806 0.200000
v 1.406199 2.460144 0.200000
v 1.406199 2.384195 0.200000
v 1.406199 0.415806 0.200000
v 1.406199 0.339856 0.200000
v 1.341509 2.384195 0.100000
v 1.341509 2.460144 0.100000
v 1.341509 0.339857 0.100000
v 1.341509 0.415806 0.100000
v 1.416989 2.460144 0.100000
v 1.416989 2.384195 0.100000
v 1.416989 0.415806 0.100000
v 1.416989 0.339857 0.100000
v 1.307760 2.455612 0.100000
v 1.307760 2.388726 0.100000
v 1.330301 2.388726 0.226305
v 1.330301 2.455612 0.226305
v 1.307760 0.411274 0.100000
v 1.307760 0.344388 0.100000
v 1.330301 0.344388 0.226305
v 1.330301 0.411274 0.226305
vt 0.900446 0.775152
vt 0.900446 0.864628
vt 0.900446 0.864628
vt 0.900446 0.775152
vt 0.938676 0.903426
vt 0.938676 0.903426
vt 0.900446 0.903426
vt 0.900446 0.903426
vt 0.938676 0.762219
vt 0.900446 0.762219
vt 0.900446 0.762219
vt 0.938676 0.762219
vt 0.938676 0.775152
vt 0.938676 0.775152
vt 0.938676 0.864628
vt 0.938676 0.864628
vt 0.936287 0.791280
vt 0.902835 0.791280
vt 0.902835 0.791280
vt 0.936287 0.791280
vt 0.936287 0.806905
vt 0.936287 0.889990
vt 0.936287 0.889990
vt 0.936287 0.806905
vt 0.900446 0.877560
vt 0.938676 0.877560
vt 0.936287 0.874365
vt 0.902835 0.874365
vt 0.938676 0.788085
vt 0.900446 0.788085
vt 0.900446 0.788085
vt 0.938676 0.788085
vt 0.936287 0.791280
vt 0.902835 0.791280
vt 0.938676 0.877560
vt 0.936287 0.874365
vt 0.900446 0.877560
vt 0.902835 0.874365
vt 0.902835 0.791280
vt 0.936287 0.791280
vt 0.936287 0.874365
vt 0.902835 0.874365
vt 0.902835 0.775655
vt 0.936287 0.775655
vt 0.936287 0.775655
vt 0.902835 0.775655
vt 0.936287 0.905615
vt 0.902835 0.905615
vt 0.902835 0.905615
vt 0.936287 0.905615
vt 0.902835 0.889990
vt 0.902835 0.806905
vt 0.902835 0.806905
vt 0.902835 0.889990
vt 0.902835 0.874365
vt 0.936287 0.874365
vt 0.279831 0.846837
vt 0.325667 0.846837
vt 0.325667 0.838405
vt 0.279831 0.838405
vt 0.325667 0.834912
vt 0.279831 0.834912
vt 0.325667 0.838405
vt 0.279831 0.838405
vt 0.325667 0.846837
vt 0.279831 0.846837
vt 0.325667 0.902145
vt 0.279831 0.902145
vt 0.325667 0.905638
vt 0.279831 0.905638
vt 0.325667 0.855270
vt 0.279831 0.855270
vt 0.282804 0.807619
vt 0.282804 0.823555
vt 0.282804 0.846729
vt 0.282804 0.830793
vt 0.322694 0.830793
vt 0.322694 0.846729
vt 0.322694 0.823555
vt 0.322694 0.807619
vt 0.285834 0.830793
vt 0.285834 0.846729
vt 0.285834 0.823555
vt 0.285834 0.807619
vt 0.319665 0.807619
vt 0.319665 0.823555
vt 0.319665 0.846729
vt 0.319665 0.830793
vt 0.285834 0.877979
vt 0.282804 0.877979
vt 0.282804 0.854805
vt 0.285834 0.854805
vt 0.322694 0.877979
vt 0.319665 0.877979
vt 0.319665 0.854805
vt 0.322694 0.854805
vt 0.279831 0.846837
vt 0.279831 0.839143
vt 0.279831 0.835956
vt 0.279831 0.854531
vt 0.279831 0.857718
vt 0.325667 0.839030
vt 0.325667 0.846837
vt 0.325667 0.854644
vt 0.325667 0.857878
vt 0.325667 0.835796
vt 0.277835 0.791280
vt 0.311287 0.791280
vt 0.311287 0.814731
vt 0.277835 0.814731
vt 0.311287 0.905615
vt 0.311287 0.905615
vt 0.277835 0.905615
vt 0.277835 0.905615
vt 0.311287 0.835289
vt 0.311287 0.835289
vt 0.311287 0.858740
vt 0.311287 0.858740
vt 0.311287 0.803864
vt 0.311287 0.803864
vt 0.311287 0.830530
vt 0.311287 0.830531
vt 0.277835 0.760030
vt 0.277835 0.760030
vt 0.311287 0.760030
vt 0.311287 0.760030
vt 0.149335 0.829462
vt 0.204139 0.829462
vt 0.204139 0.895659
vt 0.149335 0.895659
vt 0.204139 0.829462
vt 0.204139 0.895659
vt 0.149335 0.829462
vt 0.149335 0.895659
vt 0.896880 0.931169
vt 0.917532 0.931169
vt 0.896880 0.945367
vt 0.917532 0.931169
vt 0.917532 0.945367
vt 0.917532 0.945367
vt 0.896880 0.931169
vt 0.896880 0.945367
vt 0.311287 0.819489
vt 0.311287 0.819489
vt 0.311287 0.814731
vt 0.311287 0.814731
vt 0.311287 0.775655
vt 0.311287 0.775655
vt 0.311287 0.799106
vt 0.311287 0.799106
vt 0.277835 0.819489
vt 0.311287 0.819489
vt 0.311287 0.846155
vt 0.277835 0.846156
vt 0.277835 0.850914
vt 0.311287 0.850914
vt 0.311287 0.874365
vt 0.277835 0.874365
vt 0.277835 0.799106
vt 0.277835 0.799106
vt 0.277835 0.775655
vt 0.277835 0.775655
vt 0.277835 0.830531
vt 0.277835 0.830531
vt 0.277835 0.803864
vt 0.277835 0.803865
vt 0.311287 0.850739
vt 0.311287 0.850739
vt 0.311287 0.850739
vt 0.311287 0.850739
vt 0.277835 0.850740
vt 0.277835 0.850739
vt 0.277835 0.850739
vt 0.277835 0.850740
vt 0.311287 0.814906
vt 0.311287 0.814905
vt 0.311287 0.814905
vt 0.311287 0.814906
vt 0.277835 0.783481
vt 0.277835 0.783481
vt 0.277835 0.783481
vt 0.277835 0.783481
vt 0.277835 0.858740
vt 0.277835 0.858740
vt 0.277835 0.835289
vt 0.277835 0.835289
vt 0.311287 0.850914
vt 0.311287 0.850914
vt 0.311287 0.846156
vt 0.311287 0.846155
vt 0.277835 0.846156
vt 0.277835 0.846156
vt 0.277835 0.850914
vt 0.277835 0.850914
vt 0.277835 0.814731
vt 0.277835 0.814731
vt 0.277835 0.819490
vt 0.277835 0.819489
vt 0.277835 0.814906
vt 0.277835 0.814906
vt 0.277835 0.814906
vt 0.277835 0.814906
vt 0.311287 0.783481
vt 0.311287 0.783481
vt 0.311287 0.783481
vt 0.311287 0.783481
vt 0.311287 0.882164
vt 0.277835 0.882164
vt 0.277835 0.882164
vt 0.311287 0.882164
vt 0.277835 0.882164
vt 0.277835 0.882164
vt 0.311287 0.882164
vt 0.311287 0.882164
vn -1.0000 0.0000 0.0000
vn 0.0000 1.0000 0.0000
vn 0.0000 -1.0000 0.0000
vn 1.0000 0.0000 -0.0000
vn 0.0000 -0.8575 -0.5145
vn 0.8575 0.0000 0.5145
vn 0.0000 0.0000 -1.0000
vn -0.0000 0.0000 1.0000
vn 0.0000 -0.8575 0.5145
vn 0.0000 0.8575 0.5145
vn -0.8575 0.0000 0.5145
vn -0.8575 0.0000 -0.5145
vn 0.8575 0.0000 -0.5145
vn 0.0000 0.8575 -0.5145
vn 0.0000 -0.7071 -0.7071
vn 0.0000 -0.9239 -0.3827
vn 0.0000 -0.9239 0.3827
vn 0.0000 -0.3827 0.9239
vn 0.0000 0.3827 0.9239
vn 0.0000 0.9239 0.3827
vn 0.0000 0.9239 -0.3827
vn 0.0000 0.3827 -0.9239
vn 0.0000 -0.9152 -0.4031
vn 0.0000 0.9152 0.4031
vn -0.9324 -0.0000 -0.3614
vn -0.9324 -0.2556 -0.2556
vn -0.9324 -0.3614 -0.0000
vn -0.9324 -0.2556 0.2556
vn -0.9324 -0.0000 0.3614
vn -0.9324 0.2556 0.2556
vn -0.9324 0.3614 -0.0000
vn -0.9324 0.2556 -0.2556
vn 0.9324 -0.2556 -0.2556
vn 0.9324 -0.0000 -0.3614
vn 0.9324 0.2556 -0.2556
vn 0.9324 0.3614 -0.0000
vn 0.9324 0.2556 0.2556
vn 0.9324 0.0000 0.3614
vn 0.9324 -0.2556 0.2556
vn 0.9324 -0.3614 -0.0000
vn 0.9942 0.0000 0.1073
vn 0.8468 0.5320 0.0000
vn -0.8468 0.5320 0.0000
vn 0.9844 0.0000 0.1757
vn -0.9942 0.0000 0.1073
vn 0.1502 0.9884 0.0221
vn 0.0767 0.9925 0.0954
vn 0.0755 0.9925 0.0965
vn -0.0767 0.9925 0.0954
vn -0.1502 0.9884 0.0221
vn -0.0755 0.9925 0.0965
vn 0.0767 -0.9925 0.0954
vn 0.1502 -0.9884 0.0221
vn 0.0755 -0.9925 0.0965
vn -0.1502 -0.9884 0.0221
vn -0.0767 -0.9925 0.0954
vn -0.0755 -0.9925 0.0965
vn -0.9844 0.0000 0.1757
usemtl prototype_texture
s 1
f 4/1/1 8/2/1 7/3/1 3/4/1
f 6/5/2 5/6/2 7/7/2 8/8/2
f 2/9/3 4/10/3 3/11/3 1/12/3
f 2/13/4 1/14/4 5/15/4 6/16/4
f 11/17/5 12/18/5 23/19/5 24/20/5
f 14/21/6 15/22/6 20/23/6 17/24/6
f 7/25/7 5/26/7 10/27/7 9/28/7
f 5/26/7 1/29/7 11/17/7 10/27/7
f 1/29/7 3/30/7 12/18/7 11/17/7
f 3/30/7 7/25/7 9/28/7 12/18/7
f 4/31/8 2/32/8 14/33/8 13/34/8
f 2/32/8 6/35/8 15/36/8 14/33/8
f 6/35/8 8/37/8 16/38/8 15/36/8
f 8/37/8 4/31/8 13/34/8 16/38/8
f 18/39/8 17/40/8 20/41/8 19/42/8
f 13/43/9 14/44/9 17/45/9 18/46/9
f 15/47/10 16/48/10 19/49/10 20/50/10
f 16/51/11 13/52/11 18/53/11 19/54/11
f 22/55/7 21/56/7 24/20/7 23/19/7
f 12/18/12 9/28/12 22/55/12 23/19/12
f 10/27/13 11/17/13 24/20/13 21/56/13
f 9/28/14 10/27/14 21/56/14 22/55/14
f 25/57/7 26/58/7 28/59/15 27/60/15
f 27/60/15 28/59/15 30/61/16 29/62/16
f 29/62/17 30/61/17 32/63/17 31/64/17
f 31/64/18 32/63/18 34/65/8 33/66/8
f 33/66/8 34/65/8 36/67/19 35/68/19
f 35/68/20 36/67/20 38/69/20 37/70/20
f 37/70/21 38/69/21 40/71/21 39/72/21
f 39/72/22 40/71/22 26/58/7 25/57/7
f 41/73/1 42/74/1 44/75/1 43/76/1
f 55/77/4 56/78/4 54/79/4 53/80/4
f 47/81/4 48/82/4 46/83/4 45/84/4
f 49/85/1 50/86/1 52/87/1 51/88/1
f 43/76/23 47/81/23 45/84/23 41/73/23
f 48/89/24 44/90/24 42/91/24 46/92/24
f 51/88/23 55/77/23 53/80/23 49/85/23
f 56/93/24 52/94/24 50/95/24 54/96/24
f 25/57/25 27/60/26 57/97/1
f 27/60/26 29/62/27 57/98/1
f 29/62/27 31/64/28 57/99/1
f 31/64/28 33/66/29 57/98/1
f 33/66/29 35/68/30 57/97/1
f 35/68/30 37/70/31 57/100/1
f 37/70/31 39/72/32 57/101/1
f 39/72/32 25/57/25 57/100/1
f 28/59/33 26/58/34 58/102/4
f 26/58/34 40/71/35 58/103/4
f 40/71/35 38/69/36 58/104/4
f 38/69/36 36/67/37 58/105/4
f 36/67/37 34/65/38 58/104/4
f 34/65/38 32/63/39 58/103/4
f 32/63/39 30/61/40 58/102/4
f 30/61/40 28/59/33 58/106/4
f 60/107/8 59/108/8 96/109/8 91/110/8
f 62/111/2 66/112/2 65/113/2 61/114/2
f 93/115/41 101/116/41 66/117/41 62/118/41
f 95/119/41 103/120/41 102/121/41 94/122/41
f 60/123/3 64/124/3 63/125/3 59/126/3
f 68/127/8 67/128/8 70/129/8 69/130/8
f 67/128/4 71/131/4 74/132/4 70/129/4
f 68/127/3 72/133/3 71/131/3 67/128/3
f 70/129/2 74/132/2 73/134/2 69/130/2
f 69/130/1 73/134/1 72/133/1 68/127/1
f 76/135/8 75/136/8 77/137/8
f 75/136/42 78/138/42 80/139/42 77/140/42
f 76/135/3 79/141/3 78/138/3 75/136/3
f 77/137/43 80/142/43 79/141/43 76/135/43
f 87/143/44 86/144/44 85/145/44 88/146/44
f 59/147/41 63/148/41 104/149/41 96/150/41
f 92/151/8 95/152/8 94/153/8 89/154/8
f 90/155/8 93/156/8 62/157/8 61/158/8
f 91/159/45 99/160/45 64/161/45 60/162/45
f 89/163/45 97/164/45 100/165/45 92/166/45
f 103/167/46 95/168/47 86/169/48 87/170/46
f 92/171/49 100/172/50 109/173/50 112/174/51
f 94/175/52 102/176/53 84/177/53 81/178/54
f 99/179/55 91/180/56 111/181/57 110/182/55
f 61/183/45 65/184/45 98/185/45 90/186/45
f 83/187/44 82/188/44 81/189/44 84/190/44
f 106/191/58 107/192/58 108/193/58 105/194/58
f 110/195/58 111/196/58 112/197/58 109/198/58
f 86/144/8 112/197/8 111/196/8 85/145/8
f 82/188/8 108/193/8 107/192/8 81/189/8
f 95/168/47 92/171/49 112/174/51 86/169/48
f 97/199/55 89/200/56 107/201/57 106/202/55
f 91/180/56 96/203/52 85/204/54 111/181/57
f 96/203/52 104/205/53 88/206/53 85/204/54
f 93/207/47 90/208/49 108/209/51 82/210/48
f 90/208/49 98/211/50 105/212/50 108/209/51
f 89/200/56 94/175/52 81/178/54 107/201/57
f 101/213/46 93/207/47 82/210/48 83/214/46
