# Blender v3.4.1 OBJ File: 'Prototype_Bits_Export.blend'
# www.blender.org
mtllib Floor.mtl
o Floor_Cube.16273
v -2.000000 0.000000 2.000000
v -2.000000 0.000000 -2.000000
v 2.000000 0.000000 2.000000
v 2.000000 0.000000 -2.000000
v -1.900000 0.500000 1.900000
v -2.000000 0.400000 2.000000
v -1.900000 0.500000 -1.900000
v -2.000000 0.400000 -2.000000
v 1.900000 0.500000 1.900000
v 2.000000 0.400000 2.000000
v 1.900000 0.500000 -1.900000
v 2.000000 0.400000 -2.000000
v -1.700000 0.500000 1.700000
v 1.700000 0.500000 1.700000
v 1.700000 0.500000 -1.700000
v -1.700000 0.500000 -1.700000
v -1.100000 0.500000 1.100000
v 1.100000 0.500000 1.100000
v 1.100000 0.500000 -1.100000
v -1.100000 0.500000 -1.100000
v -0.900000 0.500000 0.900000
v 0.900000 0.500000 0.900000
v 0.900000 0.500000 -0.900000
v -0.900000 0.500000 -0.900000
v -2.000000 0.250000 2.000000
v -2.000000 0.250000 -2.000000
v 2.000000 0.250000 2.000000
v 2.000000 0.250000 -2.000000
vt 0.267907 0.825583
vt 0.331865 0.845809
vt 0.331865 0.835766
vt 0.267907 0.815539
vt 0.267907 0.795312
vt 0.331865 0.795312
vt 0.331865 0.795312
vt 0.267907 0.795312
vt 0.410496 0.941783
vt 0.439277 0.941783
vt 0.439277 0.941783
vt 0.410496 0.941783
vt 0.267907 0.845809
vt 0.267907 0.835766
vt 0.331865 0.815539
vt 0.331865 0.825583
vt 0.331865 0.825583
vt 0.331865 0.845809
vt 0.331865 0.835766
vt 0.331865 0.815539
vt 0.394506 0.860875
vt 0.394506 0.881102
vt 0.392907 0.876080
vt 0.392907 0.855853
vt 0.455266 0.860875
vt 0.394506 0.881102
vt 0.392907 0.876080
vt 0.456865 0.855853
vt 0.394506 0.860875
vt 0.455266 0.881102
vt 0.456865 0.876080
vt 0.392907 0.855853
vt 0.455266 0.860875
vt 0.455266 0.881102
vt 0.456865 0.876080
vt 0.456865 0.855853
vt 0.267907 0.825583
vt 0.267907 0.845809
vt 0.267907 0.835766
vt 0.267907 0.815539
vt 0.394506 0.901329
vt 0.455266 0.901329
vt 0.452068 0.901329
vt 0.397704 0.901329
vt 0.455266 0.901329
vt 0.452068 0.901329
vt 0.394506 0.901329
vt 0.397704 0.901329
vt 0.397704 0.941783
vt 0.452068 0.941783
vt 0.442475 0.941783
vt 0.407298 0.941783
vt 0.452068 0.941783
vt 0.442475 0.941783
vt 0.397704 0.941783
vt 0.407298 0.941783
vt 0.407298 0.901329
vt 0.442475 0.901329
vt 0.439277 0.901329
vt 0.410496 0.901329
vt 0.442475 0.901329
vt 0.439277 0.901329
vt 0.407298 0.901329
vt 0.410496 0.901329
vt 0.392907 0.835626
vt 0.392907 0.845809
vt 0.392907 0.825583
vt 0.456865 0.835626
vt 0.456865 0.845809
vt 0.456865 0.825583
vt 0.392907 0.845809
vt 0.456865 0.825583
vt 0.456865 0.835626
vt 0.392907 0.835626
vt 0.456865 0.845809
vt 0.392907 0.825583
vn 0.0000 0.0000 -1.0000
vn 0.0000 -1.0000 0.0000
vn 0.0000 1.0000 0.0000
vn 0.0000 0.0000 1.0000
vn 1.0000 0.0000 0.0000
vn -0.7071 0.7071 0.0000
vn 0.0000 0.7071 0.7071
vn 0.0000 0.7071 -0.7071
vn 0.7071 0.7071 0.0000
vn -1.0000 0.0000 0.0000
usemtl prototype_texture
s 1
f 26/1/1 28/2/1 4/3/1 2/4/1
f 2/5/2 4/6/2 3/7/2 1/8/2
f 21/9/3 22/10/3 23/11/3 24/12/3
f 25/13/4 1/14/4 3/15/4 27/16/4
f 28/17/5 27/18/5 3/19/5 4/20/5
f 5/21/6 7/22/6 8/23/6 6/24/6
f 9/25/7 5/26/7 6/27/7 10/28/7
f 7/29/8 11/30/8 12/31/8 8/32/8
f 11/33/9 9/34/9 10/35/9 12/36/9
f 25/37/10 26/38/10 2/39/10 1/40/10
f 5/41/3 9/42/3 14/43/3 13/44/3
f 9/42/3 11/45/3 15/46/3 14/43/3
f 11/45/3 7/47/3 16/48/3 15/46/3
f 7/47/3 5/41/3 13/44/3 16/48/3
f 13/49/3 14/50/3 18/51/3 17/52/3
f 14/50/3 15/53/3 19/54/3 18/51/3
f 15/53/3 16/55/3 20/56/3 19/54/3
f 16/55/3 13/49/3 17/52/3 20/56/3
f 17/57/3 18/58/3 22/59/3 21/60/3
f 18/58/3 19/61/3 23/62/3 22/59/3
f 19/61/3 20/63/3 24/64/3 23/62/3
f 20/63/3 17/57/3 21/60/3 24/64/3
f 6/65/10 8/32/10 26/66/10 25/67/10
f 12/68/5 10/28/5 27/69/5 28/70/5
f 6/24/4 25/71/4 27/72/4 10/73/4
f 8/74/1 12/36/1 28/75/1 26/76/1
