# Blender v3.4.1 OBJ File: 'Prototype_Bits_Export.blend'
# www.blender.org
mtllib Primitive_Stairs.mtl
o Primitive_Stairs_Cube.16426
v -2.000000 0.000000 2.000000
v -2.000000 0.000000 -2.000000
v -1.500000 4.000000 2.000000
v -1.500000 4.000000 -2.000000
v 2.000000 0.500000 -2.000000
v 2.000000 0.500000 2.000000
v -1.000000 3.500000 -2.000000
v -0.500000 3.000000 -2.000000
v 0.000000 2.500000 -2.000000
v 0.500000 2.000000 -2.000000
v 1.000000 1.500000 -2.000000
v 1.500000 1.000000 -2.000000
v -1.000000 3.500000 2.000000
v -0.500000 3.000000 2.000000
v 0.000000 2.500000 2.000000
v 0.500000 2.000000 2.000000
v 1.000000 1.500000 2.000000
v 1.500000 1.000000 2.000000
v 2.000000 0.000000 -2.000000
v -2.000000 4.000000 -2.000000
v -1.500000 3.500000 -2.000000
v -1.000000 3.000000 -2.000000
v -0.500000 2.500000 -2.000000
v 0.000000 2.000000 -2.000000
v 0.500000 1.500000 -2.000000
v 1.000000 1.000000 -2.000000
v 1.500000 0.500000 -2.000000
v 2.000000 0.000000 2.000000
v -2.000000 4.000000 2.000000
v -1.500000 3.500000 2.000000
v -1.000000 3.000000 2.000000
v -0.500000 2.500000 2.000000
v 0.000000 2.000000 2.000000
v 0.500000 1.500000 2.000000
v 1.000000 1.000000 2.000000
v 1.500000 0.500000 2.000000
vt 0.097284 0.822825
vt 0.097284 0.822825
vt 0.097284 0.805433
vt 0.097284 0.805433
vt 0.027716 0.975818
vt 0.036413 0.975818
vt 0.036413 0.975818
vt 0.027716 0.975818
vt 0.027716 0.774183
vt 0.097284 0.774183
vt 0.097284 0.774183
vt 0.027716 0.774183
vt 0.036413 0.958426
vt 0.027716 0.944568
vt 0.027716 0.805433
vt 0.027716 0.805433
vt 0.027716 0.944568
vt 0.097284 0.854075
vt 0.088587 0.854075
vt 0.088587 0.854075
vt 0.097284 0.854075
vt 0.088587 0.840217
vt 0.088587 0.840217
vt 0.088587 0.822825
vt 0.088587 0.822825
vt 0.079892 0.871467
vt 0.088587 0.871467
vt 0.088587 0.871467
vt 0.079892 0.871467
vt 0.079892 0.857609
vt 0.079892 0.857609
vt 0.079892 0.840217
vt 0.079892 0.840217
vt 0.071197 0.888859
vt 0.079892 0.888859
vt 0.079892 0.888859
vt 0.071197 0.888859
vt 0.071197 0.875001
vt 0.071197 0.875001
vt 0.071197 0.857609
vt 0.071197 0.857609
vt 0.062500 0.906251
vt 0.071197 0.906251
vt 0.071197 0.906251
vt 0.062500 0.906251
vt 0.062500 0.892392
vt 0.062500 0.892392
vt 0.062500 0.875001
vt 0.062500 0.875001
vt 0.053805 0.923642
vt 0.062500 0.923642
vt 0.062500 0.923642
vt 0.053805 0.923642
vt 0.053805 0.909784
vt 0.053805 0.909784
vt 0.053805 0.892392
vt 0.053805 0.892392
vt 0.045108 0.941034
vt 0.053805 0.941034
vt 0.053805 0.941034
vt 0.045108 0.941034
vt 0.045108 0.927176
vt 0.045108 0.927176
vt 0.045108 0.909784
vt 0.045108 0.909784
vt 0.036413 0.958426
vt 0.045108 0.958426
vt 0.045108 0.958426
vt 0.036413 0.927176
vt 0.036413 0.927176
vn 1.0000 0.0000 0.0000
vn 0.0000 1.0000 0.0000
vn 0.0000 -1.0000 0.0000
vn 0.0000 0.0000 -1.0000
vn -1.0000 0.0000 0.0000
vn 0.0000 0.0000 1.0000
usemtl prototype_texture
s 1
f 5/1/1 6/2/1 28/3/1 19/4/1
f 29/5/2 3/6/2 4/7/2 20/8/2
f 2/9/3 19/10/3 28/11/3 1/12/3
f 20/8/4 4/7/4 21/13/4
f 20/14/5 2/15/5 1/16/5 29/17/5
f 5/18/2 27/19/2 36/20/2 6/21/2
f 12/22/1 18/23/1 36/24/1 27/25/1
f 35/26/2 18/27/2 12/28/2 26/29/2
f 11/30/1 17/31/1 35/32/1 26/33/1
f 34/34/2 17/35/2 11/36/2 25/37/2
f 10/38/1 16/39/1 34/40/1 25/41/1
f 33/42/2 16/43/2 10/44/2 24/45/2
f 9/46/1 15/47/1 33/48/1 24/49/1
f 32/50/2 15/51/2 9/52/2 23/53/2
f 8/54/1 14/55/1 32/56/1 23/57/1
f 31/58/2 14/59/2 8/60/2 22/61/2
f 7/62/1 13/63/1 31/64/1 22/65/1
f 30/66/2 13/67/2 7/68/2 21/13/2
f 4/7/1 3/6/1 30/66/1 21/13/1
f 29/5/6 30/66/6 3/6/6
f 30/69/6 31/64/6 13/63/6
f 31/64/6 32/56/6 14/55/6
f 32/56/6 33/48/6 15/47/6
f 33/48/6 34/40/6 16/39/6
f 34/40/6 35/32/6 17/31/6
f 36/24/6 18/23/6 35/32/6
f 6/2/6 36/24/6 28/3/6
f 22/65/4 21/70/4 7/62/4
f 23/57/4 22/65/4 8/54/4
f 24/49/4 23/57/4 9/46/4
f 25/41/4 24/49/4 10/38/4
f 26/33/4 25/41/4 11/30/4
f 27/25/4 26/33/4 12/22/4
f 19/4/4 27/25/4 5/1/4
f 2/15/4 20/14/4 21/70/4
f 2/15/4 21/70/4 22/65/4
f 2/15/4 22/65/4 23/57/4
f 2/15/4 23/57/4 24/49/4
f 2/15/4 24/49/4 25/41/4
f 2/15/4 25/41/4 26/33/4
f 2/15/4 26/33/4 27/25/4
f 2/15/4 27/25/4 19/4/4
f 1/16/6 30/69/6 29/17/6
f 1/16/6 31/64/6 30/69/6
f 1/16/6 32/56/6 31/64/6
f 1/16/6 33/48/6 32/56/6
f 1/16/6 34/40/6 33/48/6
f 1/16/6 35/32/6 34/40/6
f 1/16/6 36/24/6 35/32/6
f 1/16/6 28/3/6 36/24/6
