# Blender v3.4.1 OBJ File: 'Prototype_Bits_Export.blend'
# www.blender.org
mtllib target_small.mtl
o target_small_Cube.16109
v -0.050000 -0.000000 0.050000
v -0.050000 0.900000 0.050000
v -0.050000 -0.000000 -0.000000
v -0.050000 0.900000 -0.000000
v 0.050000 -0.000000 0.050000
v 0.050000 0.900000 0.050000
v 0.050000 -0.000000 -0.000000
v 0.050000 0.900000 -0.000000
v 0.000049 1.084754 0.050000
v 0.117426 1.053303 0.050000
v 0.203352 0.967377 0.050000
v 0.234803 0.850000 0.050000
v 0.203352 0.732623 0.050000
v 0.117426 0.646697 0.050000
v 0.000049 0.615246 0.050000
v -0.117328 0.646697 0.050000
v -0.203255 0.732623 0.050000
v -0.234706 0.850000 0.050000
v -0.203255 0.967377 0.050000
v -0.117328 1.053303 0.050000
v 0.000049 0.850000 0.050000
v 0.074734 0.979364 0.150000
v 0.000046 0.999376 0.150000
v -0.074642 0.979364 0.150000
v -0.129318 0.924688 0.150000
v -0.149330 0.850000 0.150000
v -0.129318 0.775312 0.150000
v -0.074642 0.720637 0.150000
v 0.000046 0.700624 0.150000
v 0.074734 0.720637 0.150000
v 0.129409 0.775312 0.150000
v 0.149422 0.850000 0.150000
v 0.129409 0.924688 0.150000
v 0.033440 0.907836 0.150000
v 0.000049 0.916783 0.150000
v -0.033343 0.907836 0.150000
v -0.057787 0.883392 0.150000
v -0.066734 0.850000 0.150000
v -0.057787 0.816608 0.150000
v -0.033343 0.792164 0.150000
v 0.000049 0.783217 0.150000
v 0.033440 0.792164 0.150000
v 0.057885 0.816608 0.150000
v 0.066832 0.850000 0.150000
v 0.057885 0.883392 0.150000
v 0.000049 0.850000 0.150000
v 0.000049 1.100000 0.130592
v 0.000049 1.078051 0.150000
v 0.114075 1.047498 0.150000
v 0.125049 1.066506 0.130592
v 0.197547 0.964026 0.150000
v 0.216555 0.975000 0.130592
v 0.228100 0.850000 0.150000
v 0.250049 0.850000 0.130592
v 0.197547 0.735974 0.150000
v 0.216555 0.725000 0.130592
v 0.114075 0.652502 0.150000
v 0.125049 0.633494 0.130592
v 0.000049 0.621948 0.150000
v 0.000049 0.600000 0.130592
v -0.113977 0.652502 0.150000
v -0.124951 0.633494 0.130592
v -0.197450 0.735974 0.150000
v -0.216458 0.725000 0.130592
v -0.228003 0.850000 0.150000
v -0.249951 0.850000 0.130592
v -0.197450 0.964026 0.150000
v -0.216458 0.975000 0.130592
v -0.113977 1.047498 0.150000
v -0.124951 1.066506 0.130592
vt 0.797011 0.790604
vt 0.797011 0.896895
vt 0.797011 0.896895
vt 0.797011 0.790604
vt 0.797011 0.821854
vt 0.797011 0.928145
vt 0.810294 0.928145
vt 0.810294 0.821854
vt 0.810294 0.790604
vt 0.810294 0.896895
vt 0.810294 0.896895
vt 0.810294 0.790604
vt 0.810294 0.821854
vt 0.810294 0.928145
vt 0.797011 0.928145
vt 0.797011 0.821854
vt 0.810294 0.959395
vt 0.797011 0.959395
vt 0.797011 0.959395
vt 0.810294 0.959395
vt 0.159695 0.902708
vt 0.159695 0.902708
vt 0.174114 0.912028
vt 0.174114 0.912028
vt 0.947791 0.886651
vt 0.937784 0.915181
vt 0.933716 0.895098
vt 0.940748 0.875056
vt 0.951456 0.847679
vt 0.943320 0.847679
vt 0.947791 0.808706
vt 0.940748 0.820301
vt 0.937784 0.780177
vt 0.933716 0.800260
vt 0.924114 0.769734
vt 0.924114 0.792924
vt 0.910442 0.780177
vt 0.914512 0.800260
vt 0.900435 0.808706
vt 0.907478 0.820301
vt 0.896772 0.847679
vt 0.904906 0.847679
vt 0.900435 0.886651
vt 0.907478 0.875056
vt 0.910442 0.915181
vt 0.914512 0.895098
vt 0.924114 0.925623
vt 0.924114 0.902434
vt 0.174114 0.966591
vt 0.188530 0.957270
vt 0.174114 0.897019
vt 0.199083 0.931805
vt 0.202949 0.897019
vt 0.199083 0.862233
vt 0.188530 0.836767
vt 0.174114 0.827446
vt 0.159695 0.836767
vt 0.149143 0.862233
vt 0.145279 0.897019
vt 0.149143 0.931805
vt 0.159695 0.957270
vt 0.188530 0.902708
vt 0.188530 0.902708
vt 0.199083 0.877242
vt 0.199083 0.877242
vt 0.149143 0.877242
vt 0.149143 0.877242
vt 0.145279 0.842456
vt 0.145279 0.842456
vt 0.149143 0.807670
vt 0.149143 0.807670
vt 0.159695 0.782205
vt 0.159695 0.782205
vt 0.174114 0.772884
vt 0.174114 0.772884
vt 0.188530 0.782205
vt 0.188530 0.782205
vt 0.199083 0.807670
vt 0.199083 0.807670
vt 0.202949 0.842456
vt 0.202949 0.842456
vt 0.183716 0.937154
vt 0.174114 0.943363
vt 0.174114 0.915604
vt 0.177965 0.913114
vt 0.164512 0.937154
vt 0.170263 0.913114
vt 0.157478 0.920191
vt 0.167444 0.906311
vt 0.154906 0.897019
vt 0.166412 0.897019
vt 0.157478 0.873847
vt 0.167444 0.887726
vt 0.164512 0.856884
vt 0.170263 0.880924
vt 0.174114 0.850675
vt 0.174114 0.878434
vt 0.183716 0.856884
vt 0.177965 0.880924
vt 0.190748 0.873847
vt 0.180784 0.887726
vt 0.193320 0.897019
vt 0.181814 0.897019
vt 0.190748 0.920191
vt 0.180784 0.906311
vt 0.927965 0.866695
vt 0.924114 0.869637
vt 0.924114 0.847679
vt 0.920263 0.866695
vt 0.917444 0.858658
vt 0.916412 0.847679
vt 0.917444 0.836700
vt 0.920263 0.828662
vt 0.924114 0.825721
vt 0.927965 0.828662
vt 0.930784 0.836700
vt 0.931814 0.847679
vt 0.930784 0.858658
vt 0.938530 0.977955
vt 0.924114 0.988967
vt 0.924487 0.988682
vt 0.938157 0.978240
vt 0.949083 0.947867
vt 0.938803 0.977176
vt 0.948810 0.948646
vt 0.952949 0.906768
vt 0.949183 0.946804
vt 0.952849 0.907831
vt 0.949083 0.865668
vt 0.952849 0.905704
vt 0.949183 0.866731
vt 0.938530 0.835581
vt 0.948810 0.864889
vt 0.938803 0.836359
vt 0.924114 0.824568
vt 0.938157 0.835295
vt 0.924487 0.824853
vt 0.909695 0.835581
vt 0.923741 0.824853
vt 0.910069 0.835295
vt 0.899143 0.865668
vt 0.909422 0.836359
vt 0.899416 0.864889
vt 0.895279 0.906768
vt 0.899043 0.866731
vt 0.895379 0.905704
vt 0.899143 0.947867
vt 0.895379 0.907831
vt 0.899043 0.946804
vt 0.909695 0.977955
vt 0.899416 0.948646
vt 0.909422 0.977176
vt 0.910069 0.978240
vt 0.923741 0.988682
vn -1.0000 0.0000 0.0000
vn 0.0000 0.0000 -1.0000
vn 1.0000 0.0000 0.0000
vn 0.0000 0.0000 1.0000
vn 0.0000 -1.0000 0.0000
vn 0.0000 1.0000 0.0000
vn -0.2546 0.9502 -0.1797
vn 0.2546 0.9502 -0.1797
vn 0.6956 0.6956 -0.1797
vn -0.6956 0.6956 -0.1797
vn -0.9502 0.2546 -0.1797
vn -0.9502 -0.2546 -0.1797
vn -0.6956 -0.6956 -0.1797
vn -0.2546 -0.9502 -0.1797
vn 0.2546 -0.9502 -0.1797
vn 0.6956 -0.6956 -0.1797
vn 0.9502 -0.2546 -0.1797
vn 0.9502 0.2546 -0.1797
vn 0.1748 0.6522 0.7376
vn 0.4775 0.4775 0.7376
vn 0.6522 0.1748 0.7376
vn 0.6522 -0.1748 0.7376
vn 0.4775 -0.4775 0.7376
vn 0.1748 -0.6522 0.7376
vn -0.1748 -0.6522 0.7376
vn -0.4775 -0.4775 0.7376
vn -0.6522 -0.1748 0.7376
vn -0.6522 0.1748 0.7376
vn -0.4775 0.4775 0.7376
vn -0.1748 0.6522 0.7376
usemtl prototype_texture
s off
f 1/1/1 2/2/1 4/3/1 3/4/1
f 3/5/2 4/6/2 8/7/2 7/8/2
f 7/9/3 8/10/3 6/11/3 5/12/3
f 5/13/4 6/14/4 2/15/4 1/16/4
f 3/4/5 7/9/5 5/12/5 1/1/5
f 8/17/6 4/18/6 2/19/6 6/20/6
f 20/21/7 70/22/7 47/23/7 9/24/7
f 51/25/4 49/26/4 22/27/4 33/28/4
f 53/29/4 51/25/4 33/28/4 32/30/4
f 55/31/4 53/29/4 32/30/4 31/32/4
f 57/33/4 55/31/4 31/32/4 30/34/4
f 59/35/4 57/33/4 30/34/4 29/36/4
f 61/37/4 59/35/4 29/36/4 28/38/4
f 63/39/4 61/37/4 28/38/4 27/40/4
f 65/41/4 63/39/4 27/40/4 26/42/4
f 67/43/4 65/41/4 26/42/4 25/44/4
f 69/45/4 67/43/4 25/44/4 24/46/4
f 48/47/4 69/45/4 24/46/4 23/48/4
f 9/49/2 10/50/2 21/51/2
f 10/50/2 11/52/2 21/51/2
f 11/52/2 12/53/2 21/51/2
f 12/53/2 13/54/2 21/51/2
f 13/54/2 14/55/2 21/51/2
f 14/55/2 15/56/2 21/51/2
f 15/56/2 16/57/2 21/51/2
f 16/57/2 17/58/2 21/51/2
f 17/58/2 18/59/2 21/51/2
f 18/59/2 19/60/2 21/51/2
f 19/60/2 20/61/2 21/51/2
f 20/61/2 9/49/2 21/51/2
f 9/24/8 47/23/8 50/62/8 10/63/8
f 10/63/9 50/62/9 52/64/9 11/65/9
f 19/66/10 68/67/10 70/22/10 20/21/10
f 18/68/11 66/69/11 68/67/11 19/66/11
f 17/70/12 64/71/12 66/69/12 18/68/12
f 16/72/13 62/73/13 64/71/13 17/70/13
f 15/74/14 60/75/14 62/73/14 16/72/14
f 14/76/15 58/77/15 60/75/15 15/74/15
f 13/78/16 56/79/16 58/77/16 14/76/16
f 12/80/17 54/81/17 56/79/17 13/78/17
f 11/65/18 52/64/18 54/81/18 12/80/18
f 22/82/4 23/83/4 35/84/4 34/85/4
f 23/83/4 24/86/4 36/87/4 35/84/4
f 24/86/4 25/88/4 37/89/4 36/87/4
f 25/88/4 26/90/4 38/91/4 37/89/4
f 26/90/4 27/92/4 39/93/4 38/91/4
f 27/92/4 28/94/4 40/95/4 39/93/4
f 28/94/4 29/96/4 41/97/4 40/95/4
f 29/96/4 30/98/4 42/99/4 41/97/4
f 30/98/4 31/100/4 43/101/4 42/99/4
f 31/100/4 32/102/4 44/103/4 43/101/4
f 32/102/4 33/104/4 45/105/4 44/103/4
f 33/104/4 22/82/4 34/85/4 45/105/4
f 34/106/4 35/107/4 46/108/4
f 35/107/4 36/109/4 46/108/4
f 36/109/4 37/110/4 46/108/4
f 37/110/4 38/111/4 46/108/4
f 38/111/4 39/112/4 46/108/4
f 39/112/4 40/113/4 46/108/4
f 40/113/4 41/114/4 46/108/4
f 41/114/4 42/115/4 46/108/4
f 42/115/4 43/116/4 46/108/4
f 43/116/4 44/117/4 46/108/4
f 44/117/4 45/118/4 46/108/4
f 45/118/4 34/106/4 46/108/4
f 50/119/19 47/120/19 48/121/19 49/122/19
f 52/123/20 50/119/20 49/124/20 51/125/20
f 54/126/21 52/123/21 51/127/21 53/128/21
f 56/129/22 54/126/22 53/130/22 55/131/22
f 58/132/23 56/129/23 55/133/23 57/134/23
f 60/135/24 58/132/24 57/136/24 59/137/24
f 62/138/25 60/135/25 59/139/25 61/140/25
f 64/141/26 62/138/26 61/142/26 63/143/26
f 66/144/27 64/141/27 63/145/27 65/146/27
f 68/147/28 66/144/28 65/148/28 67/149/28
f 70/150/29 68/147/29 67/151/29 69/152/29
f 47/120/30 70/150/30 69/153/30 48/154/30
f 49/26/4 48/47/4 23/48/4 22/27/4
