# Blender v3.4.1 OBJ File: 'Prototype_Bits_Export.blend'
# www.blender.org
mtllib target_pieces_A.mtl
o target_pieces_A_Cylinder.269
v 0.000000 0.469509 0.000000
v 0.234755 0.406607 0.000000
v -0.000000 0.000000 0.000000
v 0.000000 0.500000 0.161184
v 0.250000 0.433013 0.161184
v 0.000000 0.456103 0.200000
v 0.228051 0.394997 0.200000
v -0.000006 0.298752 0.200000
v 0.149370 0.258727 0.200000
v -0.000000 0.133566 0.200000
v 0.066783 0.115672 0.200000
v 0.000000 -0.000000 0.200000
v 0.115672 0.066783 0.200000
v 0.258721 0.149376 0.200000
v 0.394997 0.228051 0.200000
v 0.433013 0.250000 0.161184
v 0.406607 0.234755 0.000000
vt 0.174114 0.912028
vt 0.174114 0.912028
vt 0.188530 0.902708
vt 0.188530 0.902708
vt 0.174114 0.966591
vt 0.188530 0.957270
vt 0.174114 0.897019
vt 0.938530 0.977955
vt 0.924114 0.988967
vt 0.924487 0.988682
vt 0.938157 0.978240
vt 0.937784 0.915181
vt 0.924114 0.925623
vt 0.924114 0.902434
vt 0.933716 0.895098
vt 0.183716 0.937154
vt 0.174114 0.943363
vt 0.174114 0.915604
vt 0.177965 0.913114
vt 0.927965 0.866695
vt 0.924114 0.869637
vt 0.924114 0.847679
vt 0.930784 0.858658
vt 0.190748 0.920191
vt 0.180784 0.906311
vt 0.947791 0.886651
vt 0.940748 0.875056
vt 0.949083 0.947867
vt 0.938803 0.977176
vt 0.948810 0.948646
vt 0.199083 0.877242
vt 0.199083 0.877242
vt 0.199083 0.931805
vt 0.310850 0.963335
vt 0.310850 0.966020
vt 0.310850 0.963335
vt 0.310850 0.969340
vt 0.310850 0.972503
vt 0.310850 0.973386
vt 0.310850 0.972773
vt 0.313949 0.968054
vt 0.314150 0.968360
vt 0.313861 0.967919
vt 0.312822 0.966338
vt 0.311731 0.964677
vn 0.2546 0.9502 -0.1797
vn 0.0000 0.0000 -1.0000
vn 0.1748 0.6522 0.7376
vn 0.0000 0.0000 1.0000
vn 0.4775 0.4775 0.7376
vn 0.6956 0.6956 -0.1797
vn -1.0000 -0.0000 0.0000
vn -1.0000 0.0000 -0.0001
vn 0.5000 -0.8660 -0.0000
usemtl prototype_texture
s off
f 1/1/1 4/2/1 5/3/1 2/4/1
f 1/5/2 2/6/2 3/7/2
f 5/8/3 4/9/3 6/10/3 7/11/3
f 7/12/4 6/13/4 8/14/4 9/15/4
f 9/16/4 8/17/4 10/18/4 11/19/4
f 11/20/4 10/21/4 12/22/4
f 13/23/4 11/20/4 12/22/4
f 14/24/4 9/16/4 11/19/4 13/25/4
f 15/26/4 7/12/4 9/15/4 14/27/4
f 16/28/5 5/8/5 7/29/5 15/30/5
f 2/4/6 5/3/6 16/31/6 17/32/6
f 2/6/2 17/33/2 3/7/2
f 12/34/7 10/35/7 3/36/7
f 10/35/7 8/37/7 3/36/7
f 8/37/8 6/38/8 3/36/8
f 6/38/7 4/39/7 3/36/7
f 4/39/7 1/40/7 3/36/7
f 17/41/9 16/42/9 3/36/9
f 16/42/9 15/43/9 3/36/9
f 15/43/9 14/44/9 3/36/9
f 14/44/9 13/45/9 3/36/9
f 13/45/9 12/34/9 3/36/9
