# Blender v3.4.1 OBJ File: 'Prototype_Bits_Export.blend'
# www.blender.org
mtllib target_stand_B.mtl
o target_stand_B_Cube.16113
v -0.500000 1.000000 0.100000
v -0.500000 1.000000 -0.000000
v 0.500000 1.000000 0.100000
v 0.500000 1.000000 -0.000000
v -0.400000 2.000000 0.100000
v -0.500000 1.900000 0.100000
v -0.500000 1.900000 -0.000000
v -0.400000 2.000000 -0.000000
v 0.500000 1.900000 0.100000
v 0.400000 2.000000 0.100000
v 0.400000 2.000000 -0.000000
v 0.500000 1.900000 -0.000000
v -0.400000 0.700000 -0.000000
v -0.500000 0.800000 -0.000000
v -0.500000 0.800000 0.100000
v -0.400000 0.700000 0.100000
v 0.500000 0.800000 -0.000000
v 0.400000 0.700000 -0.000000
v 0.400000 0.700000 0.100000
v 0.500000 0.800000 0.100000
v -0.300000 1.900000 -0.200000
v -0.400000 1.800000 -0.200000
v 0.400000 1.800000 -0.200000
v 0.300000 1.900000 -0.200000
v -0.400000 0.900000 -0.200000
v -0.300000 0.800000 -0.200000
v 0.300000 0.800000 -0.200000
v 0.400000 0.900000 -0.200000
v -0.400000 1.000000 0.100000
v 0.400000 0.800000 0.100000
v 0.400000 1.000000 0.100000
v -0.350000 0.800000 0.150000
v -0.400000 0.850000 0.150000
v -0.400000 0.800000 0.100050
v -0.350000 1.000000 0.150000
v -0.400000 0.950000 0.150000
v 0.350000 0.800000 0.150000
v 0.400000 0.850000 0.150000
v 0.400000 0.950000 0.150000
v 0.350000 1.000000 0.150000
v 0.200000 0.100000 -0.800000
v 0.200000 1.400000 -0.200000
v 0.200000 0.100000 -1.000000
v 0.200000 1.700000 -0.200000
v 0.300000 0.100000 -0.800000
v 0.300000 1.400000 -0.200000
v 0.300000 0.100000 -1.000000
v 0.300000 1.700000 -0.200000
v -0.300000 0.100000 -0.800000
v -0.300000 1.400000 -0.200000
v -0.300000 0.100000 -1.000000
v -0.300000 1.700000 -0.200000
v -0.200000 0.100000 -0.800000
v -0.200000 1.400000 -0.200000
v -0.200000 0.100000 -1.000000
v -0.200000 1.700000 -0.200000
v -0.200000 0.588422 -0.622906
v -0.200000 0.772622 -0.544994
v -0.200000 0.627378 -0.715006
v -0.200000 0.811578 -0.637094
v 0.200000 0.588422 -0.622906
v 0.200000 0.772622 -0.544994
v 0.200000 0.627378 -0.715006
v 0.200000 0.811578 -0.637094
v 0.200000 0.100000 -0.100001
v 0.200000 0.750000 -0.100001
v 0.200000 0.100000 -0.200001
v 0.200000 0.800000 -0.200001
v 0.300000 0.100000 -0.100001
v 0.300000 0.750000 -0.100001
v 0.300000 0.100000 -0.200001
v 0.300000 0.800000 -0.200001
v -0.300000 0.100000 -0.100001
v -0.300000 0.750000 -0.100001
v -0.300000 0.100000 -0.200001
v -0.300000 0.800000 -0.200001
v -0.200000 0.100000 -0.100001
v -0.200000 0.750000 -0.100001
v -0.200000 0.100000 -0.200001
v -0.200000 0.800000 -0.200001
v -0.400000 0.600001 0.100000
v -0.500000 0.500000 0.100000
v -0.500000 0.500000 0.000000
v -0.400000 0.600001 0.000000
v 0.500000 0.500000 0.100000
v 0.400000 0.600001 0.100000
v 0.400000 0.600001 0.000000
v 0.500000 0.500000 0.000000
v -0.400000 0.200001 0.000000
v -0.500000 0.300001 0.000000
v -0.500000 0.300001 0.100000
v -0.400000 0.200001 0.100000
v 0.500000 0.300001 0.000000
v 0.400000 0.200001 0.000000
v 0.400000 0.200001 0.100000
v 0.500000 0.300001 0.100000
v -0.300000 0.500000 -0.100000
v -0.400000 0.400001 -0.100000
v 0.400000 0.400001 -0.100000
v 0.300000 0.500000 -0.100000
v -0.300000 0.300001 -0.100000
v 0.300000 0.300001 -0.100000
v -0.400000 0.500001 0.100000
v 0.400000 0.300001 0.100000
v 0.400000 0.500001 0.100000
v -0.350000 0.300001 0.150000
v -0.400000 0.350001 0.150000
v -0.400000 0.300001 0.100050
v -0.350000 0.500001 0.150000
v -0.400000 0.450001 0.150000
v 0.350000 0.300001 0.150000
v 0.400000 0.350001 0.150000
v 0.400000 0.450001 0.150000
v 0.350000 0.500001 0.150000
v -0.400000 0.000000 0.400000
v -0.400000 0.000000 -0.400000
v 0.400000 0.000000 0.400000
v 0.400000 0.000000 -0.400000
v -0.350000 0.100000 0.350000
v -0.400000 0.050000 0.400000
v -0.350000 0.100000 -0.350000
v -0.400000 0.050000 -0.400000
v 0.350000 0.100000 0.350000
v 0.400000 0.050000 0.400000
v 0.350000 0.100000 -0.350000
v 0.400000 0.050000 -0.400000
v -0.400000 0.000000 -0.700001
v -0.400000 0.000000 -1.100001
v 0.400000 0.000000 -0.700001
v 0.400000 0.000000 -1.100001
v -0.350000 0.100000 -0.750001
v -0.400000 0.050000 -0.700001
v -0.350000 0.100000 -1.050001
v -0.400000 0.050000 -1.100001
v 0.350000 0.100000 -0.750001
v 0.400000 0.050000 -0.700001
v 0.350000 0.100000 -1.050001
v 0.400000 0.050000 -1.100001
vt 0.201500 0.470625
vt 0.048500 0.470625
vt 0.048500 0.470625
vt 0.201500 0.470625
vt 0.029375 0.279375
vt 0.029375 0.279375
vt 0.029375 0.279375
vt 0.029375 0.279375
vt 0.029375 0.451500
vt 0.029375 0.451500
vt 0.220625 0.279375
vt 0.220625 0.451500
vt 0.220625 0.279375
vt 0.220625 0.451500
vt 0.220625 0.279375
vt 0.048500 0.279375
vt 0.201500 0.279375
vt 0.220625 0.279375
vt 0.048500 0.279375
vt 0.201500 0.279375
vt 0.329380 0.780915
vt 0.323370 0.772168
vt 0.317357 0.780915
vt 0.323370 0.789662
vt 0.275278 0.772168
vt 0.281291 0.780915
vt 0.329380 0.831528
vt 0.329380 0.796540
vt 0.323370 0.805287
vt 0.275278 0.965874
vt 0.323370 0.965874
vt 0.317357 0.957127
vt 0.281291 0.957127
vt 0.281291 0.925877
vt 0.317357 0.925877
vt 0.323370 0.917130
vt 0.275278 0.917130
vt 0.329380 0.910252
vt 0.323370 0.901505
vt 0.275278 0.820912
vt 0.323370 0.820912
vt 0.317357 0.812165
vt 0.281291 0.812165
vt 0.323370 0.950249
vt 0.329380 0.941502
vt 0.323370 0.932755
vt 0.317357 0.941502
vt 0.269268 0.780915
vt 0.275278 0.789662
vt 0.269268 0.941502
vt 0.275278 0.950249
vt 0.281291 0.941502
vt 0.275278 0.932755
vt 0.275278 0.901505
vt 0.275278 0.805287
vt 0.269268 0.831528
vt 0.269268 0.910252
vt 0.269268 0.796540
vt 0.798924 0.787958
vt 0.792494 0.875430
vt 0.792494 0.905821
vt 0.819184 0.787958
vt 0.819184 0.819208
vt 0.792494 0.937071
vt 0.792494 0.937071
vt 0.819184 0.819208
vt 0.819184 0.787958
vt 0.792494 0.905821
vt 0.792494 0.875430
vt 0.798924 0.787958
vt 0.798924 0.819208
vt 0.792494 0.906680
vt 0.792494 0.906680
vt 0.798924 0.819208
vt 0.798924 0.787958
vt 0.792494 0.875430
vt 0.792494 0.905821
vt 0.819184 0.787958
vt 0.819184 0.819208
vt 0.792494 0.937071
vt 0.792494 0.937071
vt 0.819184 0.819208
vt 0.819184 0.787958
vt 0.792494 0.905821
vt 0.792494 0.875430
vt 0.798924 0.787958
vt 0.798924 0.819208
vt 0.792494 0.906680
vt 0.792494 0.906680
vt 0.798924 0.819208
vt 0.781538 0.848145
vt 0.781538 0.876632
vt 0.843403 0.876632
vt 0.843403 0.848145
vt 0.843403 0.842120
vt 0.843403 0.870607
vt 0.781538 0.870607
vt 0.781538 0.842120
vt 0.781538 0.816895
vt 0.843403 0.816895
vt 0.843403 0.810870
vt 0.781538 0.810870
vt 0.843403 0.907882
vt 0.781538 0.907882
vt 0.781538 0.901857
vt 0.843403 0.901857
vt 0.792615 0.787958
vt 0.792615 0.858869
vt 0.802745 0.858869
vt 0.802745 0.787958
vt 0.802745 0.819208
vt 0.802745 0.890119
vt 0.802745 0.890119
vt 0.802745 0.819208
vt 0.802745 0.787958
vt 0.802745 0.858869
vt 0.792615 0.858869
vt 0.792615 0.787958
vt 0.792615 0.819208
vt 0.792615 0.890119
vt 0.792615 0.890119
vt 0.792615 0.819208
vt 0.792615 0.787958
vt 0.792615 0.858869
vt 0.802745 0.858869
vt 0.802745 0.787958
vt 0.802745 0.819208
vt 0.802745 0.890119
vt 0.802745 0.890119
vt 0.802745 0.819208
vt 0.802745 0.787958
vt 0.802745 0.858869
vt 0.792615 0.858869
vt 0.792615 0.787958
vt 0.792615 0.819208
vt 0.792615 0.890119
vt 0.792615 0.890119
vt 0.792615 0.819208
vt 0.200036 0.903079
vt 0.167154 0.903079
vt 0.167154 0.903079
vt 0.200036 0.903079
vt 0.204144 0.894603
vt 0.204144 0.792896
vt 0.204144 0.792896
vt 0.204144 0.894603
vt 0.329380 0.839372
vt 0.329380 0.804920
vt 0.323370 0.836722
vt 0.163044 0.925853
vt 0.163044 0.824146
vt 0.204144 0.824146
vt 0.204144 0.925853
vt 0.167154 0.815670
vt 0.200036 0.815670
vt 0.167154 0.784420
vt 0.200036 0.784420
vt 0.200036 0.784420
vt 0.167154 0.784420
vt 0.163044 0.894603
vt 0.163044 0.894603
vt 0.163044 0.792896
vt 0.163044 0.792896
vt 0.200036 0.934329
vt 0.167154 0.934329
vt 0.329380 0.812165
vt 0.323370 0.803418
vt 0.317357 0.812165
vt 0.323370 0.820912
vt 0.275278 0.803418
vt 0.281291 0.812165
vt 0.269268 0.804920
vt 0.269268 0.839372
vt 0.275278 0.807570
vt 0.275278 0.887749
vt 0.323370 0.887749
vt 0.317357 0.879002
vt 0.281291 0.879002
vt 0.281291 0.847752
vt 0.317357 0.847752
vt 0.323370 0.839005
vt 0.275278 0.839005
vt 0.275278 0.836537
vt 0.323370 0.836537
vt 0.317357 0.827790
vt 0.281291 0.827790
vt 0.323370 0.872124
vt 0.329380 0.863377
vt 0.323370 0.854630
vt 0.317357 0.863377
vt 0.269268 0.812165
vt 0.275278 0.820912
vt 0.269268 0.863377
vt 0.275278 0.872124
vt 0.281291 0.863377
vt 0.275278 0.854630
vt 0.336205 0.883936
vt 0.269263 0.883936
vt 0.269263 0.883936
vt 0.336205 0.883936
vt 0.340992 0.827498
vt 0.340992 0.832280
vt 0.340992 0.832280
vt 0.340992 0.827498
vt 0.264476 0.827498
vt 0.264476 0.832280
vt 0.264476 0.832280
vt 0.264476 0.827498
vt 0.264476 0.796248
vt 0.340992 0.796248
vt 0.340992 0.796248
vt 0.264476 0.796248
vt 0.269263 0.868311
vt 0.269263 0.868311
vt 0.264476 0.863530
vt 0.264476 0.863530
vt 0.336205 0.868311
vt 0.340992 0.863530
vt 0.336205 0.868311
vt 0.340992 0.863530
vt 0.336205 0.883936
vt 0.269263 0.883936
vt 0.269263 0.883936
vt 0.336205 0.883936
vt 0.340992 0.827498
vt 0.340992 0.832280
vt 0.340992 0.832280
vt 0.340992 0.827498
vt 0.264476 0.827498
vt 0.264476 0.832280
vt 0.264476 0.832280
vt 0.264476 0.827498
vt 0.264476 0.796248
vt 0.340992 0.796248
vt 0.340992 0.796248
vt 0.264476 0.796248
vt 0.269263 0.868311
vt 0.269263 0.868311
vt 0.264476 0.863530
vt 0.264476 0.863530
vt 0.336205 0.868311
vt 0.340992 0.863530
vt 0.336205 0.868311
vt 0.340992 0.863530
vt 0.278979 0.818970
vt 0.278979 0.931028
vt 0.264646 0.909163
vt 0.264646 0.840835
vt 0.329104 0.907172
vt 0.329104 0.885307
vt 0.329104 0.816980
vt 0.329104 0.795115
vt 0.314771 0.931028
vt 0.314771 0.818970
vt 0.264646 0.795115
vt 0.264646 0.816980
vt 0.264646 0.885307
vt 0.264646 0.907172
vt 0.264646 0.978739
vt 0.278979 0.978739
vt 0.314771 0.978739
vt 0.329104 0.978739
vt 0.278979 0.795115
vt 0.278979 0.954883
vt 0.264646 0.954883
vt 0.264646 0.933018
vt 0.314771 0.795115
vt 0.329104 0.933018
vt 0.329104 0.954883
vt 0.314771 0.954883
vt 0.329104 0.771259
vt 0.314771 0.771259
vt 0.278979 0.771259
vt 0.264646 0.771259
vt 0.329104 0.909163
vt 0.329104 0.840835
vt 0.278979 0.818970
vt 0.278979 0.931028
vt 0.264646 0.909163
vt 0.264646 0.840835
vt 0.329104 0.907172
vt 0.329104 0.885307
vt 0.329104 0.816980
vt 0.329104 0.795115
vt 0.314771 0.931028
vt 0.314771 0.818970
vt 0.264646 0.795115
vt 0.264646 0.816980
vt 0.264646 0.885307
vt 0.264646 0.907172
vt 0.264646 0.978739
vt 0.278979 0.978739
vt 0.314771 0.978739
vt 0.329104 0.978739
vt 0.278979 0.795115
vt 0.278979 0.954883
vt 0.264646 0.954883
vt 0.264646 0.933018
vt 0.314771 0.795115
vt 0.329104 0.933018
vt 0.329104 0.954883
vt 0.314771 0.954883
vt 0.329104 0.771259
vt 0.314771 0.771259
vt 0.278979 0.771259
vt 0.264646 0.771259
vt 0.329104 0.909163
vt 0.329104 0.840835
vn 0.0000 1.0000 0.0000
vn -1.0000 0.0000 0.0000
vn 0.0000 0.0000 1.0000
vn 1.0000 0.0000 0.0000
vn 0.0000 -1.0000 0.0000
vn -0.7071 0.7071 0.0000
vn 0.7071 0.7071 0.0000
vn -0.7071 -0.7071 0.0000
vn 0.7071 -0.7071 0.0000
vn 0.5774 -0.5774 -0.5774
vn 0.0000 -0.8944 -0.4472
vn 0.8944 0.0000 -0.4472
vn 0.0000 0.8944 -0.4472
vn 0.0000 0.0000 -1.0000
vn 0.5774 0.5773 -0.5774
vn -0.5774 -0.5774 -0.5774
vn -0.5774 0.5773 -0.5774
vn -0.8944 0.0000 -0.4472
vn 0.0000 0.4472 -0.8944
vn 0.0000 -0.4191 0.9080
vn 0.0000 0.3896 -0.9210
vn 0.0000 -0.3896 0.9210
vn 0.0000 -0.9210 -0.3896
vn 0.0000 0.9210 0.3896
vn 0.7071 0.0000 -0.7071
vn 0.4082 -0.4082 -0.8165
vn 0.0000 -0.7071 -0.7071
vn -0.7071 0.0000 -0.7071
vn 0.0000 0.7071 -0.7071
vn 0.4082 0.4082 -0.8165
vn -0.4082 -0.4082 -0.8165
vn -0.4082 0.4082 -0.8165
vn 0.0000 0.7071 0.7071
vn -0.5772 -0.5772 0.5777
vn -0.5773 0.5774 0.5774
vn 0.5774 -0.5774 0.5773
vn 0.5773 0.5774 0.5774
vn 0.5773 -0.5774 0.5774
usemtl prototype_texture
s off
f 11/1/1 8/2/1 5/3/1 10/4/1
f 1/5/2 2/6/2 14/7/2 15/8/2
f 1/5/2 6/9/2 7/10/2 2/6/2
f 3/11/3 9/12/3 6/9/3 1/5/3
f 4/13/4 12/14/4 9/12/4 3/11/4
f 20/15/3 15/8/3 16/16/3 19/17/3
f 4/13/4 3/11/4 20/15/4 17/18/4
f 13/19/5 18/20/5 19/17/5 16/16/5
f 5/3/6 8/2/6 7/10/6 6/9/6
f 11/1/7 10/4/7 9/12/7 12/14/7
f 13/19/8 16/16/8 15/8/8 14/7/8
f 19/17/9 18/20/9 17/18/9 20/15/9
f 9/12/3 10/4/3 5/3/3 6/9/3
f 3/11/3 1/5/3 15/8/3 20/15/3
f 17/21/10 18/22/10 27/23/10 28/24/10
f 18/22/11 13/25/11 26/26/11 27/23/11
f 4/27/12 17/28/12 28/29/12
f 8/30/13 11/31/13 24/32/13 21/33/13
f 21/34/14 24/35/14 23/36/14 22/37/14
f 12/38/12 4/27/12 28/29/12 23/39/12
f 25/40/14 28/41/14 27/42/14 26/43/14
f 11/44/15 12/45/15 23/46/15 24/47/15
f 13/25/16 14/48/16 25/49/16 26/26/16
f 7/50/17 8/51/17 21/52/17 22/53/17
f 22/54/18 25/55/18 2/56/18 7/57/18
f 14/58/18 2/56/18 25/55/18
f 23/36/14 28/41/14 25/40/14 22/37/14
f 41/59/2 42/60/2 44/61/2 43/62/2
f 43/63/19 44/64/19 48/65/19 47/66/19
f 47/67/4 48/68/4 46/69/4 45/70/4
f 45/71/20 46/72/20 42/73/20 41/74/20
f 49/75/2 50/76/2 52/77/2 51/78/2
f 51/79/19 52/80/19 56/81/19 55/82/19
f 55/83/4 56/84/4 54/85/4 53/86/4
f 53/87/20 54/88/20 50/89/20 49/90/20
f 59/91/21 60/92/21 64/93/21 63/94/21
f 61/95/22 62/96/22 58/97/22 57/98/22
f 59/99/23 63/100/23 61/101/23 57/102/23
f 64/103/24 60/104/24 58/105/24 62/106/24
f 65/107/2 66/108/2 68/109/2 67/110/2
f 67/111/14 68/112/14 72/113/14 71/114/14
f 71/115/4 72/116/4 70/117/4 69/118/4
f 69/119/3 70/120/3 66/121/3 65/122/3
f 73/123/2 74/124/2 76/125/2 75/126/2
f 75/127/14 76/128/14 80/129/14 79/130/14
f 79/131/4 80/132/4 78/133/4 77/134/4
f 77/135/3 78/136/3 74/137/3 73/138/3
f 87/139/1 84/140/1 81/141/1 86/142/1
f 85/143/4 96/144/4 93/145/4 88/146/4
f 88/147/25 93/148/25 99/149/25
f 82/150/3 91/151/3 96/152/3 85/153/3
f 96/152/3 91/151/3 92/154/3 95/155/3
f 89/156/5 94/157/5 95/158/5 92/159/5
f 81/141/6 84/140/6 83/160/6 82/161/6
f 87/139/7 86/142/7 85/143/7 88/146/7
f 89/156/8 92/159/8 91/162/8 90/163/8
f 95/158/9 94/157/9 93/145/9 96/144/9
f 85/153/3 86/164/3 81/165/3 82/150/3
f 93/166/26 94/167/26 102/168/26 99/169/26
f 94/167/27 89/170/27 101/171/27 102/168/27
f 90/172/28 83/173/28 98/174/28
f 84/175/29 87/176/29 100/177/29 97/178/29
f 97/179/14 100/180/14 99/181/14 98/182/14
f 98/183/14 99/184/14 102/185/14 101/186/14
f 87/187/30 88/188/30 99/189/30 100/190/30
f 89/170/31 90/191/31 98/192/31 101/171/31
f 83/193/32 84/194/32 97/195/32 98/196/32
f 82/161/2 83/160/2 90/163/2 91/162/2
f 125/197/1 121/198/1 119/199/1 123/200/1
f 118/201/4 126/202/4 124/203/4 117/204/4
f 115/205/2 120/206/2 122/207/2 116/208/2
f 116/209/5 118/210/5 117/211/5 115/212/5
f 116/208/14 122/207/14 126/202/14 118/201/14
f 119/213/6 121/214/6 122/215/6 120/216/6
f 121/214/29 125/217/29 126/218/29 122/215/29
f 125/217/7 123/219/7 124/220/7 126/218/7
f 123/219/33 119/213/33 120/216/33 124/220/33
f 117/204/3 124/203/3 120/206/3 115/205/3
f 137/221/1 133/222/1 131/223/1 135/224/1
f 130/225/4 138/226/4 136/227/4 129/228/4
f 127/229/2 132/230/2 134/231/2 128/232/2
f 128/233/5 130/234/5 129/235/5 127/236/5
f 128/232/14 134/231/14 138/226/14 130/225/14
f 131/237/6 133/238/6 134/239/6 132/240/6
f 133/238/29 137/241/29 138/242/29 134/239/29
f 137/241/7 135/243/7 136/244/7 138/242/7
f 135/243/33 131/237/33 132/240/33 136/244/33
f 129/228/3 136/227/3 132/230/3 127/229/3
s 1
f 32/245/3 35/246/3 36/247/3 33/248/3
f 31/249/4 39/250/4 38/251/4 30/252/4
f 40/253/3 35/246/3 32/245/3 37/254/3
f 34/255/2 33/256/2 36/257/2 29/258/2
f 29/259/1 35/260/1 40/261/1 31/262/1
f 32/263/34 33/256/34 34/255/34
f 35/264/35 29/265/35 36/266/35
f 37/267/36 30/252/36 38/251/36
f 39/268/37 31/269/37 40/270/37
f 30/271/5 37/272/5 32/273/5 34/274/5
f 39/275/3 40/253/3 37/254/3 38/276/3
f 106/277/3 109/278/3 110/279/3 107/280/3
f 105/281/4 113/282/4 112/283/4 104/284/4
f 114/285/3 109/278/3 106/277/3 111/286/3
f 108/287/2 107/288/2 110/289/2 103/290/2
f 103/291/1 109/292/1 114/293/1 105/294/1
f 106/295/34 107/288/34 108/287/34
f 109/296/35 103/297/35 110/298/35
f 111/299/38 104/284/38 112/283/38
f 113/300/37 105/301/37 114/302/37
f 104/303/5 111/304/5 106/305/5 108/306/5
f 113/307/3 114/285/3 111/286/3 112/308/3
