# Blender v3.4.1 OBJ File: 'Prototype_Bits_Export.blend'
# www.blender.org
mtllib Wall_Window_Closed.mtl
o Wall_Window_Closed_Cube.16096
v -1.900000 0.000000 0.250000
v -2.000000 0.100000 0.136724
v -2.000000 3.900000 0.136724
v -1.900000 4.000000 0.250000
v 2.000000 0.100000 0.136724
v 1.900000 0.000000 0.250000
v 1.900000 4.000000 0.250000
v 2.000000 3.900000 0.136724
v 1.899999 0.000000 -0.250000
v 2.000000 0.100000 -0.136723
v 2.000000 3.900000 -0.136723
v 1.899999 4.000000 -0.250000
v -2.000000 0.100000 -0.136724
v -1.900000 0.000000 -0.250000
v -1.900000 4.000000 -0.250000
v -2.000000 3.900000 -0.136724
v -1.900000 0.800000 0.150000
v -2.000000 0.800000 0.035131
v -2.000000 0.900000 -0.136193
v -1.900000 0.900000 -0.250000
v 2.000000 0.900000 -0.136192
v 1.899999 0.900000 -0.250000
v 2.000000 0.900000 0.136193
v 1.900000 0.900000 0.250000
v -2.000000 0.900000 0.136193
v -1.900000 0.900000 0.250000
v 1.900000 0.800000 0.150000
v 2.000000 0.800000 0.035131
v 1.899999 0.800000 -0.150000
v 2.000000 0.800000 -0.035130
v 2.000000 0.700000 -0.136192
v 1.899999 0.700000 -0.250000
v -1.900000 0.700000 0.250000
v -2.000000 0.700000 0.136193
v -2.000000 0.700000 -0.136193
v -1.900000 0.700000 -0.250000
v 2.000000 0.700000 0.136193
v 1.900000 0.700000 0.250000
v -2.000000 0.800000 -0.035131
v -1.900000 0.800000 -0.150000
v 1.000000 0.000000 -0.250000
v 1.000000 0.000000 0.250000
v 1.000000 0.700000 0.250000
v 1.000000 4.000000 -0.250000
v 1.000000 4.000000 0.250000
v 1.000000 0.900000 0.250000
v 1.000000 0.700000 -0.250000
v 1.000000 0.900000 -0.250000
v 1.000000 0.800000 0.150000
v 1.000000 0.800000 -0.150000
v -1.000000 0.000000 0.250000
v -1.000000 0.700000 0.250000
v -1.000000 4.000000 -0.250000
v -1.000000 0.900000 -0.250000
v -1.000000 0.800000 -0.150000
v -1.000000 0.000000 -0.250000
v -1.000000 4.000000 0.250000
v -1.000000 0.900000 0.250000
v -1.000000 0.700000 -0.250000
v -1.000000 0.800000 0.150000
v -1.900000 3.000000 0.250000
v -2.000000 3.000000 0.136565
v 1.899999 3.000000 -0.250000
v 2.000000 3.000000 -0.136564
v -1.900000 3.000000 -0.250000
v -2.000000 3.000000 -0.136565
v 1.900000 3.000000 0.250000
v 2.000000 3.000000 0.136565
v 1.000000 3.000000 0.250000
v 1.000000 3.000000 -0.250000
v -1.000000 3.000000 0.250000
v -1.000000 3.000000 -0.250000
v -2.000000 1.000000 0.136211
v 2.000000 1.000000 -0.136211
v -1.900000 1.000000 -0.250000
v 1.900000 1.000000 0.250000
v -1.900000 1.000000 0.250000
v 1.899999 1.000000 -0.250000
v -2.000000 1.000000 -0.136212
v 2.000000 1.000000 0.136211
v 1.000000 1.000000 0.250000
v 1.000000 1.000000 -0.250000
v -1.000000 1.000000 0.250000
v -1.000000 1.000000 -0.250000
v 1.000000 1.000000 0.150000
v -1.000000 1.000000 0.150000
v 1.000000 3.000000 0.150000
v -1.000000 3.000000 0.150000
v 0.800000 1.200000 0.150000
v -0.800000 1.200000 0.150000
v 0.800000 2.800000 0.150000
v -0.800000 2.800000 0.150000
v -0.800000 2.800000 0.050000
v 0.800000 2.800000 0.050000
v -0.800000 1.200000 0.050000
v 0.800000 1.200000 0.050000
v 1.567446 1.507280 0.280000
v 1.379284 1.439491 0.280000
v 1.635234 1.319118 0.280000
v 1.447073 1.251330 0.280000
v 1.479665 1.666416 0.280000
v 1.352319 1.684807 0.280000
v 1.461273 1.539070 0.280000
v 1.333927 1.557462 0.280000
v -1.540282 2.407867 0.280000
v -1.412217 2.561487 0.280000
v -1.693903 2.535932 0.280000
v -1.565837 2.689553 0.280000
v -1.634593 2.196165 0.280000
v -1.510954 2.160548 0.280000
v -1.598976 2.319804 0.280000
v -1.475337 2.284187 0.280000
v 1.317025 3.436079 0.280000
v 1.436561 3.483684 0.280000
v 1.269419 3.555615 0.280000
v 1.388956 3.603220 0.280000
v -1.553912 0.332507 0.279999
v -1.434376 0.380112 0.279999
v -1.601518 0.452043 0.279999
v -1.481981 0.499648 0.279999
v 0.380784 0.277840 0.279999
v 0.336422 0.398617 0.279999
v 0.260006 0.233478 0.279999
v 0.215644 0.354256 0.279999
v 0.119857 0.259583 0.280000
v 0.154675 0.474225 0.280000
v -0.094786 0.294401 0.280000
v -0.059967 0.509044 0.280000
v 1.000000 1.000000 -0.150000
v -1.000000 1.000000 -0.150000
v 1.000000 3.000000 -0.150000
v -1.000000 3.000000 -0.150000
v 0.800000 1.200000 -0.150000
v -0.800000 1.200000 -0.150000
v 0.800000 2.800000 -0.150000
v -0.800000 2.800000 -0.150000
v -0.800000 2.800000 -0.050000
v 0.800000 2.800000 -0.050000
v -0.800000 1.200000 -0.050000
v 0.800000 1.200000 -0.050000
vt 0.830514 0.982782
vt 0.826911 0.977026
vt 0.826911 0.896441
vt 0.830514 0.896441
vt 0.794482 0.982782
vt 0.794482 0.896441
vt 0.798085 0.896441
vt 0.798085 0.977026
vt 0.798085 0.912066
vt 0.826911 0.912066
vt 0.826911 0.912066
vt 0.798085 0.912066
vt 0.798085 0.865191
vt 0.798085 0.865191
vt 0.798085 0.945776
vt 0.798085 0.945776
vt 0.826911 0.945776
vt 0.826911 0.945776
vt 0.826911 0.865191
vt 0.826911 0.865191
vt 0.237500 0.012500
vt 0.237500 0.237500
vt 0.012500 0.237500
vt 0.012500 0.012500
vt 0.798085 0.914526
vt 0.798085 0.914526
vt 0.826911 0.914526
vt 0.826911 0.914526
vt 0.280936 0.797767
vt 0.294478 0.797767
vt 0.294478 0.811309
vt 0.280936 0.811309
vt 0.280936 0.797767
vt 0.294478 0.797767
vt 0.294478 0.811309
vt 0.280936 0.811309
vt 0.280936 0.797767
vt 0.294478 0.797767
vt 0.294478 0.811309
vt 0.280936 0.811309
vt 0.280936 0.797767
vt 0.294478 0.797767
vt 0.294478 0.811309
vt 0.280936 0.811309
vt 0.280936 0.797767
vt 0.294478 0.797767
vt 0.294478 0.811309
vt 0.280936 0.811309
vt 0.155936 0.660000
vt 0.169478 0.660000
vt 0.169478 0.680643
vt 0.155936 0.680643
vt 0.155936 0.660000
vt 0.169478 0.660000
vt 0.169478 0.680643
vt 0.155936 0.680643
vt 0.155936 0.660000
vt 0.169478 0.660000
vt 0.169478 0.680643
vt 0.155936 0.680643
vt 0.830514 0.982782
vt 0.830514 0.896441
vt 0.826911 0.896441
vt 0.826911 0.977026
vt 0.794482 0.982782
vt 0.798085 0.977026
vt 0.798085 0.896441
vt 0.794482 0.896441
vt 0.798085 0.912066
vt 0.798085 0.912066
vt 0.826911 0.912066
vt 0.826911 0.912066
vt 0.798085 0.865191
vt 0.798085 0.945776
vt 0.798085 0.945776
vt 0.798085 0.865191
vt 0.826911 0.945776
vt 0.826911 0.865191
vt 0.826911 0.865191
vt 0.826911 0.945776
vt 0.237500 0.012500
vt 0.012500 0.012500
vt 0.012500 0.237500
vt 0.237500 0.237500
vt 0.798085 0.914526
vt 0.826911 0.914526
vt 0.826911 0.914526
vt 0.798085 0.914526
vt 0.270670 0.800127
vt 0.270670 0.798138
vt 0.270670 0.798138
vt 0.270670 0.800127
vt 0.286478 0.815823
vt 0.286478 0.813763
vt 0.272175 0.813763
vt 0.272175 0.815823
vt 0.300781 0.815823
vt 0.300781 0.813763
vt 0.329387 0.813763
vt 0.329387 0.815823
vt 0.175781 0.630557
vt 0.175781 0.602709
vt 0.204387 0.602709
vt 0.204387 0.630557
vt 0.204387 0.555072
vt 0.205892 0.558166
vt 0.205892 0.558166
vt 0.204387 0.555072
vt 0.145670 0.609833
vt 0.145670 0.606739
vt 0.145670 0.606739
vt 0.145670 0.609833
vt 0.161478 0.681288
vt 0.161478 0.678194
vt 0.147175 0.678194
vt 0.147175 0.681288
vt 0.161478 0.630557
vt 0.161478 0.602709
vt 0.147175 0.602709
vt 0.147175 0.630557
vt 0.272175 0.872629
vt 0.270670 0.870599
vt 0.270670 0.870599
vt 0.272175 0.872629
vt 0.300781 0.782513
vt 0.300781 0.780483
vt 0.329387 0.780483
vt 0.329387 0.782513
vt 0.286478 0.782513
vt 0.286478 0.780483
vt 0.272175 0.780483
vt 0.272175 0.782513
vt 0.205892 0.581985
vt 0.205892 0.606739
vt 0.205892 0.606739
vt 0.205892 0.581985
vt 0.330892 0.796108
vt 0.330892 0.798138
vt 0.330892 0.798138
vt 0.330892 0.796108
vt 0.270670 0.796108
vt 0.270670 0.796108
vt 0.175781 0.681288
vt 0.175781 0.678194
vt 0.204387 0.678194
vt 0.204387 0.681288
vt 0.330892 0.837923
vt 0.330892 0.854974
vt 0.330892 0.854974
vt 0.330892 0.837923
vt 0.205892 0.609833
vt 0.205892 0.609833
vt 0.204387 0.606739
vt 0.204387 0.578890
vt 0.147175 0.578890
vt 0.147175 0.606739
vt 0.145670 0.581985
vt 0.147175 0.606739
vt 0.147175 0.578890
vt 0.145670 0.581985
vt 0.147175 0.654376
vt 0.147175 0.657470
vt 0.145670 0.657470
vt 0.145670 0.654376
vt 0.272175 0.839344
vt 0.272175 0.857004
vt 0.270670 0.854974
vt 0.270670 0.837923
vt 0.329387 0.766888
vt 0.329387 0.764858
vt 0.330892 0.764858
vt 0.330892 0.766888
vt 0.204387 0.654376
vt 0.204387 0.657470
vt 0.205892 0.657470
vt 0.205892 0.654376
vt 0.204387 0.578890
vt 0.204387 0.606739
vt 0.329387 0.839344
vt 0.329387 0.857004
vt 0.147175 0.657470
vt 0.147175 0.654376
vt 0.145670 0.654376
vt 0.145670 0.657470
vt 0.204387 0.657470
vt 0.204387 0.654376
vt 0.205892 0.654376
vt 0.205892 0.657470
vt 0.272175 0.766888
vt 0.272175 0.764858
vt 0.270670 0.764858
vt 0.270670 0.766888
vt 0.272175 0.800198
vt 0.272175 0.798138
vt 0.329387 0.764858
vt 0.329387 0.766888
vt 0.330892 0.766888
vt 0.330892 0.764858
vt 0.329387 0.800198
vt 0.329387 0.798138
vt 0.330892 0.800127
vt 0.272175 0.764858
vt 0.272175 0.766888
vt 0.270670 0.766888
vt 0.270670 0.764858
vt 0.145670 0.558166
vt 0.147175 0.555072
vt 0.147175 0.555072
vt 0.145670 0.558166
vt 0.175781 0.555072
vt 0.175781 0.555072
vt 0.330892 0.870599
vt 0.329387 0.872629
vt 0.329387 0.872629
vt 0.330892 0.870599
vt 0.286478 0.903879
vt 0.272175 0.903879
vt 0.272175 0.903879
vt 0.286478 0.903879
vt 0.329387 0.903879
vt 0.300781 0.903879
vt 0.300781 0.903879
vt 0.329387 0.903879
vt 0.161478 0.555072
vt 0.161478 0.555072
vt 0.161478 0.681288
vt 0.161478 0.678194
vt 0.329387 0.782513
vt 0.329387 0.780483
vt 0.300781 0.780483
vt 0.300781 0.782513
vt 0.286478 0.782513
vt 0.286478 0.780483
vt 0.204387 0.630557
vt 0.204387 0.602709
vt 0.175781 0.602709
vt 0.175781 0.630557
vt 0.204387 0.681288
vt 0.204387 0.678194
vt 0.175781 0.678194
vt 0.175781 0.681288
vt 0.161478 0.630557
vt 0.161478 0.602709
vt 0.286478 0.815823
vt 0.286478 0.813763
vt 0.329387 0.815823
vt 0.329387 0.813763
vt 0.300781 0.813763
vt 0.300781 0.815823
vt 0.272175 0.815823
vt 0.272175 0.813763
vt 0.147175 0.630557
vt 0.147175 0.602709
vt 0.272175 0.782513
vt 0.272175 0.780483
vt 0.147175 0.681288
vt 0.147175 0.678194
vt 0.300781 0.872629
vt 0.300781 0.854969
vt 0.286478 0.854969
vt 0.286478 0.872629
vt 0.272175 0.854969
vt 0.286478 0.854969
vt 0.286478 0.872629
vt 0.329387 0.854969
vt 0.300781 0.854969
vt 0.300781 0.872629
vt 0.329387 0.857004
vt 0.329387 0.839344
vt 0.272175 0.857004
vt 0.272175 0.839344
vt 0.270670 0.837923
vt 0.270670 0.854974
vt 0.329387 0.800198
vt 0.330892 0.800127
vt 0.272175 0.800198
vt 0.329387 0.854969
vt 0.272175 0.854969
vt 0.272175 0.798138
vt 0.329387 0.798138
vt 0.300781 0.839344
vt 0.300781 0.839344
vt 0.300781 0.800198
vt 0.300781 0.800198
vt 0.300781 0.823719
vt 0.300781 0.823719
vt 0.286478 0.823719
vt 0.286478 0.823719
vt 0.300781 0.847073
vt 0.286478 0.847073
vt 0.286478 0.847073
vt 0.300781 0.847073
vt 0.286478 0.839344
vt 0.286478 0.800198
vt 0.286478 0.800198
vt 0.286478 0.839344
vn -0.0000 0.0000 1.0000
vn 0.0000 1.0000 0.0000
vn 1.0000 0.0000 -0.0000
vn -1.0000 0.0000 0.0000
vn 0.0000 -1.0000 -0.0000
vn -0.0000 0.0000 -1.0000
vn 0.7071 -0.7071 -0.0000
vn 0.0000 0.7071 -0.7071
vn -0.7071 0.7071 0.0000
vn 0.0000 -0.7071 0.7071
vn 0.0000 -0.7071 -0.7071
vn 0.0000 0.7071 0.7071
vn 0.7319 0.2254 0.6431
vn 0.7504 0.0003 0.6610
vn 0.7090 0.3318 0.6222
vn -0.7504 0.0003 0.6610
vn -0.7319 0.2254 0.6431
vn -0.7090 0.3318 0.6222
vn -0.7319 0.2254 -0.6431
vn -0.7504 0.0003 -0.6610
vn -0.7090 0.3318 -0.6222
vn -0.6277 0.5519 0.5490
vn -0.7503 -0.0001 0.6611
vn -0.7499 -0.0001 0.6616
vn 0.7324 -0.2252 0.6425
vn 0.6277 -0.5519 0.5490
vn 0.7094 -0.3317 0.6218
vn 0.7319 0.2254 -0.6431
vn 0.6277 0.5519 -0.5490
vn 0.7090 0.3318 -0.6222
vn 0.7504 0.0003 -0.6610
vn 0.7503 -0.0001 -0.6611
vn 0.7499 -0.0001 -0.6616
vn -0.6277 0.5519 -0.5490
vn 0.6277 0.5519 0.5490
vn -0.7324 -0.2252 -0.6425
vn -0.6277 -0.5519 -0.5490
vn -0.7094 -0.3317 -0.6218
vn -0.7509 -0.0001 -0.6604
vn 0.6277 -0.5519 -0.5490
vn 0.7324 -0.2252 -0.6425
vn 0.7094 -0.3317 -0.6218
vn 0.7509 -0.0001 0.6604
vn -0.6277 -0.5519 0.5490
vn -0.7324 -0.2252 0.6425
vn -0.7094 -0.3317 0.6218
vn -0.7071 -0.7071 0.0000
vn 0.7071 0.7071 -0.0000
vn 0.7499 -0.0001 0.6616
vn 0.7503 -0.0001 0.6611
vn -0.7499 -0.0001 -0.6616
vn -0.7503 -0.0001 -0.6611
vn 0.7509 -0.0001 -0.6604
vn -0.7509 -0.0001 0.6604
usemtl prototype_texture
s off
f 87/1/1 91/2/1 89/3/1 85/4/1
f 88/5/1 86/6/1 90/7/1 92/8/1
f 88/5/1 92/8/1 91/2/1 87/1/1
f 90/7/1 86/6/1 85/4/1 89/3/1
f 90/9/2 89/10/2 96/11/2 95/12/2
f 90/13/3 95/14/3 93/15/3 92/16/3
f 91/17/4 94/18/4 96/19/4 89/20/4
f 96/21/1 94/22/1 93/23/1 95/24/1
f 92/25/5 93/26/5 94/27/5 91/28/5
f 100/29/1 99/30/1 97/31/1 98/32/1
f 104/33/1 103/34/1 101/35/1 102/36/1
f 108/37/1 107/38/1 105/39/1 106/40/1
f 112/41/1 111/42/1 109/43/1 110/44/1
f 116/45/1 115/46/1 113/47/1 114/48/1
f 120/49/1 119/50/1 117/51/1 118/52/1
f 124/53/1 123/54/1 121/55/1 122/56/1
f 128/57/1 127/58/1 125/59/1 126/60/1
f 131/61/6 129/62/6 133/63/6 135/64/6
f 132/65/6 136/66/6 134/67/6 130/68/6
f 132/65/6 131/61/6 135/64/6 136/66/6
f 134/67/6 133/63/6 129/62/6 130/68/6
f 134/69/2 139/70/2 140/71/2 133/72/2
f 134/73/3 136/74/3 137/75/3 139/76/3
f 135/77/4 133/78/4 140/79/4 138/80/4
f 140/81/6 139/82/6 137/83/6 138/84/6
f 136/85/5 135/86/5 138/87/5 137/88/5
s 1
f 79/89/4 19/90/4 25/91/4 73/92/4
f 84/93/6 54/94/6 20/95/6 75/96/6
f 81/97/1 46/98/1 24/99/1 76/100/1
f 43/101/1 42/102/1 6/103/1 38/104/1
f 9/105/7 10/106/7 5/107/7 6/108/7
f 39/109/4 35/110/4 34/111/4 18/112/4
f 55/113/8 59/114/8 36/115/8 40/116/8
f 59/117/6 56/118/6 14/119/6 36/120/6
f 15/121/9 16/122/9 3/123/9 4/124/9
f 46/125/10 49/126/10 27/127/10 24/128/10
f 54/129/11 55/130/11 40/131/11 20/132/11
f 10/133/3 31/134/3 37/135/3 5/136/3
f 30/137/3 21/138/3 23/139/3 28/140/3
f 19/90/4 39/141/4 18/142/4 25/91/4
f 49/143/12 43/144/12 38/145/12 27/146/12
f 64/147/3 11/148/3 8/149/3 68/150/3
f 31/134/3 30/151/3 28/152/3 37/135/3
f 38/153/13 6/154/14 5/136/14 37/135/15
f 1/155/16 33/156/17 34/111/18 2/157/16
f 36/158/19 14/159/20 13/160/20 35/110/21
f 33/161/17 17/162/22 18/163/22 34/164/18
f 61/165/23 4/166/24 3/167/24 62/168/23
f 24/169/25 27/170/26 28/171/26 23/172/27
f 32/173/28 29/174/29 30/175/29 31/176/30
f 9/177/31 32/178/28 31/134/30 10/133/31
f 63/179/32 12/180/33 11/148/33 64/147/32
f 40/181/34 36/182/19 35/183/21 39/184/34
f 27/185/35 38/186/13 37/187/15 28/188/35
f 20/189/36 40/190/37 39/191/37 19/192/38
f 75/193/39 20/194/36 19/90/38 79/89/39
f 29/195/40 22/196/41 21/197/42 30/198/40
f 76/199/43 24/200/25 23/139/27 80/201/43
f 17/202/44 26/203/45 25/204/46 18/205/44
f 35/110/4 13/160/4 2/157/4 34/111/4
f 13/206/47 14/207/47 1/208/47 2/209/47
f 41/210/5 9/105/5 6/108/5 42/211/5
f 11/212/48 12/213/48 7/214/48 8/215/48
f 53/216/2 15/217/2 4/218/2 57/219/2
f 12/220/2 44/221/2 45/222/2 7/223/2
f 56/224/5 41/210/5 42/211/5 51/225/5
f 60/226/12 52/227/12 43/144/12 49/143/12
f 22/228/11 29/229/11 50/230/11 48/231/11
f 58/232/10 60/233/10 49/126/10 46/125/10
f 32/234/6 9/235/6 41/236/6 47/237/6
f 29/238/8 32/239/8 47/240/8 50/241/8
f 52/242/1 51/243/1 42/102/1 43/101/1
f 83/244/1 58/245/1 46/98/1 81/97/1
f 78/246/6 22/247/6 48/248/6 82/249/6
f 77/250/1 26/251/1 58/245/1 83/244/1
f 33/252/1 1/253/1 51/243/1 52/242/1
f 26/254/10 17/255/10 60/233/10 58/232/10
f 17/256/12 33/257/12 52/227/12 60/226/12
f 14/207/5 56/224/5 51/225/5 1/208/5
f 44/221/2 53/216/2 57/219/2 45/222/2
f 48/231/11 50/230/11 55/130/11 54/129/11
f 47/237/6 41/236/6 56/118/6 59/117/6
f 50/241/8 47/240/8 59/114/8 55/113/8
f 82/249/6 48/248/6 54/94/6 84/93/6
f 44/258/6 70/259/6 72/260/6 53/261/6
f 4/124/1 61/262/1 71/263/1 57/264/1
f 12/213/6 63/265/6 70/259/6 44/258/6
f 57/264/1 71/263/1 69/266/1 45/267/1
f 7/268/49 67/269/50 68/150/50 8/149/49
f 15/270/51 65/271/52 66/272/52 16/273/51
f 78/274/53 63/179/32 64/147/32 74/275/53
f 77/276/54 61/165/23 62/168/23 73/92/54
f 74/275/3 64/147/3 68/150/3 80/201/3
f 45/267/1 69/266/1 67/277/1 7/214/1
f 53/261/6 72/260/6 65/278/6 15/121/6
f 16/273/4 66/272/4 62/168/4 3/167/4
f 21/138/3 74/275/3 80/201/3 23/139/3
f 26/279/45 77/276/54 73/92/54 25/91/46
f 22/280/41 78/274/53 74/275/53 21/138/42
f 69/281/4 70/282/4 82/283/4 81/284/4
f 61/262/1 77/250/1 83/244/1 71/263/1
f 63/265/6 78/246/6 82/249/6 70/259/6
f 70/285/5 69/286/5 71/287/5 72/288/5
f 67/269/50 76/199/43 80/201/43 68/150/50
f 65/271/52 75/193/39 79/89/39 66/272/52
f 69/266/1 81/97/1 76/100/1 67/277/1
f 72/260/6 84/93/6 75/96/6 65/278/6
f 66/272/4 79/89/4 73/92/4 62/168/4
f 82/289/2 84/290/2 83/291/2 81/292/2
f 71/293/3 83/294/3 84/295/3 72/296/3
